<svg width="130" height="17" viewBox="0 0 130 17" fill="none" xmlns="http://www.w3.org/2000/svg">
<path d="M30.6641 12.9416H34.1728V3.4797H38.8093V0.229248H30.6641V12.9416Z" fill="#8654CC"/>
<path d="M23.4862 10.4176C21.7714 10.4176 20.703 9.31184 20.6049 7.51193H29.3042C29.3042 7.51193 29.3585 6.85815 29.3585 6.18592C29.3585 2.3722 27.0861 0.229248 23.5226 0.229248C19.7587 0.229248 17.1406 2.97121 17.1406 6.87602C17.1406 10.835 19.7224 13.5591 23.4862 13.5591C26.977 13.5591 29.3221 11.5413 29.3948 8.58311H25.9063C25.7043 9.74597 24.8495 10.4176 23.4862 10.4176ZM23.5226 3.17184C24.9292 3.17184 25.7672 3.77777 25.9993 5.06054H20.7919C21.1907 3.85964 22.1737 3.17184 23.5226 3.17184Z" fill="#8654CC"/>
<path d="M118.57 0.229248V3.4797H122.207V12.9416H125.716V3.4797H129.352V0.229248H118.57Z" fill="#8654CC"/>
<path d="M10.8886 0.229248L8.47427 8.01754L6.12512 0.229248H2.25279L0.234375 12.9416H3.45276L4.67985 5.03344L7.05266 12.9416H9.81622L12.2727 4.89161L13.4525 12.9416H16.7251L14.7067 0.229248H10.8886Z" fill="#8654CC"/>
<path d="M45.5442 0.229248C41.7988 0.229248 39.6713 2.06318 39.7625 5.18737H43.3988C43.4167 3.86136 44.0914 3.22718 45.5442 3.22718C46.5802 3.22718 47.2347 3.66304 47.2347 4.31682C47.2347 4.7348 47.0714 4.89796 46.4348 5.07956L43.5078 5.87863C40.7079 6.64137 39.4531 7.80365 39.4531 9.74712C39.4531 12.0169 41.1079 13.5424 43.5442 13.5424C45.4351 13.5424 46.6714 12.7796 47.2896 11.3452V13.2518H50.6528V4.80571C50.6528 1.73629 48.7077 0.229248 45.5442 0.229248ZM44.2894 10.5986C43.3988 10.5986 42.9618 10.1628 42.9618 9.52746C42.9618 8.92787 43.2706 8.54737 44.2316 8.27409L47.2676 7.42141V7.65663C47.2711 9.29108 45.9834 10.5986 44.2894 10.5986Z" fill="#8654CC"/>
<path d="M106.415 0.229248H102.542L99.8141 4.95042H98.415V0.229248H94.9062V12.9416H98.415V8.07461H99.7933L102.724 12.9416H106.688L102.816 6.45804L106.415 0.229248Z" fill="#8654CC"/>
<path d="M74.6223 0.229248C70.8769 0.229248 68.7494 2.06318 68.8406 5.18737H72.4769C72.4948 3.86136 73.1695 3.22718 74.6223 3.22718C75.6612 3.22718 76.3129 3.66304 76.3129 4.31682C76.3129 4.7348 76.1495 4.89796 75.5129 5.07956L72.586 5.87863C69.7861 6.64137 68.5312 7.80365 68.5312 9.74712C68.5312 12.0169 70.186 13.5424 72.6223 13.5424C74.5132 13.5424 75.7495 12.7981 76.3677 11.3452V13.2518H79.7309V4.80571C79.7309 1.73629 77.7858 0.229248 74.6223 0.229248ZM73.3525 10.5986C72.4798 10.5986 72.0434 10.1628 72.0434 9.52746C72.0434 8.92787 72.3522 8.56466 73.3161 8.29254L76.3521 7.43986V7.65663C76.3492 9.38275 75.0586 10.5986 73.3496 10.5986H73.3525Z" fill="#8654CC"/>
<path d="M88.3281 0.229248C86.6485 0.229248 85.3896 1.08251 84.8921 2.44426V0.537692H81.3828V16.719H84.8921V11.3827C85.4116 12.7318 86.6635 13.5407 88.3281 13.5407C91.2371 13.5407 93.1828 11.2887 93.1828 6.89389C93.1828 2.49903 91.2371 0.229248 88.3281 0.229248ZM87.3469 10.2902C85.7833 10.2902 84.8378 9.20057 84.8378 6.89389C84.8378 4.60566 85.8017 3.4797 87.3832 3.4797C88.8741 3.4797 89.7653 4.58779 89.7653 6.89389C89.7647 9.29109 88.9099 10.2902 87.3463 10.2902H87.3469Z" fill="#8654CC"/>
<path d="M62.2793 0.229248L59.8649 8.01754L57.5157 0.229248H53.6428L51.625 12.9416H54.8428L56.0705 5.03344L58.4433 12.9416H61.2063L63.6633 4.89161L64.8425 12.9416H68.1157L66.0973 0.229248H62.2793Z" fill="#8654CC"/>
<path d="M112.072 10.4176C110.375 10.4176 109.29 9.31184 109.191 7.51193H117.89C117.89 7.51193 117.944 6.85815 117.944 6.18592C117.944 2.3722 115.672 0.229248 112.108 0.229248C108.345 0.229248 105.727 2.97121 105.727 6.87602C105.727 10.835 108.308 13.5591 112.072 13.5591C115.563 13.5591 117.908 11.5413 117.981 8.58311H114.49C114.29 9.74597 113.435 10.4176 112.072 10.4176ZM112.108 3.17184C113.515 3.17184 114.353 3.77777 114.585 5.06054H109.378C109.776 3.85964 110.76 3.17184 112.108 3.17184Z" fill="#8654CC"/>
</svg>
