<svg width="130" height="17" viewBox="0 0 130 17" fill="none" xmlns="http://www.w3.org/2000/svg">
<path d="M30.6641 12.9414H34.1728V3.47946H38.8093V0.229004H30.6641V12.9414Z" fill="#8654CC"/>
<path d="M23.4862 10.4174C21.7714 10.4174 20.703 9.3116 20.6049 7.51168H29.3042C29.3042 7.51168 29.3585 6.8579 29.3585 6.18567C29.3585 2.37195 27.0861 0.229004 23.5226 0.229004C19.7587 0.229004 17.1406 2.97096 17.1406 6.87578C17.1406 10.8348 19.7224 13.5589 23.4862 13.5589C26.977 13.5589 29.3221 11.541 29.3948 8.58287H25.9063C25.7043 9.74572 24.8495 10.4174 23.4862 10.4174ZM23.5226 3.1716C24.9292 3.1716 25.7672 3.77752 25.9993 5.0603H20.7919C21.1907 3.85939 22.1737 3.1716 23.5226 3.1716Z" fill="#8654CC"/>
<path d="M118.57 0.229004V3.47946H122.207V12.9414H125.716V3.47946H129.352V0.229004H118.57Z" fill="#8654CC"/>
<path d="M10.8886 0.229004L8.47427 8.01729L6.12512 0.229004H2.25279L0.234375 12.9414H3.45276L4.67985 5.0332L7.05266 12.9414H9.81622L12.2727 4.89137L13.4525 12.9414H16.7251L14.7067 0.229004H10.8886Z" fill="#8654CC"/>
<path d="M45.5442 0.229004C41.7988 0.229004 39.6713 2.06293 39.7625 5.18713H43.3988C43.4167 3.86112 44.0914 3.22694 45.5442 3.22694C46.5802 3.22694 47.2347 3.66279 47.2347 4.31657C47.2347 4.73456 47.0714 4.89771 46.4348 5.07932L43.5078 5.87838C40.7079 6.64112 39.4531 7.8034 39.4531 9.74687C39.4531 12.0167 41.1079 13.5421 43.5442 13.5421C45.4351 13.5421 46.6714 12.7794 47.2896 11.345V13.2516H50.6528V4.80547C50.6528 1.73604 48.7077 0.229004 45.5442 0.229004ZM44.2894 10.5984C43.3988 10.5984 42.9618 10.1625 42.9618 9.52722C42.9618 8.92763 43.2706 8.54712 44.2316 8.27385L47.2676 7.42116V7.65639C47.2711 9.29084 45.9834 10.5984 44.2894 10.5984Z" fill="#8654CC"/>
<path d="M106.415 0.229004H102.542L99.8141 4.95018H98.415V0.229004H94.9062V12.9414H98.415V8.07437H99.7933L102.724 12.9414H106.688L102.816 6.45779L106.415 0.229004Z" fill="#8654CC"/>
<path d="M74.6223 0.229004C70.8769 0.229004 68.7494 2.06293 68.8406 5.18713H72.4769C72.4948 3.86112 73.1695 3.22694 74.6223 3.22694C75.6612 3.22694 76.3129 3.66279 76.3129 4.31657C76.3129 4.73456 76.1495 4.89771 75.5129 5.07932L72.586 5.87838C69.7861 6.64112 68.5312 7.8034 68.5312 9.74687C68.5312 12.0167 70.186 13.5421 72.6223 13.5421C74.5132 13.5421 75.7495 12.7978 76.3677 11.345V13.2516H79.7309V4.80547C79.7309 1.73604 77.7858 0.229004 74.6223 0.229004ZM73.3525 10.5984C72.4798 10.5984 72.0434 10.1625 72.0434 9.52722C72.0434 8.92763 72.3522 8.56442 73.3161 8.2923L76.3521 7.43961V7.65639C76.3492 9.38251 75.0586 10.5984 73.3496 10.5984H73.3525Z" fill="#8654CC"/>
<path d="M88.3281 0.229004C86.6485 0.229004 85.3896 1.08226 84.8921 2.44402V0.537447H81.3828V16.7188H84.8921V11.3825C85.4116 12.7315 86.6635 13.5404 88.3281 13.5404C91.2371 13.5404 93.1828 11.2885 93.1828 6.89365C93.1828 2.49879 91.2371 0.229004 88.3281 0.229004ZM87.3469 10.29C85.7833 10.29 84.8378 9.20033 84.8378 6.89365C84.8378 4.60541 85.8017 3.47946 87.3832 3.47946C88.8741 3.47946 89.7653 4.58754 89.7653 6.89365C89.7647 9.29084 88.9099 10.29 87.3463 10.29H87.3469Z" fill="#8654CC"/>
<path d="M62.2793 0.229004L59.8649 8.01729L57.5157 0.229004H53.6428L51.625 12.9414H54.8428L56.0705 5.0332L58.4433 12.9414H61.2063L63.6633 4.89137L64.8425 12.9414H68.1157L66.0973 0.229004H62.2793Z" fill="#8654CC"/>
<path d="M112.072 10.4174C110.375 10.4174 109.29 9.3116 109.191 7.51168H117.89C117.89 7.51168 117.944 6.8579 117.944 6.18567C117.944 2.37195 115.672 0.229004 112.108 0.229004C108.345 0.229004 105.727 2.97096 105.727 6.87578C105.727 10.8348 108.308 13.5589 112.072 13.5589C115.563 13.5589 117.908 11.541 117.981 8.58287H114.49C114.29 9.74572 113.435 10.4174 112.072 10.4174ZM112.108 3.1716C113.515 3.1716 114.353 3.77752 114.585 5.0603H109.378C109.776 3.85939 110.76 3.1716 112.108 3.1716Z" fill="#8654CC"/>
</svg>
