<svg width="226" height="30" viewBox="0 0 226 30" fill="none" xmlns="http://www.w3.org/2000/svg">
<path d="M53.4609 22.5232H59.586V6.00557H67.68V0.331299H53.4609V22.5232Z" fill="#8654CC"/>
<path d="M40.9289 18.117C37.9354 18.117 36.0704 16.1866 35.8991 13.0446H51.0854C51.0854 13.0446 51.1801 11.9033 51.1801 10.7298C51.1801 4.07221 47.2132 0.331299 40.9924 0.331299C34.422 0.331299 29.8516 5.1179 29.8516 11.9345C29.8516 18.8456 34.3585 23.601 40.9289 23.601C47.0228 23.601 51.1166 20.0785 51.2436 14.9145H45.1537C44.8011 16.9445 43.3088 18.117 40.9289 18.117ZM40.9924 5.46814C43.4479 5.46814 44.9109 6.5259 45.316 8.76521H36.2255C36.9218 6.66881 38.6377 5.46814 40.9924 5.46814Z" fill="#8654CC"/>
<path d="M206.922 0.331299V6.00557H213.27V22.5232H219.396V6.00557H225.744V0.331299H206.922Z" fill="#8654CC"/>
<path d="M18.9349 0.331299L14.7202 13.9272L10.6193 0.331299H3.85946L0.335938 22.5232H5.95422L8.09635 8.71791L12.2385 22.5232H17.0628L21.3511 8.47032L23.4106 22.5232H29.1236L25.6001 0.331299H18.9349Z" fill="#8654CC"/>
<path d="M79.4377 0.331299C72.8995 0.331299 69.1856 3.53276 69.3448 8.98662H75.6925C75.7238 6.67183 76.9016 5.56475 79.4377 5.56475C81.2463 5.56475 82.3889 6.32562 82.3889 7.46691C82.3889 8.19658 82.1038 8.48139 80.9924 8.79842L75.883 10.1933C70.9952 11.5248 68.8047 13.5538 68.8047 16.9465C68.8047 20.9088 71.6934 23.5719 75.9464 23.5719C79.2473 23.5719 81.4055 22.2403 82.4847 19.7363V23.0646H88.3558V8.32037C88.3558 2.96212 84.9603 0.331299 79.4377 0.331299ZM77.2472 18.433C75.6925 18.433 74.9298 17.6721 74.9298 16.5631C74.9298 15.5164 75.4688 14.8521 77.1465 14.3751L82.4464 12.8866V13.2972C82.4524 16.1504 80.2045 18.433 77.2472 18.433Z" fill="#8654CC"/>
<path d="M185.692 0.331299H178.932L174.169 8.57298H171.727V0.331299H165.602V22.5232H171.727V14.0268H174.133L179.249 22.5232H186.168L179.409 11.2048L185.692 0.331299Z" fill="#8654CC"/>
<path d="M130.196 0.331299C123.657 0.331299 119.943 3.53276 120.103 8.98662H126.45C126.482 6.67183 127.659 5.56475 130.196 5.56475C132.009 5.56475 133.147 6.32562 133.147 7.46691C133.147 8.19658 132.862 8.48139 131.75 8.79842L126.641 10.1933C121.753 11.5248 119.562 13.5538 119.562 16.9465C119.562 20.9088 122.451 23.5719 126.704 23.5719C130.005 23.5719 132.163 22.2725 133.242 19.7363V23.0646H139.114V8.32037C139.114 2.96212 135.718 0.331299 130.196 0.331299ZM127.979 18.433C126.455 18.433 125.694 17.6721 125.694 16.5631C125.694 15.5164 126.233 14.8823 127.915 14.4073L133.215 12.9188V13.2972C133.21 16.3104 130.957 18.433 127.974 18.433H127.979Z" fill="#8654CC"/>
<path d="M154.116 0.331299C151.184 0.331299 148.987 1.82082 148.118 4.19802V0.869744H141.992V29.1173H148.118V19.8018C149.025 22.1568 151.211 23.5688 154.116 23.5688C159.195 23.5688 162.591 19.6377 162.591 11.9657C162.591 4.29363 159.195 0.331299 154.116 0.331299ZM152.404 17.8946C149.674 17.8946 148.024 15.9924 148.024 11.9657C148.024 7.97114 149.706 6.00557 152.467 6.00557C155.07 6.00557 156.625 7.93994 156.625 11.9657C156.624 16.1504 155.132 17.8946 152.403 17.8946H152.404Z" fill="#8654CC"/>
<path d="M108.654 0.331299L104.439 13.9272L100.338 0.331299H93.5772L90.0547 22.5232H95.672L97.8151 8.71791L101.957 22.5232H106.781L111.07 8.47032L113.128 22.5232H118.842L115.319 0.331299H108.654Z" fill="#8654CC"/>
<path d="M195.57 18.117C192.606 18.117 190.713 16.1866 190.54 13.0446H205.726C205.726 13.0446 205.821 11.9033 205.821 10.7298C205.821 4.07221 201.854 0.331299 195.633 0.331299C189.063 0.331299 184.492 5.1179 184.492 11.9345C184.492 18.8456 188.999 23.601 195.57 23.601C201.663 23.601 205.757 20.0785 205.884 14.9145H199.79C199.442 16.9445 197.949 18.117 195.57 18.117ZM195.633 5.46814C198.087 5.46814 199.552 6.5259 199.957 8.76521H190.866C191.561 6.66881 193.278 5.46814 195.633 5.46814Z" fill="#8654CC"/>
</svg>
