<svg width="40" height="40" viewBox="0 0 40 40" fill="none" xmlns="http://www.w3.org/2000/svg">
<path d="M39.1759 17.679C38.9342 17.3008 38.7806 16.8732 38.7261 16.4277C38.7026 16.262 38.6816 16.0953 38.6705 15.9282C38.6509 15.6354 38.7183 15.3519 38.7835 15.0697C38.9098 14.5216 38.9917 13.9721 38.8919 13.4083C38.7654 12.61 38.4165 11.8634 37.8851 11.2543C37.6369 10.9739 37.3344 10.7577 37.0311 10.5437C36.6877 10.3017 36.3639 10.0422 36.1587 9.66379C36.1442 9.63714 36.1215 9.61528 36.1047 9.5899C35.9144 9.30037 35.7318 9.00732 35.663 8.65997C35.6401 8.54532 35.6188 8.43038 35.592 8.31658C35.5166 7.99546 35.4624 7.66687 35.3567 7.35577C35.1338 6.70028 34.7194 6.16876 34.2073 5.71099C33.727 5.27395 33.1396 4.97173 32.5048 4.83508C32.326 4.79658 32.1478 4.7554 31.9702 4.71154C31.7054 4.65809 31.4525 4.55726 31.2236 4.41412C31.0685 4.30835 30.9159 4.19835 30.7568 4.09864C30.5095 3.93632 30.2985 3.72436 30.1372 3.47615C30.0133 3.29606 29.8921 3.11414 29.7694 2.93306C29.521 2.55906 29.2036 2.23612 28.8338 1.98156C28.1223 1.49883 27.3423 1.21565 26.4773 1.21636C26.1932 1.22976 25.9103 1.26191 25.6304 1.31254C25.4139 1.34145 25.1992 1.38277 24.9827 1.41408C24.6951 1.45455 24.416 1.38587 24.1358 1.33849C23.7314 1.28278 23.3454 1.13442 23.0076 0.904834C22.8838 0.816128 22.755 0.733205 22.6242 0.655077C22.4455 0.548321 22.2678 0.437475 22.0807 0.3475C21.5614 0.10818 20.9945 -0.0104228 20.4228 0.000718222C19.6969 -0.000409983 19.0102 0.154718 18.3878 0.543667C18.2283 0.643372 18.0727 0.749423 17.9125 0.848C17.7564 0.943898 17.5979 1.03458 17.4394 1.12596C17.2519 1.23328 17.0314 1.26685 16.8204 1.22017C16.5712 1.17151 16.321 1.12653 16.0745 1.06588C15.4926 0.909346 14.8817 0.894539 14.2929 1.02287C13.4672 1.21453 12.7298 1.57005 12.1523 2.20678C11.9786 2.39844 11.8302 2.61265 11.668 2.81503C11.5376 2.97749 11.4047 3.13783 11.2713 3.29776C11.1708 3.42158 11.0275 3.50337 10.8698 3.52692C10.6141 3.56768 10.3594 3.62056 10.1021 3.64454C9.34209 3.70701 8.61679 3.99005 8.01518 4.45882C7.31569 5.00233 6.8142 5.67982 6.5777 6.54219C6.53201 6.70874 6.47997 6.87346 6.42596 7.03761C6.22754 7.67646 5.78895 8.21349 5.20256 8.53517C4.98524 8.65701 4.7675 8.77801 4.55314 8.90479C4.29196 9.054 4.05447 9.24114 3.84844 9.46015C2.95179 10.4418 2.53534 11.5799 2.71981 12.9174C2.76211 13.2238 2.79793 13.5362 2.73052 13.8438C2.67863 14.0814 2.60205 14.3135 2.54197 14.5496C2.47132 14.8157 2.34849 15.0651 2.18053 15.2832C2.02215 15.4948 1.85856 15.7027 1.69906 15.9135C1.43661 16.2524 1.24397 16.6399 1.13214 17.0537C1.06417 17.3034 1.01438 17.5578 0.983217 17.8149C0.901845 18.5624 0.988717 19.287 1.33395 19.9664C1.44437 20.184 1.56184 20.398 1.67551 20.6137C1.78255 20.8167 1.89551 21.0226 1.92146 21.2507C1.95432 21.5424 2.06629 21.8205 2.05064 22.1206C2.04401 22.2508 2.08181 22.3826 2.08829 22.5143C2.10324 22.8129 2.02737 23.0992 1.95615 23.3853C1.85433 23.795 1.74786 24.2037 1.74179 24.6327C1.76788 24.8596 1.78029 25.089 1.8226 25.3128C1.95164 26.0641 2.28531 26.765 2.78679 27.3388C3.03147 27.6147 3.32692 27.8321 3.61856 28.0534C3.93093 28.2814 4.19649 28.5677 4.40055 28.8962C4.6135 29.2374 4.75269 29.6193 4.80938 30.0175C4.86184 30.405 4.89922 30.7989 5.04193 31.1657C5.54215 32.4511 6.42413 33.3365 7.76852 33.7267C8.04169 33.8061 8.3174 33.8776 8.58661 33.9687C8.95807 34.0901 9.27482 34.3382 9.48184 34.6696C9.60665 34.8671 9.72949 35.0667 9.84033 35.2724C10.1961 35.9418 10.7426 36.4904 11.4105 36.8489C11.9714 37.1553 12.5633 37.3632 13.2087 37.367C13.5077 37.3687 13.8072 37.3347 14.1062 37.3123C14.3898 37.2909 14.6731 37.2438 14.9569 37.2992C15.1064 37.3284 15.2543 37.3652 15.4018 37.4025C15.7731 37.4969 16.1337 37.6152 16.4402 37.8588C16.5795 37.9695 16.7263 38.0706 16.8655 38.1814C17.4282 38.6336 18.1089 38.9141 18.8268 38.9895C19.6279 39.0793 20.3998 38.9919 21.1213 38.6066C21.341 38.4896 21.5583 38.367 21.7774 38.2495C21.9845 38.129 22.2105 38.0449 22.4461 38.0011C22.7022 37.9624 22.9588 37.9279 23.2162 37.8977C23.3067 37.8842 23.3987 37.8839 23.4894 37.897C23.7888 37.9517 24.0896 38.0039 24.3839 38.0803C24.9576 38.2291 25.5335 38.2872 26.1195 38.1721C27.1777 37.9641 28.0649 37.4752 28.707 36.587C28.7368 36.546 28.7701 36.5072 28.8007 36.4664C29.0482 36.1175 29.3629 35.8218 29.7266 35.5966C30.1377 35.3494 30.5562 35.1538 31.0373 35.0947C31.33 35.0597 31.6201 35.0064 31.9061 34.935C33.0336 34.6499 34.2687 33.5674 34.6239 32.3086C34.664 32.1668 34.7063 32.0255 34.7422 31.8827C34.8507 31.4515 34.9979 31.0443 35.2685 30.6772C35.5435 30.3039 35.834 29.9602 36.2422 29.7291C36.3658 29.6588 36.4854 29.5813 36.6057 29.5053C36.8545 29.3558 37.0858 29.1791 37.2951 28.9781C37.7837 28.4841 38.1429 27.8771 38.3408 27.2109C38.4879 26.7706 38.5407 26.3043 38.4959 25.8421C38.4621 25.5493 38.421 25.2574 38.3867 24.9648C38.3475 24.7078 38.3537 24.446 38.4045 24.1911C38.4491 23.9983 38.4982 23.8067 38.54 23.6136C38.584 23.4041 38.666 23.2044 38.782 23.0244C38.9091 22.8283 39.0408 22.635 39.1769 22.4447C39.4786 22.0399 39.6977 21.5799 39.8218 21.0905C39.8959 20.7789 39.936 20.4599 39.9415 20.1395C39.9523 19.5102 39.8513 18.9028 39.5577 18.3391C39.4416 18.1128 39.3143 17.8924 39.1759 17.679ZM38.7911 20.3871C38.7458 20.9018 38.5555 21.3932 38.2423 21.8041C38.0732 22.0327 37.9181 22.2725 37.7672 22.5133C37.6213 22.7524 37.5142 23.0133 37.4501 23.2859C37.4281 23.374 37.3925 23.4586 37.3628 23.5447C37.354 23.5629 37.3468 23.5818 37.3412 23.6012C37.3082 23.8164 37.2773 24.0319 37.2444 24.247C37.2102 24.5454 37.2167 24.847 37.2633 25.1438C37.299 25.4465 37.347 25.7483 37.3697 26.0518C37.4249 26.7904 36.9512 27.9424 36.143 28.4526C35.9409 28.5803 35.7381 28.7065 35.5365 28.8351C35.1602 29.0609 34.8335 29.3604 34.5759 29.7158C34.5504 29.7528 34.5114 29.7803 34.4832 29.8159C34.44 29.8707 34.3994 29.9273 34.3609 29.9854C34.333 30.0273 34.3155 30.077 34.2847 30.1163C34.0463 30.4284 33.8703 30.7835 33.7665 31.1622C33.7051 31.3719 33.6431 31.5816 33.5923 31.7942C33.4092 32.5616 32.9355 33.1102 32.295 33.5351C31.9671 33.7418 31.5979 33.8742 31.2135 33.9232C30.8874 33.9744 30.5597 34.0247 30.2411 34.1079C30.019 34.1788 29.8021 34.2654 29.5922 34.3671C29.4899 34.4103 29.3906 34.4608 29.2902 34.5084C29.267 34.5187 29.2448 34.531 29.2239 34.5451C29.1043 34.63 28.988 34.7198 28.866 34.8008C28.5798 34.9959 28.326 35.2348 28.1136 35.5086C27.9929 35.6595 27.87 35.809 27.7561 35.9648C27.3798 36.4791 26.8675 36.7899 26.2667 36.9703C25.9978 37.0528 25.7184 37.096 25.4371 37.0981C25.1891 37.0917 24.9429 37.0551 24.704 36.9888C24.377 36.9154 24.0518 36.8266 23.7206 36.7806C23.487 36.7483 23.245 36.7756 23.0068 36.7779C22.9663 36.7779 22.9261 36.7895 22.8856 36.7908C22.8099 36.7833 22.7336 36.7849 22.6583 36.7953C22.3032 36.8975 21.9236 36.9084 21.5881 37.0831C21.3628 37.2002 21.1355 37.3138 20.9116 37.4343C20.6385 37.5812 20.3716 37.7441 20.0633 37.807C19.1758 37.9881 18.3445 37.8803 17.6032 37.3186C17.3846 37.1528 17.1655 36.9868 16.9407 36.8293C16.6654 36.6358 16.3585 36.4918 16.0339 36.4038C15.9665 36.3824 15.9002 36.3574 15.8355 36.3289C15.8084 36.3151 15.7803 36.3035 15.7513 36.2947C15.5375 36.253 15.3237 36.2107 15.1089 36.1745C14.8113 36.1323 14.5097 36.1289 14.2114 36.1645C13.9583 36.1879 13.7057 36.2174 13.4521 36.2336C12.8722 36.271 12.3497 36.0879 11.8584 35.7991C11.4628 35.5732 11.1349 35.2457 10.9087 34.8504C10.7807 34.625 10.6497 34.4012 10.5163 34.1793C10.1224 33.5085 9.481 33.0193 8.73004 32.8167C8.52485 32.7577 8.32036 32.6965 8.11347 32.6451C7.26859 32.4338 6.68996 31.8947 6.2697 31.1577C6.07622 30.8182 6.01769 30.4415 5.96297 30.0636C5.91037 29.7013 5.86665 29.335 5.72168 28.9959C5.44301 28.344 5.07775 27.751 4.50477 27.3096C4.34766 27.1886 4.19508 27.0616 4.03501 26.9447C3.46485 26.5286 3.14317 25.9549 2.9745 25.2837C2.86633 24.8475 2.86915 24.391 2.98268 23.956C3.07011 23.6322 3.14077 23.3044 3.19422 22.9734C3.22186 22.726 3.22426 22.4765 3.20113 22.2288C3.19633 22.1551 3.17842 21.9017 3.15008 21.6755C3.13019 21.5164 3.11299 21.3596 3.09282 21.2292C3.04699 20.7758 2.85096 20.4019 2.63787 20.0056C2.52956 19.8044 2.42111 19.6027 2.32085 19.397C2.12961 18.9839 2.05304 18.527 2.09915 18.0741C2.11481 17.8766 2.14484 17.6804 2.18884 17.4873C2.26415 17.1535 2.41237 16.8406 2.62264 16.5709C2.78976 16.3531 2.95941 16.137 3.12173 15.9153C3.34258 15.6042 3.51406 15.2608 3.62984 14.8974C3.69669 14.7004 3.73251 14.4987 3.7916 14.3018C3.9181 13.8803 3.90865 13.4484 3.87199 13.0158C3.8569 12.8386 3.84082 12.6614 3.82474 12.4842C3.76636 11.8329 3.95914 11.2491 4.30381 10.707C4.52874 10.3411 4.84323 10.0386 5.21751 9.82809C5.46219 9.69271 5.7056 9.55492 5.94549 9.4115C6.27055 9.2111 6.55937 8.95712 6.8001 8.66082C7.16409 8.22703 7.42865 7.71891 7.57546 7.17215C7.62031 7.01068 7.677 6.85217 7.72255 6.69111C7.95919 5.84877 8.98459 4.88415 10.0798 4.79404C10.3579 4.77105 10.6339 4.71901 10.9104 4.68108C11.1712 4.64892 11.4231 4.56515 11.6511 4.43485C11.8793 4.30454 12.0793 4.13023 12.2395 3.92194C12.3976 3.72295 12.5607 3.52706 12.7047 3.31806C13.2052 2.59235 13.9167 2.22554 14.7666 2.09382C15.1452 2.03501 15.5145 2.1044 15.884 2.18633C16.1962 2.25558 16.5114 2.31128 16.8273 2.3605C17.2584 2.42777 17.6557 2.30846 18.0269 2.09988C18.2835 1.95562 18.5354 1.80077 18.7785 1.63464C19.5605 1.10015 20.4077 1.02513 21.3016 1.26008C21.5167 1.32326 21.7209 1.41873 21.9073 1.54312C22.1488 1.69401 22.3857 1.85224 22.6287 2.00046C22.9456 2.18379 23.2881 2.31847 23.6451 2.39971C23.8423 2.44991 24.0413 2.4681 24.2382 2.50971C24.7058 2.60899 25.1688 2.55074 25.6311 2.46712C25.9311 2.4124 26.2303 2.33639 26.5372 2.35514C27.4382 2.41028 28.2022 2.74832 28.7624 3.47799C28.9263 3.69136 29.0676 3.92208 29.2211 4.14363C29.4578 4.4811 29.7488 4.77726 30.0819 5.0201C30.257 5.15041 30.4456 5.25421 30.6236 5.37619C30.9727 5.61636 31.371 5.73976 31.7791 5.83453C31.9228 5.86781 32.0664 5.90123 32.2105 5.93155C33.0385 6.10544 33.63 6.60269 34.0791 7.29527C34.2857 7.61385 34.3698 7.97346 34.4441 8.33886C34.5006 8.64855 34.5731 8.95514 34.6614 9.25722C34.7422 9.47059 34.8378 9.67804 34.9477 9.87801C34.9866 9.96023 35.0305 10.0402 35.0725 10.1211C35.0845 10.1488 35.0989 10.1753 35.1154 10.2005C35.1977 10.3091 35.287 10.4128 35.3651 10.5245C35.5903 10.8333 35.8645 11.1031 36.1767 11.3234C36.3156 11.4263 36.4543 11.5298 36.5967 11.6279C37.1886 12.0343 37.5204 12.6126 37.7091 13.2896C37.8458 13.7796 37.8077 14.2641 37.6935 14.7517C37.6311 15.0185 37.5884 15.2902 37.5461 15.5611C37.5086 15.8284 37.5173 16.1003 37.5719 16.3649C37.577 16.3793 37.5798 16.3944 37.5802 16.4096C37.549 16.6346 37.6572 16.8352 37.6919 17.0486C37.7548 17.4353 37.9232 17.7835 38.121 18.1179C38.2325 18.306 38.3451 18.4933 38.4573 18.681C38.7726 19.2093 38.8423 19.7865 38.7909 20.3868L38.7911 20.3871Z" fill="black"/>
<path d="M31.0009 19.5145C30.9978 13.6817 26.2631 8.98006 20.4963 8.95566C14.6219 8.93112 9.90428 13.7213 9.89455 19.4934C9.88496 25.2654 14.5821 30.0651 20.445 30.0673C26.2609 30.0697 31.0004 25.3309 31.0009 19.5145ZM20.4215 29.2143C15.0438 29.2016 10.741 24.8134 10.748 19.5045C10.752 16.9331 11.7758 14.4681 13.5946 12.6502C15.4136 10.8323 17.8791 9.81013 20.4507 9.8076C25.8809 9.81676 30.156 14.2533 30.1484 19.5264C30.1407 24.788 25.8636 29.227 20.4215 29.2143Z" fill="black"/>
<path d="M31.5702 12.9978L31.0391 13.1823C31.0573 13.2441 31.0684 13.2878 31.0829 13.3307C31.1653 13.571 31.2524 13.8096 31.3293 14.0517C31.3397 14.0928 31.3623 14.1297 31.3937 14.1582C31.4252 14.1866 31.4644 14.205 31.5063 14.2114C32.2695 14.4049 33.0312 14.6044 33.7929 14.8024C33.8445 14.8157 33.8953 14.8319 33.9464 14.8467C33.9472 14.8584 33.9479 14.8701 33.9486 14.8818C33.6968 14.9701 33.4461 15.0613 33.1929 15.146C32.9354 15.2317 32.6834 15.3368 32.4152 15.404L32.3137 15.1529L31.7782 15.3414L32.2163 16.6027L32.7541 16.4155L32.6448 16.0721C33.3183 15.8342 33.982 15.6039 34.6517 15.3762C34.6997 15.4989 34.7396 15.6009 34.7836 15.7132L35.3186 15.5277C35.3037 15.4747 35.2937 15.4308 35.2791 15.3887C35.1964 15.1485 35.1053 14.9109 35.0321 14.6679C35.0204 14.6196 34.9941 14.5761 34.957 14.5429C34.9199 14.5098 34.8737 14.4888 34.8245 14.4826C34.0498 14.2926 33.2767 14.0967 32.503 13.9022C32.4595 13.8914 32.4166 13.8767 32.3734 13.8637L32.3713 13.8278L33.925 13.2892C33.9631 13.3775 33.9947 13.4504 34.0312 13.5352L34.5675 13.3493L34.1364 12.1084L33.6002 12.2953C33.6342 12.4112 33.6634 12.5113 33.6961 12.623L31.6905 13.3176L31.5702 12.9978Z" fill="black"/>
<path d="M29.1119 9.72252L28.6699 10.0687C28.6981 10.1095 28.719 10.1435 28.7434 10.1748C28.9056 10.3835 29.0731 10.5884 29.2288 10.8016C29.2515 10.8375 29.2845 10.8655 29.3236 10.8823C29.3625 10.899 29.4057 10.9036 29.4473 10.8953C29.6849 10.8719 29.9234 10.8564 30.1614 10.838C30.6275 10.8016 31.0936 10.7653 31.5595 10.7289C31.6934 10.7186 31.8278 10.7125 31.9619 10.7045L31.9754 10.7379L30.6977 11.7352C30.6292 11.6563 30.5739 11.5925 30.513 11.5224L30.0671 11.8713L30.8899 12.9265L31.3373 12.5767L31.1236 12.2833C31.685 11.8433 32.2369 11.4085 32.799 10.9772L33.0299 11.2563L33.4747 10.9076C33.4441 10.8621 33.4236 10.828 33.3994 10.7968C33.2344 10.5839 33.0668 10.3731 32.9044 10.1581C32.8841 10.127 32.8549 10.1023 32.8206 10.0875C32.7863 10.0727 32.7485 10.0683 32.7119 10.0749C31.973 10.1409 31.2336 10.201 30.4942 10.2622C30.3799 10.2717 30.2651 10.2765 30.1508 10.2834C30.1453 10.2729 30.1398 10.2625 30.1345 10.2521C30.5666 9.91516 30.9964 9.575 31.4367 9.23795L31.614 9.43694L32.0612 9.08832C31.7904 8.74126 31.5258 8.40252 31.2527 8.05249L30.8028 8.4028C30.8771 8.50434 30.9387 8.58881 31.0056 8.67991L29.3298 9.98722L29.1119 9.72252Z" fill="black"/>
<path d="M6.24858 15.4043C6.92888 15.6378 7.59678 15.857 8.262 16.0935L8.16215 16.4166L8.70059 16.5987C8.85163 16.155 8.99801 15.7246 9.14919 15.2812C8.96275 15.2182 8.79141 15.1598 8.61174 15.0987C8.56774 15.212 8.52825 15.3135 8.48552 15.4239L6.47196 14.7385C6.61566 14.2922 6.76247 13.8632 6.91633 13.4283L8.93427 14.1151C8.89887 14.2287 8.86784 14.3283 8.83202 14.4432L9.37257 14.6271C9.52432 14.1789 9.67014 13.7484 9.81906 13.3082L9.28048 13.1249L9.16005 13.4521L7.14296 12.7653C7.17991 12.6457 7.21079 12.5459 7.24591 12.4319L6.70804 12.251C6.33432 13.3503 5.96413 14.4393 5.58984 15.5403L6.12574 15.7227C6.16904 15.6105 6.20683 15.5129 6.24858 15.4043Z" fill="black"/>
<path d="M20.9732 6.95936C21.2217 6.97501 21.4702 6.99617 21.719 6.99885C21.9449 7.00279 22.165 6.92664 22.3402 6.78378C22.5155 6.64092 22.6342 6.44067 22.6758 6.21841C22.7355 5.92494 22.6854 5.66235 22.4475 5.45659C22.4331 5.44136 22.4209 5.42415 22.4111 5.40568C22.4881 5.33545 22.5596 5.25929 22.6249 5.17806C22.7727 4.96272 22.7815 4.71818 22.7252 4.47477C22.6244 4.03872 22.2767 3.753 21.8056 3.71521C21.3345 3.67741 20.863 3.64906 20.3916 3.61776C20.3371 3.61409 20.2824 3.61719 20.22 3.61719C20.1918 3.80264 20.1812 3.99035 20.1883 4.17777L20.5083 4.22135C20.4637 4.93465 20.4215 5.63118 20.3647 6.33391H20.0309C20.0198 6.52119 20.009 6.70072 19.998 6.88631C20.0478 6.8928 20.077 6.89829 20.1065 6.90041C20.3955 6.92044 20.6843 6.94131 20.9732 6.95936ZM21.2165 4.25999C21.4053 4.27183 21.5777 4.27226 21.7472 4.29595C21.9562 4.32528 22.0823 4.59478 22.0012 4.81408C21.9806 4.88826 21.9343 4.95271 21.8706 4.99586C21.807 5.03915 21.73 5.05833 21.6534 5.05015C21.5115 5.04409 21.3699 5.03112 21.2282 5.0204C21.2064 5.01574 21.1848 5.00926 21.1639 5.00108C21.1813 4.75358 21.1983 4.51285 21.2165 4.25999ZM21.1265 5.59649C21.3327 5.60974 21.5139 5.62032 21.6949 5.634C21.725 5.63767 21.7542 5.64683 21.7813 5.66108C21.9277 5.73088 22.0006 5.92254 21.9582 6.12223C21.9472 6.206 21.9057 6.28272 21.8415 6.33772C21.7775 6.39272 21.6953 6.42219 21.6108 6.42022C21.4491 6.41472 21.2879 6.39892 21.1264 6.38637C21.1078 6.38073 21.0901 6.37269 21.0738 6.3624C21.0909 6.1156 21.1081 5.86556 21.1265 5.59649Z" fill="black"/>
<path d="M26.1872 7.66861C26.0734 7.82473 25.9676 7.9752 25.8672 8.13879L27.0089 8.92318L27.3296 8.45427L27.0505 8.2471L27.6892 7.31788C27.7095 7.38529 27.7222 7.41717 27.7283 7.45059C27.8039 7.85505 27.8743 8.2605 27.9559 8.66369C27.9686 8.71235 27.9697 8.76326 27.9592 8.81233C27.9486 8.86141 27.9266 8.90724 27.8951 8.94645C27.8008 9.07069 27.7174 9.20326 27.6214 9.34442L28.5044 9.95069C28.6252 9.77455 28.7385 9.60927 28.8533 9.44201C28.8232 9.41353 28.7901 9.38814 28.7548 9.36656C28.7141 9.34569 28.6798 9.31438 28.6554 9.27588C28.631 9.23738 28.6173 9.19296 28.6159 9.14727C28.5457 8.74196 28.4711 8.33722 28.3996 7.93205C28.3945 7.88735 28.3923 7.84236 28.393 7.79723C28.4659 7.78553 28.5251 7.7734 28.5852 7.76691C28.9084 7.73179 29.2329 7.70274 29.5551 7.66241C29.724 7.64126 29.8895 7.60783 30.0286 7.77227L30.3837 7.25414L29.4758 6.63123C29.3696 6.78396 29.2714 6.91949 29.1803 7.05967C29.1625 7.08985 29.1376 7.11509 29.1075 7.13314C29.0776 7.15119 29.0435 7.16149 29.0085 7.1629C28.6145 7.20535 28.2215 7.25541 27.8279 7.30138C27.7865 7.30237 27.7452 7.3004 27.704 7.29588L28.2521 6.49711L28.5474 6.68172L28.8693 6.21337L27.7214 5.42603L27.401 5.89564L27.6648 6.09378C27.5139 6.37132 26.5395 7.76719 26.4474 7.83742L26.1872 7.66861Z" fill="black"/>
<path d="M8.04366 11.2655L9.73794 12.4435L9.54967 12.734L10.016 13.0583L11.5036 10.916L10.5504 10.254L10.1602 10.8165C10.3233 10.9315 10.4752 11.0387 10.6397 11.1549C10.4706 11.3978 10.3095 11.6288 10.1414 11.8703L9.49692 11.4207L9.86373 10.8774L9.36972 10.5348C9.24068 10.7165 9.11813 10.8884 8.98951 11.0696L8.43825 10.6857C8.61001 10.4371 8.76514 10.2027 8.93677 9.97368C9.07526 10.0662 9.19583 10.1469 9.32318 10.2319L9.71072 9.66935L8.80463 9.0415L7.31836 11.1827L7.8331 11.541L8.04366 11.2655Z" fill="black"/>
<path d="M17.8125 7.24042C18.3789 7.24253 18.8037 7.04905 19.0931 6.70819C19.7274 5.96188 19.6046 4.7877 18.8282 4.17635C18.5287 3.93294 18.1478 3.81293 17.7628 3.84057C17.3779 3.86821 17.018 4.04139 16.7564 4.32514C16.267 4.84016 16.1645 5.68307 16.5195 6.34265C16.8197 6.9004 17.2854 7.20897 17.8125 7.24042ZM17.1648 4.91081C17.2201 4.80885 17.2974 4.72043 17.3909 4.65189C17.4844 4.58335 17.592 4.53639 17.7059 4.51439C17.8199 4.49253 17.9371 4.49606 18.0495 4.52483C18.1619 4.55374 18.2664 4.60719 18.3556 4.68122C18.5584 4.85652 18.6982 5.09372 18.7533 5.35603C18.8085 5.61848 18.7759 5.89165 18.661 6.13393C18.6061 6.24619 18.5253 6.34392 18.4254 6.41908C18.3255 6.49411 18.2091 6.54431 18.0858 6.56575C17.9627 6.58704 17.8362 6.57887 17.7169 6.54178C17.5975 6.50469 17.4886 6.43981 17.3992 6.35238C17.2796 6.23815 17.185 6.10051 17.1212 5.94792C17.0573 5.79547 17.0258 5.63131 17.0284 5.46603C17.0239 5.27212 17.0709 5.08047 17.1648 4.91081Z" fill="black"/>
<path d="M23.8157 7.4053C24.0901 7.6119 24.4273 7.71781 24.7706 7.70498C25.114 7.69229 25.4423 7.56156 25.7005 7.33507C25.7623 7.27937 25.8129 7.21167 25.8764 7.14102L25.2989 6.74981C25.253 6.78817 25.2228 6.81511 25.1908 6.83993C24.7187 7.20815 24.0977 7.00944 23.9248 6.43519C23.8683 6.24931 23.8624 6.05174 23.9076 5.8629C23.9918 5.50343 24.1785 5.21672 24.5198 5.05384C24.8951 4.87474 25.3814 5.01647 25.5265 5.37552C25.5555 5.45731 25.606 5.52966 25.6727 5.58508C25.7394 5.64051 25.8199 5.67689 25.9055 5.69029C25.94 5.69847 25.9727 5.71342 26.0069 5.72371C26.0827 5.74656 26.1585 5.7687 26.2444 5.79394C26.3209 5.56294 26.3921 5.3483 26.4658 5.1252C26.3503 5.08613 26.2511 5.0482 26.1492 5.01901C26.1052 5.00829 26.0639 4.98869 26.0278 4.96133C25.9917 4.93397 25.9617 4.89942 25.9394 4.86007C25.8534 4.70875 25.7262 4.58507 25.5726 4.50328C25.3744 4.39201 25.154 4.32685 24.9272 4.31261C24.7006 4.29822 24.4736 4.33503 24.2632 4.42035C23.5837 4.68562 23.1398 5.39075 23.1716 6.14905C23.1931 6.66562 23.397 7.09335 23.8157 7.4053Z" fill="black"/>
<path d="M12.1785 10.1346C12.8676 9.98916 13.4382 9.30406 13.3476 8.51897C13.342 8.39078 13.3039 8.26611 13.2369 8.15654L12.618 8.44691C12.6274 8.50163 12.6336 8.53646 12.6391 8.57143C12.6631 8.69441 12.6569 8.82147 12.6209 8.94163C12.585 9.06178 12.5204 9.17136 12.4328 9.26091C12.3451 9.3506 12.2371 9.41759 12.1178 9.45623C11.9986 9.49487 11.8717 9.50403 11.7481 9.48288C11.2077 9.40969 10.7514 8.88028 10.757 8.33437C10.7621 7.85178 11.1692 7.46029 11.6505 7.55168C11.6988 7.56338 11.7491 7.56183 11.7965 7.5473C11.8437 7.53278 11.8865 7.5057 11.9196 7.46904C12.0083 7.38541 12.1045 7.3101 12.196 7.22957C12.2252 7.20377 12.25 7.17302 12.2812 7.14002L11.824 6.6123C11.722 6.69875 11.6321 6.77237 11.5455 6.84979C11.4971 6.8945 11.4339 6.9196 11.3681 6.92002C11.1997 6.91763 11.033 6.95542 10.8821 7.03045C10.6093 7.17246 10.3875 7.39584 10.2475 7.66957C9.943 8.29079 10.0121 8.891 10.4166 9.43592C10.8526 10.0237 11.4458 10.2888 12.1785 10.1346Z" fill="black"/>
<path d="M13.5416 6.40033L13.3642 6.01237L13.7423 5.82861C14.0591 6.48015 14.3688 7.1173 14.6824 7.76292L14.3805 7.92524C14.4685 8.10039 14.5419 8.26962 14.6353 8.43223C14.859 8.32293 15.0654 8.22506 15.2698 8.12282C15.4716 8.0217 15.6821 7.9368 15.8786 7.81679L15.6299 7.31333L15.3148 7.45816L14.3719 5.51878L14.8016 5.31514L14.9952 5.69308L15.612 5.39157L15.1823 4.50903L12.498 5.81592L12.9286 6.69832L13.5416 6.40033Z" fill="black"/>
<path d="M22.408 33.2271L22.7412 33.2011V32.702C22.6807 32.702 22.6411 32.7006 22.6014 32.702C22.3882 32.7109 22.175 32.7262 21.9619 32.7277C21.9194 32.7253 21.8773 32.7348 21.8396 32.7548C21.8023 32.7748 21.7709 32.8049 21.7495 32.8415C21.5543 33.1268 21.3532 33.4076 21.1533 33.6894C21.1284 33.7243 21.0983 33.7558 21.0651 33.7951C21.0327 33.7604 21.0111 33.7391 20.9915 33.7162C20.7578 33.4413 20.5232 33.1673 20.2924 32.8899C20.2735 32.8634 20.248 32.8424 20.2184 32.8288C20.1888 32.8154 20.1562 32.8099 20.1238 32.8132C19.9665 32.8222 19.8087 32.8216 19.6515 32.8291C19.5474 32.8342 19.4436 32.8462 19.3412 32.8549C19.3412 32.9563 19.3377 33.0375 19.3423 33.1184C19.3467 33.1969 19.3595 33.2749 19.3687 33.3533H19.6859C19.699 33.6741 19.7115 33.9855 19.7245 34.3025L19.393 34.3306C19.402 34.5027 19.4102 34.6615 19.4191 34.8334L20.5396 34.783V34.2908L20.3081 34.2702C20.2981 34.0744 20.2885 33.8867 20.2788 33.6988L20.3157 33.6847L21.1039 34.5822C21.2315 34.4075 21.3472 34.2482 21.4636 34.0897C21.5787 33.9331 21.6876 33.7712 21.8103 33.6203L21.8443 33.6337C21.8525 33.8233 21.8608 34.013 21.8692 34.2075L21.6546 34.2346C21.6643 34.4014 21.6736 34.5605 21.6836 34.7345L22.7997 34.6836V34.1749H22.4486C22.435 33.8541 22.4218 33.5466 22.408 33.2271Z" fill="black"/>
<path d="M23.7224 32.445C23.699 32.4671 23.6731 32.4865 23.6382 32.5158C23.6154 32.4481 23.6119 32.3755 23.6281 32.3059C23.6442 32.2364 23.6793 32.1728 23.7295 32.1222C23.8419 32.0034 23.9836 31.9163 24.1403 31.8695C24.309 31.8136 24.4796 31.7637 24.649 31.7101C24.715 31.6891 24.7798 31.665 24.8501 31.6407C24.7949 31.4467 24.744 31.2669 24.6862 31.0642C24.5267 31.1084 24.3854 31.1469 24.2448 31.1875C24.2355 31.1899 24.2267 31.194 24.2191 31.1996C24.2115 31.2054 24.205 31.2126 24.2001 31.2207C24.2157 31.3312 24.1208 31.3254 24.0626 31.3472C23.8695 31.4118 23.6879 31.5062 23.5242 31.6269C23.1943 31.8877 23.033 32.227 23.1148 32.644C23.1847 32.9765 23.2731 33.3047 23.3796 33.6274C23.4232 33.7519 23.491 33.8664 23.5792 33.9645C23.9938 34.4435 24.7052 34.3343 25.075 33.9973C25.4228 33.6804 25.5034 33.1989 25.2884 32.739C25.2256 32.5949 25.1286 32.4683 25.0056 32.3704C24.8828 32.2724 24.7377 32.2061 24.5833 32.177C24.4288 32.148 24.2696 32.1573 24.1196 32.204C23.9695 32.2508 23.8333 32.3334 23.7224 32.445ZM24.3758 33.7623C24.0949 33.7695 23.8406 33.5089 23.8389 33.2119C23.8402 33.0762 23.8941 32.9465 23.9891 32.8497C24.084 32.753 24.2128 32.6969 24.3483 32.6931C24.6229 32.6924 24.8372 32.9401 24.8399 33.2614C24.8429 33.3249 24.8332 33.3883 24.8113 33.4481C24.7894 33.5078 24.756 33.5625 24.7127 33.609C24.6696 33.6557 24.6175 33.6932 24.5596 33.7194C24.5016 33.7458 24.4391 33.7603 24.3757 33.7622L24.3758 33.7623Z" fill="black"/>
<path d="M30.7048 30.1443L30.0908 29.4128L30.2974 29.2178L29.9756 28.8364L29.1023 29.5722L29.4254 29.9546L29.6464 29.7855L29.8073 29.9792L29.1397 30.541C29.083 30.4708 29.0339 30.4101 28.9758 30.3381L29.1779 30.1659C29.0657 30.0319 28.9633 29.9098 28.8545 29.78L27.9805 30.5156C28.0926 30.6492 28.1955 30.7719 28.3023 30.8986L28.5368 30.7205L29.1521 31.4537L28.9372 31.654C29.0485 31.7865 29.1491 31.906 29.2583 32.036L30.1324 31.3003C30.0179 31.1645 29.9151 31.0428 29.8091 30.9168C29.7305 30.9776 29.6676 31.0261 29.5944 31.0827L29.3897 30.835L30.0589 30.2728L30.2609 30.5211L30.0592 30.7092L30.3811 31.0917L31.2531 30.356L30.9331 29.9742L30.7048 30.1443Z" fill="black"/>
<path d="M28.1354 32.1336C27.989 31.8496 27.846 31.5726 27.7012 31.2918L27.903 31.166L27.67 30.7227C27.4771 30.8224 27.2999 30.9202 27.1169 31.0056C27.0753 31.0225 27.0389 31.0503 27.012 31.0862C26.9849 31.122 26.9681 31.1646 26.9635 31.2093C26.8872 31.6392 26.8038 32.0678 26.722 32.4966C26.7105 32.5392 26.6968 32.5811 26.6807 32.6223L26.3525 31.9872L26.5522 31.8602C26.4758 31.7125 26.4025 31.5713 26.3235 31.4186C26.0028 31.5852 25.698 31.7434 25.3809 31.908L25.6107 32.3495L25.8398 32.2528L26.2768 33.0984L26.0713 33.2271C26.1458 33.3844 26.2178 33.5262 26.3022 33.6671C26.4947 33.5677 26.6676 33.4701 26.8477 33.3889C26.8939 33.3701 26.9343 33.3391 26.9642 33.2991C26.9942 33.259 27.0125 33.2116 27.0173 33.1618C27.0946 32.7426 27.1792 32.3246 27.2621 31.9063C27.2741 31.8661 27.2885 31.8267 27.3056 31.7885C27.4211 32.0095 27.5287 32.2007 27.6194 32.4027L27.4122 32.532L27.6428 32.974L28.5851 32.4829C28.502 32.3253 28.4294 32.1872 28.355 32.0459L28.1354 32.1336Z" fill="black"/>
<path d="M8.71522 26.8067L9.15479 26.5831C8.80928 25.9026 8.47237 25.2387 8.13278 24.5696C7.98089 24.6368 7.83296 24.7129 7.68982 24.7971C7.73283 24.8907 7.76794 24.9674 7.80955 25.0578C7.64807 25.1309 7.50352 25.2052 7.35263 25.2624C7.09765 25.3592 6.89824 25.293 6.74015 25.0719C6.70842 25.0278 6.67923 24.9819 6.64228 24.9271L6.20312 25.1543C6.25968 25.2644 6.30396 25.3557 6.35275 25.4445C6.43272 25.6056 6.56429 25.7352 6.72661 25.8124C6.88893 25.8897 7.07255 25.9105 7.24798 25.8711C7.48279 25.8254 7.70956 25.7463 7.92166 25.6357C7.96947 25.6123 8.01925 25.593 8.07468 25.5689C8.16 25.7368 8.24306 25.8853 8.31357 26.0509L7.45205 26.4874L7.31765 26.2366C7.06916 26.3321 6.94252 26.4056 6.88146 26.4898L7.41848 27.55C7.57319 27.4853 7.72282 27.4097 7.86666 27.3237L7.71802 27.0033C8.01122 26.8535 8.28762 26.7084 8.57518 26.5721L8.71522 26.8067Z" fill="black"/>
<path d="M15.6798 32.3593C15.6198 32.5119 15.4682 32.5539 15.3479 32.6332C15.3285 32.6382 15.3076 32.6358 15.2898 32.6265C15.2339 32.6055 15.1791 32.5814 15.1136 32.5542C15.2116 32.2975 15.3052 32.0524 15.4041 31.7935L14.5808 31.4727C14.5183 31.6365 14.4613 31.7855 14.4018 31.941C14.4599 31.966 14.5015 31.9833 14.5423 32.0018C14.5867 32.0217 14.6307 32.0428 14.6839 32.0676C14.5658 32.3699 14.4538 32.6567 14.3358 32.9591L14.043 32.8558L13.8611 33.325L14.8771 33.7202L15.0573 33.2561L14.8757 33.1624C14.9082 33.0839 14.9381 33.0111 14.9666 32.9426C15.0273 32.9419 15.0862 32.9626 15.133 33.0012C15.1798 33.0397 15.2116 33.0936 15.2224 33.1533C15.2949 33.3912 15.3814 33.6248 15.4666 33.8587C15.4792 33.9062 15.508 33.9478 15.5481 33.9764C15.6894 34.042 15.8367 34.0935 15.9937 34.1548L16.1761 33.6846C16.105 33.6562 16.0476 33.6371 15.994 33.6102C15.9566 33.5964 15.9245 33.5715 15.9018 33.5388C15.8222 33.3594 15.7506 33.1764 15.6722 32.9847C15.8556 32.879 16.0205 32.7795 16.1902 32.6897C16.2325 32.6776 16.2776 32.6796 16.3188 32.6953C16.3898 32.7141 16.4584 32.7422 16.5359 32.7695C16.5984 32.6075 16.6547 32.4628 16.716 32.3041L15.8374 31.962C15.7805 32.1053 15.7297 32.2325 15.6798 32.3593Z" fill="black"/>
<path d="M35.3093 20.652C35.1772 20.6465 35.0449 20.6506 34.9126 20.6502C34.6907 20.6493 34.6567 20.6238 34.5881 20.409C34.5572 20.3121 34.5262 20.2154 34.4952 20.1186C34.4873 20.0945 34.4788 20.0706 34.47 20.0467C34.4582 20.0099 34.435 19.9779 34.4035 19.9553C34.3721 19.9328 34.3341 19.9211 34.2956 19.9219C34.2567 19.9212 34.2189 19.9335 34.1878 19.9566C34.1566 19.9797 34.1342 20.0125 34.1235 20.0498C34.0762 20.1839 34.0345 20.3202 33.9888 20.4547C33.9341 20.6162 33.891 20.6481 33.7243 20.6498C33.5819 20.6516 33.4395 20.6476 33.2972 20.6516C33.2536 20.6464 33.2096 20.6565 33.1728 20.6804C33.1361 20.7043 33.1089 20.7403 33.0959 20.7823C33.0694 20.8664 33.0945 20.9345 33.1844 21.0049C33.2963 21.0929 33.4107 21.177 33.5237 21.2643C33.6624 21.3718 33.6811 21.4261 33.6316 21.5921C33.5895 21.7333 33.5403 21.8723 33.5001 22.014C33.4823 22.0542 33.4795 22.0995 33.4922 22.1417C33.5051 22.1837 33.5326 22.2198 33.5698 22.2432C33.6038 22.2665 33.6445 22.2773 33.6856 22.2741C33.7266 22.2707 33.7651 22.2535 33.7949 22.2251C33.8807 22.162 33.9679 22.0999 34.0539 22.0367C34.2837 21.8682 34.3089 21.8676 34.5347 22.0295C34.6214 22.092 34.707 22.1558 34.7953 22.2157C34.8891 22.2793 34.9633 22.2817 35.0348 22.229C35.1063 22.1762 35.1219 22.108 35.0907 21.9954C35.0838 21.9709 35.0757 21.9468 35.0678 21.9226C35.0319 21.8115 34.994 21.701 34.9604 21.589C34.9146 21.4357 34.9352 21.3722 35.0631 21.272C35.1789 21.1809 35.2966 21.0924 35.4143 21.0032C35.4403 20.9878 35.4625 20.9665 35.4789 20.9408C35.4951 20.9153 35.5051 20.8863 35.5079 20.8561C35.51 20.8291 35.5065 20.8021 35.4973 20.7767C35.4883 20.7513 35.4738 20.7282 35.455 20.7088C35.4361 20.6895 35.4134 20.6744 35.3883 20.6647C35.3631 20.6548 35.3363 20.6506 35.3093 20.652Z" fill="black"/>
<path d="M6.74719 21.9697C6.85648 22.0438 6.96183 22.1236 7.07014 22.199C7.18564 22.2794 7.25841 22.287 7.33357 22.2274C7.42637 22.1541 7.41269 22.0615 7.38039 21.9644C7.34006 21.8441 7.30241 21.7229 7.26518 21.6015C7.21173 21.4262 7.22907 21.3728 7.37362 21.2616C7.49068 21.172 7.61027 21.0861 7.72436 20.993C7.83365 20.9039 7.84536 20.7837 7.74777 20.708C7.69841 20.6743 7.6403 20.6554 7.58051 20.6534C7.44371 20.6456 7.30621 20.6519 7.16914 20.6503C7.00061 20.6482 6.95915 20.6179 6.90443 20.4558C6.85902 20.3213 6.81728 20.1853 6.77116 20.0511C6.76002 20.0143 6.73746 19.982 6.70686 19.9589C6.67625 19.9356 6.63902 19.9226 6.60052 19.9219C6.56216 19.9212 6.52437 19.9328 6.49292 19.9548C6.46147 19.9768 6.43778 20.0081 6.42509 20.0445C6.41239 20.0776 6.40168 20.1114 6.39039 20.1452C6.35232 20.2609 6.31466 20.3767 6.27631 20.4924C6.26474 20.5399 6.23696 20.5818 6.19747 20.6107C6.15813 20.6397 6.10975 20.6537 6.06096 20.6504C5.9848 20.6499 5.90865 20.6504 5.83236 20.6504V20.6513H5.60389C5.56032 20.6468 5.5166 20.6566 5.47923 20.6792C5.44186 20.7016 5.4128 20.7358 5.3963 20.7761C5.36246 20.8594 5.39179 20.9322 5.48995 21.0103C5.59769 21.0951 5.70854 21.1765 5.81698 21.26C5.96859 21.3759 5.98424 21.4264 5.92586 21.6128C5.88482 21.7437 5.83729 21.8727 5.80387 22.0053C5.78822 22.0627 5.79061 22.1235 5.81092 22.1794C5.85605 22.2824 5.9762 22.3038 6.08225 22.2326C6.20466 22.1507 6.32059 22.0596 6.44131 21.9751C6.48206 21.9356 6.5365 21.9132 6.59319 21.9122C6.64988 21.9112 6.70488 21.9318 6.74719 21.9697Z" fill="black"/>
<path d="M33.5814 26.2299C33.2853 26.0755 32.9987 25.9295 32.7151 25.7596L32.879 25.4669L33.2189 25.6322L33.4834 25.1351L32.7179 24.7249L31.584 26.8398C31.846 26.9804 32.0912 27.1178 32.352 27.2482L32.6156 26.7538L32.2847 26.5666L32.4427 26.2778C32.738 26.4365 33.0251 26.5817 33.3043 26.7455C33.2555 26.8476 33.2148 26.9328 33.1711 27.0239L33.6111 27.2591L34.1953 26.1705L33.7531 25.9353C33.6927 26.0392 33.6398 26.1296 33.5814 26.2299Z" fill="black"/>
<path d="M32.4521 28.1145C32.3734 28.0536 32.3058 28.0017 32.2383 27.9494C32.0815 27.8281 31.9309 27.6978 31.7669 27.5871C31.4801 27.3936 31.2067 27.4118 30.9384 27.6307C30.7515 27.782 30.6072 27.9793 30.5195 28.2031C30.4523 28.3551 30.417 28.5195 30.416 28.6858L30.7893 28.7659C30.8088 28.7054 30.8215 28.6621 30.8361 28.6197C30.8983 28.4193 31.0168 28.241 31.1774 28.1059C31.3227 27.9904 31.4437 28.0045 31.5782 28.1412C31.5047 28.2199 31.4383 28.2895 31.3732 28.3607C31.2313 28.5006 31.1275 28.6744 31.0719 28.8658C31.0405 28.9715 31.0409 29.0842 31.0732 29.1897C31.1055 29.2952 31.1681 29.3888 31.2534 29.4589C31.3341 29.5383 31.4372 29.5911 31.5487 29.6101C31.6603 29.6291 31.7749 29.6136 31.8773 29.5655C31.9865 29.5125 32.0866 29.4424 32.1739 29.3581C32.3187 29.224 32.4063 29.0394 32.4189 28.8424C32.4634 28.8429 32.5074 28.8329 32.5475 28.8132C32.7063 28.6233 32.8582 28.4276 33.0188 28.2254L32.6266 27.9124L32.4521 28.1145ZM32.0189 28.8325C31.9831 28.9047 31.9361 28.9707 31.8799 29.0284C31.8452 29.0695 31.7958 29.0956 31.7424 29.1014C31.6888 29.1072 31.635 29.092 31.5924 29.0591C31.5497 29.0261 31.5215 28.978 31.5133 28.9247C31.5053 28.8714 31.5181 28.8171 31.5492 28.7731C31.5779 28.7257 31.6105 28.6807 31.6467 28.6387C31.7123 28.5555 31.7794 28.4734 31.8466 28.3916C31.8577 28.3836 31.8698 28.3772 31.8828 28.3729C32.114 28.5269 32.1355 28.5925 32.0185 28.8326L32.0189 28.8325Z" fill="black"/>
<path d="M8.87072 28.0589L9.78161 29.2104C9.94082 29.0982 10.0778 28.9573 10.1855 28.7951C10.2729 28.6631 10.3231 28.5099 10.3309 28.3519C10.3398 27.9341 10.1391 27.6273 9.79345 27.425C9.11879 27.03 8.37445 27.5356 8.23131 28.1292C8.20452 28.2375 8.19676 28.3496 8.20832 28.4606C8.26417 28.9381 8.67117 29.3861 9.16137 29.5136L9.32525 29.1384C9.27123 29.1013 9.22329 29.0733 9.18126 29.0381C9.08043 28.9536 8.97748 28.8707 8.88468 28.7776C8.78977 28.6833 8.73181 28.558 8.72152 28.4246C8.70854 28.3558 8.71573 28.2847 8.74225 28.2199C8.76876 28.155 8.81332 28.0991 8.87072 28.0589ZM9.73126 27.964C9.87962 28.1513 9.87539 28.3145 9.70362 28.4915L9.19043 27.8408C9.38702 27.7229 9.57867 27.7711 9.73126 27.964Z" fill="black"/>
<path d="M17.7704 32.4695C17.6316 32.4691 17.4941 32.4966 17.3661 32.5502C17.238 32.6037 17.122 32.6824 17.0246 32.7816C16.9275 32.8807 16.851 32.9982 16.7999 33.1272C16.7487 33.2564 16.7238 33.3943 16.7268 33.5331C16.7268 34.0863 17.1244 34.5664 17.8096 34.5712C18.5108 34.5761 18.8446 34.0014 18.8443 33.5196C18.8485 32.9302 18.3833 32.4751 17.7704 32.4695ZM17.7834 34.0478C17.7171 34.0493 17.6511 34.0373 17.5897 34.0123C17.5282 33.9875 17.4724 33.9504 17.4259 33.9033C17.3792 33.8562 17.3425 33.8001 17.3183 33.7383C17.294 33.6767 17.2826 33.6105 17.2847 33.5444C17.2823 33.2258 17.4971 32.9892 17.7875 32.9907C17.8539 32.9868 17.9204 32.9969 17.9826 33.0206C18.0448 33.0444 18.1012 33.0811 18.1481 33.1285C18.1949 33.1756 18.2311 33.2324 18.2542 33.2948C18.2775 33.3572 18.287 33.4238 18.2825 33.4902C18.2788 33.8637 18.0149 34.0677 17.7834 34.048V34.0478Z" fill="black"/>
<path d="M12.8984 30.5549C12.3646 30.5425 11.8448 30.993 11.836 31.6304C11.8283 32.1841 12.345 32.6702 12.9223 32.6738C13.4831 32.6772 13.9603 32.1908 13.9633 31.6123C13.9661 31.0422 13.4822 30.5686 12.8984 30.5549ZM12.8799 32.1422C12.815 32.1419 12.7509 32.1288 12.6913 32.1034C12.6315 32.0782 12.5775 32.0412 12.5324 31.9947C12.4871 31.9483 12.4517 31.8933 12.4282 31.8329C12.4044 31.7726 12.3931 31.7081 12.3946 31.6434C12.3946 31.3433 12.6385 31.0814 12.919 31.0791C13.0494 31.0788 13.1746 31.1299 13.2679 31.2213C13.3609 31.3125 13.4145 31.4368 13.4169 31.5672C13.4154 31.8677 13.1603 32.1408 12.8799 32.1422Z" fill="black"/>
<path d="M12.2676 30.1759C12.227 30.128 12.1833 30.0829 12.1366 30.041C12.0476 29.9731 11.9812 29.8801 11.9459 29.774C11.8802 29.6077 11.7706 29.4624 11.6288 29.3536C11.3075 29.0827 10.9486 29.0121 10.5644 29.18C10.3757 29.2545 10.213 29.3827 10.0964 29.5487C9.97975 29.7146 9.91431 29.9111 9.90811 30.1139C9.86763 30.7656 10.4955 31.3219 11.1429 31.2211C11.2617 31.2135 11.3748 31.1672 11.4649 31.0894C11.4191 31.0169 11.376 30.9486 11.3322 30.8804C11.2862 30.8086 11.2394 30.7371 11.1981 30.6735C11.1037 30.6904 11.0081 30.6996 10.9122 30.7007C10.8449 30.6962 10.7792 30.678 10.7191 30.6474C10.6591 30.6166 10.6059 30.5739 10.563 30.522C10.52 30.47 10.4881 30.4098 10.4692 30.345C10.4504 30.2803 10.4449 30.2123 10.4532 30.1455C10.4894 29.8507 10.7717 29.6195 11.0503 29.6565C11.1689 29.6753 11.2785 29.7319 11.3624 29.8177C11.4464 29.9036 11.5006 30.0142 11.5168 30.1332C11.5181 30.1823 11.5331 30.2301 11.5604 30.271C11.6668 30.378 11.7837 30.4746 11.9038 30.5815L12.2676 30.1759Z" fill="black"/>
<path d="M35.7085 13.9454C35.6497 13.9313 35.5948 13.9038 35.5483 13.8648C35.457 13.7835 35.3995 13.6709 35.3869 13.5491C35.3745 13.4275 35.4081 13.3055 35.481 13.2072C35.4958 13.1875 35.5092 13.1668 35.5229 13.147L35.3556 12.6716C35.1252 12.8458 34.9682 13.0411 34.9517 13.3203C34.9317 13.6278 35.0314 13.931 35.23 14.1666C35.4137 14.3916 35.6612 14.4697 35.9708 14.4476C35.922 14.3056 35.8757 14.1879 35.8422 14.0669C35.8356 14.0352 35.8189 14.0064 35.7949 13.9846C35.771 13.9627 35.7406 13.949 35.7085 13.9454Z" fill="black"/>
<path d="M22.8645 20.1016C22.6783 19.9979 22.4866 19.9046 22.2903 19.8216C22.1944 19.7785 22.0914 19.7507 21.9818 19.7125C21.988 19.6061 21.9957 19.5053 21.9993 19.4043C22.0065 19.1953 21.9096 19.0962 21.7023 19.0829C21.5756 19.0776 21.4497 19.0615 21.3257 19.0346C20.7619 18.8992 20.2955 18.5865 19.865 18.213C19.7911 18.1488 19.7852 18.097 19.843 17.9976C19.9606 17.7958 20.0721 17.5889 20.2064 17.3987C20.6746 16.7509 21.2167 16.1598 21.8216 15.6374C22.2064 15.2967 22.6051 14.9727 23.0702 14.7425C23.1063 14.7238 23.1392 14.6996 23.1678 14.6708C23.3737 14.4669 23.5814 14.2641 23.7822 14.0554C23.8224 14.0177 23.8549 13.9725 23.8777 13.9222C23.9004 13.872 23.9131 13.8177 23.9147 13.7626C23.9164 13.7075 23.9072 13.6526 23.8876 13.601C23.868 13.5495 23.8384 13.5023 23.8004 13.4622C23.5752 13.2204 23.341 12.9863 23.1001 12.7605C23.0197 12.6836 22.9124 12.6413 22.8013 12.6429C22.69 12.6444 22.584 12.6895 22.5057 12.7687C22.4679 12.8025 22.4329 12.8399 22.397 12.8758C21.164 14.1095 19.9308 15.3434 18.6977 16.5775C18.6699 16.6133 18.635 16.6431 18.5952 16.6648C18.5553 16.6866 18.5113 16.7 18.4661 16.704C18.3374 16.7129 18.2174 16.7718 18.1314 16.8679C17.7682 17.2311 17.4025 17.592 17.0426 17.9584C16.9876 18.0102 16.9438 18.0726 16.9136 18.142C16.8834 18.2113 16.8676 18.286 16.8672 18.3615C16.8668 18.437 16.8817 18.5119 16.9111 18.5816C16.9405 18.6513 16.9837 18.7142 17.0381 18.7665C17.2701 19.009 17.5104 19.2437 17.7493 19.4794C17.8047 19.54 17.8741 19.5861 17.9515 19.6139C18.0288 19.6415 18.1117 19.6499 18.1931 19.6383C18.3408 19.6138 18.408 19.6798 18.4653 19.8029C18.4106 19.827 18.3604 19.8497 18.3096 19.871C18.0721 19.9628 17.8509 20.092 17.6541 20.2535C17.5328 20.3509 17.4355 20.4747 17.3695 20.6157C17.3037 20.7565 17.271 20.9106 17.2738 21.0662C17.2776 22.7039 17.2753 24.3415 17.276 25.9791C17.2748 26.0349 17.28 26.0909 17.2917 26.1455C17.3035 26.1912 17.3276 26.2328 17.3616 26.2657C17.3955 26.2985 17.4378 26.3215 17.4838 26.3321C17.5297 26.3427 17.5778 26.3404 17.6227 26.3256C17.6674 26.3108 17.7074 26.2838 17.738 26.248C17.788 26.1892 17.8128 26.1132 17.807 26.0363C17.8059 25.7872 17.8059 25.538 17.807 25.2888C17.807 25.246 17.8142 25.203 17.8193 25.1483C17.8521 25.16 17.8844 25.1733 17.9159 25.1881C18.2642 25.368 18.6364 25.4973 19.0212 25.5717C19.0609 25.5808 19.1013 25.5858 19.1419 25.5866C19.2034 25.5882 19.2635 25.5679 19.3116 25.5294C19.3595 25.4907 19.3923 25.4364 19.404 25.3761C19.4157 25.3156 19.4057 25.253 19.3755 25.1994C19.3454 25.1456 19.2974 25.1043 19.2397 25.0827C19.183 25.0613 19.1206 25.0559 19.0628 25.0373C18.8067 24.9554 18.5477 24.8806 18.2973 24.7838C18.1769 24.7297 18.0645 24.6594 17.9631 24.5746C17.9098 24.535 17.8674 24.4825 17.8397 24.4222C17.8121 24.3618 17.8001 24.2954 17.8047 24.2291C17.8112 23.9851 17.806 23.7409 17.8073 23.4968C17.8101 23.4571 17.8155 23.4178 17.8235 23.3789C17.9844 23.4577 18.1263 23.5367 18.2755 23.5984C18.9389 23.8736 19.6354 23.9678 20.3483 23.9678C20.3687 23.9683 20.3889 23.9671 20.4091 23.9641C20.4571 23.9566 20.5021 23.9359 20.5389 23.904C20.5756 23.8722 20.6025 23.8306 20.6165 23.784C20.6317 23.7406 20.6343 23.6936 20.6241 23.6486C20.6138 23.6037 20.5913 23.5626 20.5587 23.53C20.5306 23.5006 20.4968 23.4774 20.459 23.4623C20.4213 23.4473 20.3807 23.4406 20.3402 23.4426C20.0865 23.4285 19.8323 23.4171 19.5798 23.3903C19.1947 23.3521 18.8174 23.2567 18.4604 23.1074C18.2854 23.0374 18.1232 22.9386 17.9809 22.8149C17.937 22.7836 17.8999 22.744 17.8714 22.6983C17.8431 22.6526 17.8239 22.6017 17.8152 22.5486C17.804 22.323 17.8118 22.0964 17.8118 21.8463C17.9445 21.9154 18.0527 21.9782 18.1662 22.0298C18.2815 22.0824 18.4003 22.1278 18.5204 22.1696C18.6355 22.2098 18.7524 22.2454 18.8706 22.2752C18.9937 22.3064 19.1187 22.3302 19.2438 22.3522C19.3687 22.3741 19.4946 22.3927 19.6207 22.4068C19.7469 22.4209 19.8737 22.431 20.0005 22.4377C20.1224 22.444 20.2446 22.4454 20.3665 22.4454C20.4937 22.4454 20.6209 22.4439 20.7478 22.4377C20.8747 22.4313 21.0014 22.4209 21.1276 22.4064C21.2538 22.392 21.3793 22.3724 21.5041 22.3498C21.6291 22.3272 21.7539 22.3021 21.8767 22.271C21.9949 22.2412 22.1122 22.2067 22.227 22.166C22.3466 22.124 22.4645 22.0758 22.5799 22.0232C22.692 21.9721 22.8001 21.9122 22.9124 21.8547C22.9189 21.871 22.9238 21.8879 22.9274 21.905C22.9283 22.3729 22.929 22.8407 22.9295 23.3086C22.9299 23.3598 22.9199 23.4106 22.8997 23.4577C22.8798 23.5048 22.8502 23.5474 22.8131 23.5826C22.7375 23.6577 22.6549 23.7254 22.5665 23.7847C22.3675 23.9083 22.1514 24.0018 21.9252 24.0626C21.8278 24.0912 21.7286 24.114 21.6312 24.1427C21.5811 24.1538 21.5356 24.1802 21.501 24.2182C21.4666 24.2563 21.4446 24.3041 21.4383 24.355C21.4305 24.3992 21.4342 24.4446 21.449 24.4869C21.4638 24.5292 21.4893 24.5669 21.523 24.5965C21.5567 24.626 21.5975 24.6464 21.6413 24.6556C21.6852 24.6647 21.7306 24.6625 21.7735 24.6489C22.1324 24.5742 22.4778 24.4445 22.797 24.2641C22.8331 24.2431 22.8724 24.2273 22.9303 24.1992V25.9643C22.9285 26.0151 22.9302 26.066 22.9352 26.1166C22.9437 26.1789 22.9749 26.2362 23.0224 26.2774C23.0701 26.3185 23.1311 26.341 23.194 26.3405C23.2571 26.3401 23.3177 26.3167 23.3647 26.2748C23.4118 26.2329 23.442 26.1753 23.4497 26.1128C23.4546 26.0571 23.4561 26.0011 23.4542 25.9452V22.4512C23.4542 21.9731 23.4508 21.4952 23.4555 21.0171C23.4585 20.8998 23.4376 20.7831 23.3943 20.6741C23.3507 20.565 23.2857 20.466 23.2029 20.3829C23.1029 20.2746 22.9891 20.1801 22.8645 20.1016ZM21.4377 19.6014C21.4409 19.6413 21.4407 19.6813 21.4367 19.7211C21.3625 20.1185 21.1648 20.4826 20.8719 20.7613C20.8426 20.7925 20.8069 20.8168 20.7673 20.8331C20.7276 20.8491 20.685 20.8566 20.6423 20.8549C20.3281 20.8494 20.0136 20.8528 19.6839 20.8528C19.4835 20.281 19.17 19.7552 18.762 19.307L19.4829 18.5872C20.0445 19.0697 20.6677 19.4684 21.4377 19.6014ZM22.842 13.2359C22.9647 13.3603 23.1001 13.4975 23.2354 13.6351C23.2671 13.6674 23.2974 13.7011 23.3355 13.7419C23.3087 13.775 23.2863 13.8072 23.2597 13.8351C23.0278 14.0908 22.7591 14.3105 22.4625 14.4872C22.0595 14.7161 21.7102 15.0244 21.3675 15.3359C20.798 15.8443 20.2817 16.4091 19.8262 17.0217C19.7279 17.1564 19.6365 17.2961 19.5502 17.4218C19.3934 17.2658 19.2401 17.1137 19.1015 16.9759L22.842 13.2359ZM18.1361 19.1203C17.8886 18.8765 17.639 18.6287 17.4073 18.3892C17.7975 17.9994 18.173 17.624 18.5537 17.2434C18.8163 17.4662 19.0607 17.7096 19.2847 17.9714C19.2281 18.0739 18.276 19.0315 18.1361 19.1206V19.1203ZM22.868 21.1533C22.793 21.2488 22.7048 21.3333 22.6061 21.4039C22.3514 21.5735 22.0665 21.6922 21.767 21.754C20.7159 21.9982 19.6715 21.9905 18.6388 21.6537C18.4245 21.5873 18.2237 21.4835 18.0456 21.3471C17.7342 21.1026 17.7299 20.8733 18.0362 20.6279C18.2555 20.4613 18.5055 20.34 18.772 20.2711C18.7906 20.2694 18.8094 20.2701 18.8277 20.2735C18.9435 20.4469 19.037 20.6342 19.106 20.831C19.0566 20.8439 19.0184 20.8514 18.9819 20.8641C18.926 20.883 18.8779 20.9194 18.8447 20.968C18.8114 21.0167 18.7949 21.0748 18.7974 21.1336C18.8035 21.1948 18.8304 21.2522 18.8739 21.2958C18.9174 21.3394 18.9745 21.3664 19.0359 21.3726C19.0814 21.3764 19.1273 21.3776 19.173 21.3763H21.5676C21.6134 21.3779 21.6591 21.3764 21.7047 21.3722C21.7681 21.3645 21.8264 21.3336 21.8687 21.2855C21.9108 21.2375 21.9338 21.1756 21.9334 21.1117C21.9328 21.0478 21.9089 20.9864 21.866 20.939C21.8231 20.8916 21.7642 20.8616 21.7007 20.8548C21.6474 20.8484 21.5935 20.847 21.528 20.8425L21.8589 20.2358C22.1867 20.3331 22.504 20.4492 22.7635 20.6837C22.8045 20.7217 22.8406 20.7645 22.8709 20.8116C22.909 20.8606 22.9296 20.9209 22.929 20.9831C22.9285 21.0452 22.907 21.1054 22.868 21.1536V21.1533Z" fill="black"/>
<path d="M23.7932 19.017C23.6571 19.003 23.52 19.0034 23.3841 19.0185C23.3203 19.0261 23.2617 19.0574 23.2196 19.106C23.1775 19.1545 23.1549 19.2171 23.1563 19.2812C23.1597 19.348 23.1876 19.4111 23.2347 19.4585C23.282 19.5058 23.345 19.534 23.4117 19.5375C23.4722 19.5424 23.5334 19.5383 23.5945 19.5383C23.6502 19.5383 23.7062 19.5412 23.7619 19.5378C23.8284 19.5362 23.892 19.5103 23.9404 19.4646C23.9889 19.419 24.0188 19.357 24.0243 19.2907C24.029 19.224 24.0074 19.158 23.9642 19.1069C23.9211 19.0557 23.8597 19.0235 23.7932 19.017Z" fill="black"/>
<path d="M21.8268 17.0605C21.7599 17.0547 21.6935 17.0756 21.6422 17.1188C21.5908 17.1619 21.5587 17.2237 21.5529 17.2904C21.5378 17.4213 21.5371 17.5534 21.5507 17.6843C21.5529 17.7187 21.5621 17.7522 21.5776 17.783C21.5931 17.8139 21.6147 17.8412 21.6409 17.8634C21.6673 17.8857 21.6979 17.9023 21.7309 17.9125C21.7637 17.9226 21.7984 17.926 21.8327 17.9223C21.8991 17.9165 21.9609 17.8861 22.0057 17.8367C22.0506 17.7874 22.0751 17.7229 22.0747 17.6563C22.0778 17.6006 22.0751 17.5448 22.0751 17.489C22.0751 17.4332 22.0781 17.3773 22.0746 17.3217C22.0732 17.2551 22.0471 17.1914 22.0012 17.1432C21.9554 17.0949 21.8932 17.0653 21.8268 17.0605Z" fill="black"/>
<path d="M23.1742 17.6279C23.1422 17.6305 23.1113 17.6404 23.0837 17.6566C22.9548 17.7692 22.8339 17.8907 22.7218 18.0201C22.6497 18.1095 22.6871 18.2434 22.7717 18.3237C22.8122 18.3671 22.8673 18.3939 22.9266 18.399C22.9856 18.4041 23.0445 18.387 23.0917 18.3512C23.2045 18.257 23.3093 18.1535 23.4046 18.0416C23.4362 18.0041 23.4548 17.9574 23.4577 17.9085C23.4606 17.8596 23.4477 17.8111 23.4209 17.77C23.3972 17.7256 23.3615 17.6886 23.3178 17.6635C23.2743 17.6384 23.2245 17.626 23.1742 17.6279Z" fill="black"/>
<path d="M29.8124 19.3567C29.7934 19.3566 29.7745 19.3605 29.7572 19.3684C29.7398 19.3763 29.7244 19.3877 29.712 19.4021C29.6995 19.4165 29.6903 19.4334 29.685 19.4516C29.6796 19.4699 29.6783 19.4891 29.6811 19.5079C29.681 19.5256 29.6845 19.5431 29.6914 19.5593C29.6984 19.5757 29.7086 19.5904 29.7213 19.6025C29.7343 19.6146 29.7494 19.6241 29.7662 19.63C29.7828 19.6361 29.8005 19.6386 29.8181 19.6375C29.8359 19.6363 29.8531 19.6317 29.869 19.6238C29.8848 19.616 29.8989 19.6052 29.9106 19.5918C29.9222 19.5784 29.931 19.5629 29.9367 19.5461C29.9422 19.5293 29.9443 19.5117 29.943 19.4941C29.9437 19.4764 29.9408 19.4588 29.9346 19.4422C29.9284 19.4257 29.9189 19.4106 29.9068 19.3977C29.8945 19.3849 29.8799 19.3747 29.8638 19.3677C29.8476 19.3605 29.8301 19.3568 29.8124 19.3567Z" fill="black"/>
<path d="M11.1887 18.2251C11.2241 18.2251 11.2581 18.2114 11.2835 18.1867C11.3088 18.1621 11.3237 18.1285 11.3248 18.0931C11.3211 18.0607 11.3066 18.0303 11.2837 18.0072C11.2608 17.9839 11.2306 17.9693 11.1981 17.9653C11.1807 17.9653 11.1633 17.9687 11.1471 17.9753C11.1309 17.982 11.1161 17.9918 11.1037 18.0043C11.0912 18.0165 11.0814 18.0313 11.0746 18.0474C11.0678 18.0636 11.0645 18.081 11.0645 18.0986C11.0657 18.1313 11.0791 18.1625 11.1021 18.1859C11.1251 18.2093 11.156 18.2233 11.1887 18.2251Z" fill="black"/>
<path d="M14.2303 26.3806C14.195 26.3805 14.161 26.3942 14.1355 26.4186C14.11 26.4431 14.0952 26.4765 14.0938 26.5118C14.0976 26.5441 14.1121 26.5742 14.1349 26.5975C14.1578 26.6208 14.1877 26.6359 14.2198 26.6404C14.2551 26.64 14.2889 26.6259 14.3138 26.6008C14.3387 26.5758 14.353 26.5419 14.3531 26.5067C14.3528 26.4738 14.3397 26.4425 14.3169 26.4191C14.294 26.3956 14.263 26.3819 14.2303 26.3806Z" fill="black"/>
<path d="M11.3266 20.9507C11.3256 20.9163 11.3108 20.8836 11.2857 20.8599C11.2606 20.8362 11.227 20.8235 11.1925 20.8245C11.1581 20.8256 11.1254 20.8403 11.1017 20.8654C11.0781 20.8905 11.0653 20.9241 11.0663 20.9586C11.0668 20.9757 11.0706 20.9925 11.0777 21.0081C11.0847 21.0236 11.0948 21.0377 11.1072 21.0495C11.1196 21.0612 11.1344 21.0703 11.1503 21.0764C11.1663 21.0825 11.1833 21.0853 11.2004 21.0849C11.2175 21.0843 11.2342 21.0805 11.2499 21.0734C11.2655 21.0664 11.2795 21.0564 11.2912 21.044C11.3029 21.0315 11.3121 21.0169 11.3181 21.0009C11.3242 20.9849 11.3272 20.9679 11.3266 20.9507Z" fill="black"/>
<path d="M27.1942 25.8735C27.159 25.8761 27.1261 25.8917 27.1017 25.9173C27.0773 25.9428 27.0633 25.9765 27.0625 26.0119C27.0653 26.0446 27.0803 26.0752 27.1045 26.0975C27.1288 26.1196 27.1604 26.132 27.1934 26.1322C27.2262 26.1327 27.258 26.1205 27.2821 26.0982C27.3062 26.0758 27.3207 26.0449 27.3226 26.0122C27.3238 25.9768 27.311 25.9422 27.287 25.9164C27.2629 25.8903 27.2296 25.8749 27.1942 25.8735Z" fill="black"/>
<path d="M27.6752 25.3414C27.6424 25.3404 27.6106 25.3521 27.586 25.3737C27.5615 25.3955 27.5461 25.4258 27.5432 25.4584C27.5413 25.4937 27.5534 25.5282 27.5767 25.5547C27.6001 25.5813 27.6328 25.5976 27.6681 25.6003C27.7007 25.5987 27.7318 25.586 27.7562 25.5643C27.7808 25.5425 27.797 25.513 27.8024 25.4808C27.8033 25.4456 27.7907 25.4115 27.767 25.3854C27.7431 25.3594 27.7103 25.3436 27.6752 25.3414Z" fill="black"/>
<path d="M15.3484 11.7877C15.3811 11.7856 15.412 11.7719 15.4354 11.7489C15.4588 11.7261 15.4734 11.6955 15.4762 11.6629C15.4753 11.6277 15.4611 11.5939 15.4363 11.5687C15.4116 11.5436 15.3783 11.5287 15.3431 11.5271C15.3105 11.5295 15.2797 11.5436 15.2566 11.5667C15.2335 11.5899 15.2194 11.6205 15.2168 11.6532C15.2164 11.6707 15.2194 11.6882 15.2259 11.7045C15.2322 11.7209 15.2418 11.7358 15.2541 11.7484C15.2665 11.7609 15.2811 11.7709 15.2972 11.7776C15.3134 11.7843 15.3309 11.7879 15.3484 11.7877Z" fill="black"/>
<path d="M16.6132 27.9366C16.5805 27.9391 16.5501 27.954 16.5282 27.9786C16.5063 28.003 16.4949 28.035 16.4962 28.0678C16.4982 28.1006 16.512 28.1313 16.535 28.1547C16.5581 28.178 16.5887 28.1921 16.6214 28.1943C16.6565 28.1927 16.6898 28.1777 16.7146 28.1527C16.7395 28.1278 16.754 28.0945 16.7555 28.0594C16.7526 28.0244 16.7359 27.992 16.7094 27.969C16.6829 27.946 16.6482 27.9343 16.6132 27.9366Z" fill="black"/>
<path d="M24.9193 27.6086C24.8863 27.6101 24.855 27.624 24.832 27.6477C24.8089 27.6713 24.7957 27.7028 24.795 27.7358C24.7942 27.7688 24.8062 27.801 24.8284 27.8255C24.8504 27.8501 24.881 27.8655 24.9138 27.8683C24.9492 27.8697 24.9838 27.8573 25.0102 27.8336C25.0365 27.8099 25.0527 27.777 25.0551 27.7416C25.0536 27.7064 25.0386 27.6731 25.0134 27.6484C24.9882 27.6237 24.9546 27.6095 24.9193 27.6086Z" fill="black"/>
<path d="M18.6805 28.58C18.6477 28.5782 18.6154 28.5889 18.5901 28.6099C18.5649 28.6309 18.5485 28.6607 18.5442 28.6933C18.5408 28.7192 18.5454 28.7456 18.5573 28.7689C18.569 28.7923 18.5876 28.8116 18.6106 28.8242C18.6334 28.8367 18.6597 28.8422 18.6858 28.8397C18.7118 28.8373 18.7365 28.827 18.7567 28.8102C18.7767 28.7935 18.7914 28.7711 18.7986 28.7459C18.8058 28.7208 18.8052 28.694 18.797 28.6692C18.7888 28.6443 18.7733 28.6225 18.7526 28.6065C18.7317 28.5906 18.7066 28.5814 18.6805 28.58Z" fill="black"/>
<path d="M17.267 10.833C17.2995 10.829 17.3295 10.8145 17.3529 10.7918C17.3762 10.7691 17.3916 10.7392 17.3962 10.707C17.3959 10.6717 17.382 10.6378 17.357 10.6127C17.3322 10.5876 17.2985 10.5732 17.2632 10.5725C17.2456 10.5727 17.2284 10.5766 17.2125 10.5838C17.1964 10.591 17.1821 10.6013 17.1703 10.6143C17.1584 10.6272 17.1494 10.6425 17.1436 10.659C17.138 10.6756 17.1356 10.6931 17.1369 10.7106C17.1407 10.743 17.1558 10.7732 17.1796 10.7956C17.2034 10.818 17.2345 10.8313 17.267 10.833Z" fill="black"/>
<path d="M20.7807 10.2836C20.8159 10.2834 20.8496 10.269 20.8744 10.244C20.8994 10.2189 20.9132 10.1851 20.9134 10.1498C20.9128 10.1323 20.9088 10.1151 20.9015 10.0992C20.8942 10.0832 20.8837 10.069 20.8706 10.0573C20.8577 10.0456 20.8426 10.0366 20.8259 10.0309C20.8094 10.0251 20.7919 10.0227 20.7744 10.024C20.742 10.0281 20.7121 10.0436 20.6901 10.0677C20.6681 10.0918 20.6553 10.123 20.6543 10.1557C20.6578 10.1882 20.6723 10.2185 20.6952 10.2416C20.7182 10.2649 20.7484 10.2797 20.7807 10.2836Z" fill="black"/>
<path d="M12.0674 23.5474C12.0317 23.5467 11.9973 23.5601 11.9712 23.5843C11.9452 23.6086 11.9296 23.642 11.9277 23.6776C11.9298 23.7106 11.9435 23.7417 11.9664 23.7656C11.9892 23.7894 12.0198 23.8043 12.0527 23.8079C12.0867 23.8091 12.12 23.7969 12.1452 23.7739C12.1704 23.7509 12.1857 23.7189 12.1875 23.6847C12.1895 23.6508 12.1779 23.6172 12.1555 23.5915C12.1331 23.5659 12.1013 23.5501 12.0674 23.5474Z" fill="black"/>
<path d="M20.8145 28.7383C20.7818 28.7403 20.7506 28.7535 20.7267 28.7759C20.7027 28.7985 20.6875 28.8285 20.6834 28.8613C20.6828 28.8965 20.6962 28.9306 20.7205 28.9562C20.7447 28.9818 20.7781 28.9968 20.8134 28.998C20.8463 28.998 20.8778 28.9856 20.902 28.9634C20.9261 28.9411 20.9409 28.9105 20.9434 28.8778C20.944 28.8424 20.931 28.8081 20.9069 28.7821C20.8829 28.7562 20.8498 28.7404 20.8145 28.7383Z" fill="black"/>
<path d="M22.217 10.4419C22.2497 10.4388 22.2803 10.4241 22.3032 10.4006C22.326 10.3769 22.3398 10.346 22.3419 10.3132C22.3407 10.2776 22.3257 10.2439 22.3001 10.2194C22.2744 10.1947 22.2403 10.181 22.2047 10.1812C22.1719 10.1837 22.1411 10.1982 22.1186 10.2221C22.0959 10.2459 22.0829 10.2773 22.082 10.3102C22.082 10.3278 22.0854 10.3453 22.0922 10.3615C22.099 10.3777 22.109 10.3924 22.1217 10.4047C22.1342 10.4169 22.1492 10.4265 22.1655 10.433C22.1819 10.4394 22.1995 10.4425 22.217 10.4419Z" fill="black"/>
<path d="M29.1401 22.8801C29.1048 22.881 29.0713 22.8955 29.0466 22.9207C29.0219 22.946 29.008 22.9798 29.0078 23.0151C29.0081 23.0479 29.0211 23.0794 29.0441 23.1028C29.0669 23.1264 29.0981 23.14 29.1309 23.1409C29.1662 23.1412 29.2003 23.1275 29.2256 23.1028C29.2509 23.0781 29.2655 23.0446 29.2663 23.0093C29.2625 22.9767 29.248 22.9465 29.2253 22.9231C29.2024 22.8997 29.1725 22.8846 29.1401 22.8801Z" fill="black"/>
<path d="M29.6523 18.7681C29.6532 18.8009 29.6662 18.8324 29.689 18.8562C29.7119 18.8799 29.7427 18.8944 29.7756 18.8965C29.811 18.8969 29.8451 18.8836 29.8709 18.8593C29.8967 18.835 29.9123 18.8018 29.9141 18.7664C29.9118 18.7336 29.8983 18.7026 29.8756 18.6788C29.8529 18.6551 29.8224 18.64 29.7897 18.6365C29.7543 18.6365 29.7202 18.6502 29.6947 18.6747C29.6691 18.6992 29.6539 18.7327 29.6523 18.7681Z" fill="black"/>
<path d="M25.5604 27.243C25.5262 27.2373 25.4913 27.2454 25.4631 27.2654C25.4349 27.2856 25.4157 27.316 25.41 27.3502C25.4043 27.3844 25.4123 27.4194 25.4325 27.4476C25.4525 27.4758 25.4829 27.4948 25.5172 27.5006C25.5513 27.5063 25.5863 27.4982 25.6145 27.4782C25.6427 27.458 25.6619 27.4276 25.6675 27.3934C25.6732 27.3592 25.6651 27.3243 25.6451 27.296C25.625 27.2678 25.5946 27.2488 25.5604 27.243Z" fill="black"/>
<path d="M29.7847 20.0972C29.7519 20.0994 29.721 20.113 29.6974 20.1354C29.6735 20.1578 29.6584 20.188 29.6545 20.2204C29.6531 20.2464 29.6596 20.2722 29.673 20.2945C29.6864 20.3167 29.7062 20.3345 29.7298 20.3454C29.7533 20.3564 29.7797 20.3599 29.8055 20.3557C29.831 20.3514 29.8549 20.3397 29.8738 20.3218C29.8927 20.3039 29.9058 20.2808 29.9113 20.2554C29.9169 20.23 29.9148 20.2035 29.9052 20.1792C29.8956 20.1551 29.879 20.1344 29.8576 20.1197C29.836 20.1051 29.8106 20.0973 29.7847 20.0972Z" fill="black"/>
<path d="M28.1082 24.7686C28.0735 24.7684 28.0403 24.7818 28.0156 24.8062C27.9909 24.8305 27.9769 24.8636 27.9767 24.8983C27.9765 24.9329 27.9899 24.9663 28.0143 24.9908C28.0386 25.0155 28.0717 25.0295 28.1064 25.0297C28.1391 25.0286 28.1704 25.0156 28.1945 24.9934C28.2185 24.9709 28.2336 24.9406 28.237 24.908C28.2376 24.8726 28.2244 24.8385 28.2005 24.8126C28.1765 24.7866 28.1435 24.7708 28.1082 24.7686Z" fill="black"/>
<path d="M15.9833 27.6133C15.95 27.6151 15.9185 27.6292 15.895 27.6526C15.8714 27.6762 15.8573 27.7076 15.8555 27.7409C15.8548 27.7742 15.8669 27.8066 15.8895 27.8312C15.9122 27.8557 15.9432 27.8705 15.9766 27.8725C15.9944 27.8729 16.012 27.8699 16.0287 27.8635C16.0453 27.8571 16.0605 27.8474 16.0732 27.835C16.0861 27.8227 16.0964 27.8079 16.1034 27.7915C16.1105 27.7752 16.1143 27.7577 16.1146 27.7398C16.1105 27.7069 16.0952 27.6763 16.0713 27.6533C16.0474 27.6302 16.0163 27.6161 15.9833 27.6133Z" fill="black"/>
<path d="M23.619 28.1953C23.5863 28.1973 23.5552 28.2105 23.5314 28.233C23.5076 28.2553 23.4923 28.2854 23.4882 28.3179C23.4873 28.3517 23.4995 28.3846 23.5222 28.4095C23.5449 28.4346 23.5765 28.4497 23.6102 28.452C23.6439 28.4541 23.6772 28.4431 23.703 28.4212C23.7287 28.3994 23.7451 28.3684 23.7484 28.3348C23.7484 28.2995 23.735 28.2654 23.7111 28.2396C23.6871 28.2138 23.6541 28.198 23.619 28.1953Z" fill="black"/>
<path d="M22.2399 28.5774C22.2224 28.5773 22.205 28.5805 22.1889 28.5871C22.1727 28.5939 22.158 28.6038 22.1459 28.6163C22.1336 28.6289 22.124 28.6438 22.1178 28.66C22.1116 28.6764 22.1088 28.6939 22.1095 28.7114C22.1117 28.7439 22.1257 28.7747 22.149 28.7978C22.1721 28.8208 22.2027 28.8348 22.2353 28.837C22.2705 28.835 22.3037 28.82 22.3284 28.7947C22.3529 28.7695 22.367 28.7359 22.368 28.7007C22.3653 28.6681 22.3508 28.6375 22.3272 28.6149C22.3037 28.5922 22.2725 28.5788 22.2399 28.5774Z" fill="black"/>
<path d="M18.6478 10.447C18.6807 10.4464 18.7121 10.4337 18.7358 10.411C18.7596 10.3884 18.7739 10.3577 18.776 10.3248C18.7761 10.2893 18.7626 10.2552 18.7381 10.2294C18.7137 10.2037 18.6802 10.1885 18.6448 10.1868C18.6121 10.1896 18.5814 10.2035 18.5578 10.2264C18.5343 10.2494 18.5193 10.2796 18.5155 10.3123C18.5152 10.3298 18.5185 10.3473 18.525 10.3635C18.5316 10.3798 18.5412 10.3946 18.5536 10.4072C18.5659 10.4197 18.5805 10.4296 18.5966 10.4365C18.6128 10.4433 18.6302 10.4468 18.6478 10.447Z" fill="black"/>
<path d="M24.2575 11.0843C24.2928 11.0832 24.3262 11.0684 24.3509 11.0431C24.3756 11.0177 24.3894 10.9839 24.3897 10.9485C24.3892 10.9313 24.3854 10.9141 24.3784 10.8983C24.3712 10.8824 24.361 10.8681 24.3483 10.8563C24.3358 10.8444 24.3207 10.8353 24.3045 10.8292C24.2883 10.8231 24.2709 10.8204 24.2536 10.8212C24.2362 10.822 24.2192 10.8262 24.2035 10.8336C24.1877 10.841 24.1737 10.8516 24.1622 10.8644C24.1506 10.8774 24.1417 10.8925 24.1361 10.9089C24.1303 10.9254 24.1281 10.9427 24.1292 10.9601C24.132 10.9928 24.1465 11.0234 24.1701 11.0462C24.1936 11.0689 24.2247 11.0826 24.2575 11.0843Z" fill="black"/>
<path d="M15.9466 11.4193C15.9641 11.4207 15.9817 11.4186 15.9985 11.4133C16.0153 11.4078 16.0306 11.3992 16.044 11.3876C16.0574 11.3762 16.0683 11.3622 16.0762 11.3466C16.0841 11.3308 16.0887 11.3137 16.0899 11.2961C16.0907 11.279 16.0882 11.262 16.0822 11.2459C16.0765 11.2299 16.0674 11.2151 16.056 11.2026C16.0444 11.1899 16.0306 11.1797 16.0151 11.1725C15.9997 11.1652 15.983 11.1611 15.9659 11.1603C15.9488 11.1596 15.9318 11.1621 15.9157 11.168C15.8998 11.1738 15.8848 11.1827 15.8723 11.1943C15.8597 11.2057 15.8494 11.2196 15.8422 11.2352C15.835 11.2505 15.8309 11.2673 15.8301 11.2844C15.8297 11.3172 15.8414 11.349 15.8628 11.3739C15.8842 11.3987 15.914 11.415 15.9466 11.4193Z" fill="black"/>
<path d="M14.7615 12.204C14.7942 12.2013 14.8248 12.1875 14.8485 12.1649C14.8721 12.1424 14.8872 12.1123 14.8914 12.0797C14.8915 12.0445 14.8778 12.0106 14.8532 11.9854C14.8285 11.96 14.7949 11.9456 14.7597 11.9451C14.7269 11.9449 14.6954 11.9575 14.6717 11.98C14.648 12.0027 14.6341 12.0336 14.6329 12.0664C14.6323 12.0838 14.6353 12.1013 14.6413 12.1177C14.6474 12.134 14.6569 12.149 14.6687 12.1618C14.6807 12.1747 14.6951 12.185 14.711 12.1921C14.7269 12.1993 14.7442 12.2034 14.7615 12.204Z" fill="black"/>
<path d="M12.3908 14.868C12.4249 14.8677 12.4575 14.854 12.4817 14.8299C12.5058 14.8058 12.5197 14.7732 12.5201 14.7391C12.5205 14.7048 12.5075 14.672 12.484 14.6471C12.4604 14.6226 12.428 14.6081 12.3939 14.6069C12.3593 14.6065 12.3259 14.6199 12.3011 14.644C12.2764 14.6681 12.2621 14.7011 12.2617 14.7358C12.2614 14.7705 12.2747 14.8038 12.2988 14.8286C12.3231 14.8535 12.3561 14.8676 12.3908 14.868Z" fill="black"/>
<path d="M12.0456 15.4996C12.0808 15.4988 12.1144 15.4845 12.1396 15.4597C12.1649 15.4351 12.1797 15.4017 12.1814 15.3665C12.1802 15.3325 12.1657 15.3002 12.1409 15.2768C12.1162 15.2534 12.0832 15.2405 12.0492 15.2412C12.0151 15.2418 11.9827 15.2559 11.9588 15.2803C11.935 15.3046 11.9217 15.3373 11.9219 15.3714C11.9233 15.4041 11.9367 15.4353 11.9594 15.4588C11.9822 15.4825 12.0128 15.4969 12.0456 15.4996Z" fill="black"/>
<path d="M11.7591 16.1525C11.7917 16.1516 11.8229 16.1382 11.846 16.1152C11.8691 16.0922 11.8828 16.0613 11.8839 16.0286C11.8843 15.9934 11.8709 15.9594 11.8464 15.9339C11.822 15.9085 11.7884 15.8937 11.7532 15.8928C11.7208 15.8966 11.6906 15.9112 11.6673 15.934C11.644 15.957 11.6291 15.9872 11.625 16.0195C11.6253 16.0549 11.6395 16.0887 11.6646 16.1135C11.6897 16.1385 11.7237 16.1525 11.7591 16.1525Z" fill="black"/>
<path d="M11.3128 17.5214C11.3303 17.523 11.3479 17.521 11.3645 17.5155C11.3813 17.51 11.3967 17.5013 11.41 17.4897C11.4231 17.4781 11.4339 17.464 11.4415 17.4482C11.4493 17.4323 11.4537 17.4152 11.4545 17.3976C11.4549 17.3801 11.452 17.3626 11.4456 17.3463C11.4393 17.3298 11.4298 17.3148 11.4177 17.3021C11.4054 17.2894 11.3909 17.2793 11.3748 17.2722C11.3588 17.2653 11.3414 17.2615 11.3238 17.2612C11.2911 17.2635 11.2602 17.2774 11.2366 17.3004C11.2131 17.3233 11.1984 17.3539 11.1953 17.3866C11.1955 17.4195 11.2074 17.4511 11.229 17.4759C11.2506 17.5006 11.2804 17.5168 11.3128 17.5214Z" fill="black"/>
<path d="M29.5664 18.0522C29.5686 18.0874 29.5838 18.1204 29.609 18.1448C29.6343 18.1693 29.6677 18.1835 29.7028 18.1848C29.7379 18.1823 29.7706 18.1658 29.7938 18.1393C29.8169 18.1125 29.8286 18.0779 29.8262 18.0427C29.8231 18.0101 29.8076 17.9799 29.7829 17.9583C29.7582 17.9369 29.7262 17.9255 29.6935 17.9269C29.6611 17.9294 29.6303 17.9434 29.6071 17.9664C29.5838 17.9892 29.5695 18.0197 29.5664 18.0522Z" fill="black"/>
<path d="M29.4335 17.3501C29.4336 17.3678 29.4371 17.3854 29.4442 17.4017C29.4511 17.4181 29.4614 17.4328 29.4741 17.445C29.4869 17.4573 29.5021 17.4669 29.5186 17.4732C29.5353 17.4794 29.553 17.4824 29.5707 17.4817C29.6037 17.477 29.6339 17.4604 29.6556 17.4353C29.6773 17.4101 29.6891 17.3779 29.689 17.3445C29.6867 17.3113 29.6718 17.2802 29.6473 17.2578C29.6226 17.2353 29.5903 17.2232 29.557 17.2239C29.5405 17.2236 29.524 17.2267 29.5088 17.2329C29.4935 17.2391 29.4796 17.2486 29.468 17.2603C29.4564 17.2721 29.4474 17.2862 29.4415 17.3016C29.4354 17.3171 29.4329 17.3335 29.4335 17.3501Z" fill="black"/>
<path d="M28.5037 24.167C28.4704 24.1666 28.4381 24.1787 28.4133 24.201C28.3884 24.2231 28.3728 24.254 28.3697 24.2872C28.3684 24.3045 28.3705 24.3218 28.3762 24.3382C28.3815 24.3547 28.3904 24.3699 28.4018 24.3828C28.4134 24.3959 28.4274 24.4065 28.443 24.4138C28.4587 24.4213 28.4756 24.4256 28.4929 24.4263C28.5103 24.4272 28.5276 24.4244 28.5438 24.4185C28.5602 24.4124 28.575 24.4031 28.5876 24.3912C28.6003 24.3794 28.6103 24.365 28.6173 24.3492C28.6242 24.3333 28.628 24.3162 28.6283 24.2989C28.6268 24.2656 28.6132 24.2341 28.5904 24.2099C28.5675 24.1858 28.5368 24.1705 28.5037 24.167Z" fill="black"/>
<path d="M16.6051 11.0985C16.6295 11.0969 16.6529 11.0886 16.6727 11.0741C16.6924 11.0597 16.7076 11.0398 16.7164 11.017C16.725 10.9941 16.7271 10.9693 16.722 10.9453C16.7169 10.9215 16.7051 10.8995 16.6879 10.8821C16.6707 10.8648 16.6488 10.8527 16.625 10.8474C16.6012 10.8422 16.5762 10.8439 16.5533 10.8524C16.5304 10.8608 16.5103 10.8758 16.4958 10.8954C16.4811 10.915 16.4724 10.9384 16.4707 10.9628C16.4707 10.9804 16.4741 10.9981 16.4807 11.0146C16.4875 11.0309 16.4972 11.0459 16.5098 11.0586C16.5223 11.0711 16.5371 11.0811 16.5535 11.088C16.5698 11.0949 16.5875 11.0983 16.6051 11.0985Z" fill="black"/>
<path d="M28.4927 14.8346C28.5258 14.8319 28.5569 14.8166 28.5792 14.7918C28.6016 14.7671 28.6136 14.7347 28.6127 14.7014C28.6119 14.668 28.5985 14.6363 28.5748 14.6126C28.5514 14.5889 28.5196 14.5752 28.4864 14.5742C28.4693 14.5745 28.4524 14.5783 28.4367 14.5852C28.4211 14.5921 28.4071 14.6021 28.3953 14.6146C28.3834 14.627 28.3742 14.6415 28.368 14.6574C28.3618 14.6734 28.3589 14.6904 28.3594 14.7075C28.3597 14.7247 28.3635 14.7413 28.3704 14.7571C28.3773 14.7726 28.3874 14.7869 28.3998 14.7986C28.412 14.8104 28.4267 14.8197 28.4426 14.8258C28.4586 14.8319 28.4756 14.8348 28.4927 14.8346Z" fill="black"/>
<path d="M12.7836 14.2627C12.817 14.2619 12.8487 14.2482 12.8726 14.2248C12.8963 14.2014 12.9102 14.1698 12.9115 14.1363C12.9108 14.1186 12.9066 14.1012 12.8992 14.085C12.8918 14.0689 12.8812 14.0544 12.8682 14.0423C12.8551 14.0303 12.8399 14.0208 12.8231 14.0148C12.8064 14.0086 12.7888 14.0057 12.771 14.0065C12.7378 14.0096 12.7069 14.0252 12.6849 14.0503C12.6629 14.0753 12.6512 14.1079 12.6524 14.1413C12.6544 14.1746 12.6692 14.2057 12.6936 14.2283C12.718 14.2509 12.7503 14.2633 12.7836 14.2627Z" fill="black"/>
<path d="M13.6885 13.1581C13.7213 13.1583 13.7532 13.1465 13.7777 13.1246C13.8023 13.1028 13.8178 13.0726 13.8212 13.0399C13.8229 13.0046 13.8109 12.9701 13.7876 12.9434C13.7642 12.9169 13.7315 12.9004 13.6964 12.8977C13.6621 12.8972 13.6292 12.9103 13.6046 12.9338C13.5799 12.9575 13.5655 12.9898 13.5645 13.0239C13.5635 13.0581 13.5759 13.0912 13.5991 13.1165C13.6222 13.1414 13.6543 13.1564 13.6885 13.1581Z" fill="black"/>
<path d="M13.2375 25.3474C13.2199 25.3473 13.2024 25.3508 13.1861 25.3577C13.1698 25.3646 13.155 25.3746 13.1428 25.3873C13.1304 25.3999 13.1208 25.415 13.1143 25.4315C13.1079 25.448 13.105 25.4656 13.1055 25.4832C13.1069 25.5162 13.121 25.5475 13.1449 25.5707C13.1686 25.5936 13.2004 25.6066 13.2334 25.6069C13.2666 25.6049 13.2978 25.5908 13.3212 25.5673C13.3444 25.5437 13.3584 25.5124 13.3602 25.4793C13.3591 25.4461 13.3461 25.4145 13.3237 25.3903C13.3011 25.366 13.2705 25.3508 13.2375 25.3474Z" fill="black"/>
<path d="M26.1001 12.1792C26.1174 12.18 26.1347 12.1774 26.151 12.1714C26.1672 12.1655 26.1822 12.1564 26.1949 12.1447C26.2076 12.1329 26.2177 12.1187 26.2249 12.1029C26.2321 12.0871 26.2359 12.07 26.2365 12.0527C26.2369 12.0354 26.2338 12.0182 26.2274 12.0021C26.2212 11.986 26.2118 11.9713 26.1997 11.9589C26.1877 11.9464 26.1732 11.9365 26.1572 11.9297C26.1413 11.9231 26.1242 11.9196 26.1069 11.9194C26.0736 11.9204 26.0419 11.9341 26.0184 11.9577C25.9949 11.9812 25.9814 12.0129 25.9805 12.0461C25.9797 12.0795 25.9915 12.1118 26.0138 12.1365C26.0361 12.1613 26.067 12.1765 26.1001 12.1792Z" fill="black"/>
<path d="M14.7865 26.8375C14.7687 26.8367 14.751 26.8395 14.7343 26.8457C14.7175 26.8519 14.7023 26.8615 14.6895 26.8738C14.6765 26.8861 14.6662 26.9007 14.6592 26.9171C14.6522 26.9333 14.6486 26.9511 14.6484 26.9688C14.6514 27.002 14.6659 27.033 14.6896 27.0563C14.7133 27.0797 14.7445 27.0938 14.7776 27.0962C14.8109 27.0948 14.8425 27.0811 14.8662 27.0578C14.8899 27.0344 14.904 27.0031 14.906 26.9698C14.9074 26.9365 14.8957 26.904 14.8732 26.8793C14.8509 26.8546 14.8198 26.8395 14.7865 26.8375Z" fill="black"/>
<path d="M24.9123 11.3988C24.9453 11.3958 24.9759 11.3806 24.9982 11.3561C25.0205 11.3317 25.0329 11.2997 25.0328 11.2665C25.0307 11.2332 25.016 11.2021 24.9915 11.1794C24.9671 11.1567 24.9349 11.1443 24.9015 11.1445C24.8681 11.1451 24.8362 11.1584 24.8124 11.1816C24.7885 11.205 24.7747 11.2366 24.7734 11.2699C24.7737 11.2877 24.7777 11.305 24.785 11.3212C24.7921 11.3373 24.8025 11.3518 24.8155 11.364C24.8284 11.376 24.8437 11.3853 24.8603 11.3912C24.8769 11.3973 24.8947 11.3998 24.9123 11.3988Z" fill="black"/>
<path d="M17.9815 28.4206C17.9483 28.4188 17.9157 28.4296 17.8902 28.4509C17.8647 28.4721 17.8482 28.5021 17.8438 28.5351C17.8427 28.5709 17.8555 28.6058 17.8799 28.6321C17.9042 28.6584 17.9379 28.674 17.9737 28.6756C18.0068 28.6739 18.0382 28.6604 18.0621 28.6374C18.0861 28.6145 18.101 28.5838 18.1043 28.5508C18.1042 28.5175 18.0913 28.4855 18.0686 28.4614C18.0458 28.4373 18.0146 28.4226 17.9815 28.4206Z" fill="black"/>
<path d="M11.0809 19.6559C11.1148 19.6561 11.1475 19.6431 11.1719 19.6197C11.1964 19.5961 11.2108 19.5641 11.2121 19.5301C11.2134 19.4963 11.2014 19.4633 11.1787 19.438C11.156 19.4128 11.1244 19.3974 11.0907 19.395C11.0578 19.3947 11.0261 19.4064 11.0015 19.4282C10.9769 19.4496 10.9612 19.4796 10.9572 19.5122C10.9554 19.5475 10.9671 19.582 10.9901 19.609C11.0132 19.6358 11.0457 19.6525 11.0809 19.6559Z" fill="black"/>
<path d="M22.916 10.6001C22.949 10.5973 22.9801 10.5824 23.0031 10.5582C23.0259 10.5341 23.0392 10.5025 23.0403 10.4694C23.037 10.4364 23.0221 10.4055 22.9981 10.3825C22.9741 10.3594 22.9428 10.3457 22.9097 10.3438C22.8919 10.3439 22.8744 10.3477 22.8582 10.355C22.8419 10.3622 22.8273 10.3728 22.8153 10.3858C22.8034 10.3989 22.7942 10.4144 22.7884 10.4312C22.7826 10.448 22.7802 10.4657 22.7816 10.4835C22.7842 10.5166 22.7998 10.5475 22.8249 10.5694C22.85 10.5911 22.8828 10.6021 22.916 10.6001Z" fill="black"/>
<path d="M19.3628 10.3383C19.3961 10.3357 19.4271 10.3203 19.4493 10.2952C19.4714 10.2702 19.4831 10.2378 19.4817 10.2044C19.4806 10.1709 19.4663 10.1395 19.4421 10.1165C19.4178 10.0935 19.3855 10.0811 19.3522 10.0818C19.3189 10.0835 19.2875 10.097 19.2638 10.1202C19.2398 10.1432 19.2253 10.1742 19.2226 10.2073C19.2245 10.243 19.2401 10.2767 19.2662 10.3013C19.2924 10.3256 19.327 10.339 19.3628 10.3383Z" fill="black"/>
<path d="M20.071 10.2849C20.1036 10.2817 20.1341 10.2676 20.1573 10.2448C20.1807 10.222 20.1954 10.1916 20.1991 10.1592C20.1992 10.1238 20.1854 10.0897 20.1604 10.0646C20.1356 10.0393 20.1018 10.0251 20.0664 10.0247C20.0336 10.0251 20.0023 10.0382 19.9789 10.0612C19.9557 10.0843 19.9423 10.1155 19.9416 10.1482C19.9407 10.1658 19.9434 10.1833 19.9496 10.1998C19.9557 10.2163 19.9651 10.2314 19.9772 10.2441C19.9894 10.2569 20.0039 10.2671 20.02 10.274C20.036 10.281 20.0535 10.2847 20.071 10.2849Z" fill="black"/>
<path d="M29.3752 16.79C29.4084 16.7876 29.4394 16.7725 29.4618 16.748C29.4842 16.7234 29.4965 16.6913 29.4959 16.658C29.4954 16.6247 29.4821 16.593 29.459 16.5691C29.4359 16.5453 29.4044 16.5312 29.3711 16.5298C29.3534 16.5303 29.336 16.5346 29.3198 16.5421C29.3037 16.5494 29.2893 16.56 29.2773 16.5731C29.2652 16.5862 29.256 16.6014 29.25 16.6181C29.2439 16.6348 29.2414 16.6526 29.2422 16.6702C29.2452 16.7034 29.2606 16.734 29.2852 16.7563C29.3098 16.7786 29.3419 16.7905 29.3752 16.79Z" fill="black"/>
<path d="M29.3752 22.2063C29.3423 22.2073 29.311 22.2208 29.2878 22.2441C29.2645 22.2672 29.2509 22.2984 29.2498 22.3312C29.2488 22.364 29.2598 22.3958 29.281 22.4209C29.3021 22.4459 29.3319 22.4621 29.3643 22.4663C29.3997 22.4687 29.4346 22.457 29.4612 22.4338C29.488 22.4105 29.5044 22.3778 29.5069 22.3424C29.5069 22.3071 29.4932 22.2731 29.4686 22.2478C29.444 22.2224 29.4104 22.2076 29.3752 22.2063Z" fill="black"/>
<path d="M29.1139 16.1158C29.1316 16.1167 29.1493 16.114 29.1658 16.1078C29.1824 16.1016 29.1975 16.0921 29.2103 16.0799C29.2232 16.0676 29.2333 16.0528 29.2401 16.0366C29.2471 16.0202 29.2505 16.0027 29.2504 15.9849C29.2508 15.9515 29.2378 15.9192 29.2146 15.8953C29.1913 15.8711 29.1594 15.8572 29.126 15.8565C29.0926 15.8558 29.0601 15.8683 29.0359 15.8913C29.0115 15.9143 28.9972 15.946 28.9961 15.9794C28.9955 16.0127 29.0073 16.0449 29.029 16.0701C29.0507 16.0952 29.0809 16.1114 29.1139 16.1158Z" fill="black"/>
<path d="M26.669 12.6354C26.7019 12.631 26.7319 12.6146 26.7536 12.5895C26.7751 12.5644 26.7868 12.5321 26.7861 12.4991C26.7854 12.4659 26.7714 12.4341 26.7476 12.4111C26.7236 12.388 26.6914 12.3753 26.6582 12.3757C26.625 12.377 26.5937 12.3907 26.5705 12.4142C26.5473 12.4378 26.5339 12.4694 26.5332 12.5025C26.5329 12.5203 26.5363 12.5379 26.5431 12.5544C26.5499 12.5708 26.5599 12.5856 26.5726 12.598C26.5854 12.6106 26.6003 12.6203 26.617 12.6266C26.6336 12.633 26.6513 12.6359 26.669 12.6354Z" fill="black"/>
<path d="M28.091 14.2309C28.1242 14.2318 28.1564 14.2195 28.1806 14.1968C28.2047 14.1741 28.2191 14.1428 28.2202 14.1096C28.2227 14.0761 28.2117 14.0431 28.1899 14.0175C28.168 13.9922 28.1368 13.9765 28.1034 13.974C28.07 13.9716 28.0369 13.9824 28.0115 14.0043C27.9859 14.0263 27.9703 14.0573 27.9678 14.0907C27.9654 14.1084 27.9666 14.1263 27.9717 14.1432C27.9768 14.1603 27.9854 14.1759 27.9971 14.1892C28.0088 14.2026 28.0233 14.2131 28.0395 14.2203C28.0558 14.2275 28.0732 14.2312 28.091 14.2309Z" fill="black"/>
<path d="M13.2123 13.6918C13.2374 13.692 13.2619 13.6846 13.283 13.6708C13.304 13.657 13.3203 13.6373 13.3301 13.6141C13.3398 13.591 13.3425 13.5655 13.3378 13.5409C13.333 13.5163 13.3212 13.4936 13.3035 13.4756C13.2859 13.4577 13.2633 13.4455 13.2388 13.4404C13.2143 13.4353 13.1887 13.4376 13.1655 13.4469C13.1422 13.4563 13.1222 13.4724 13.1079 13.4931C13.0938 13.5139 13.0862 13.5383 13.0859 13.5635C13.0875 13.5966 13.1012 13.6281 13.1246 13.6518C13.1478 13.6755 13.1792 13.6897 13.2123 13.6918Z" fill="black"/>
<path d="M27.1746 13.1289C27.2079 13.1299 27.2404 13.1178 27.2646 13.0951C27.289 13.0723 27.3033 13.0407 27.3044 13.0074C27.3054 12.9741 27.2941 12.9417 27.2725 12.9163C27.2511 12.8909 27.2209 12.8744 27.1879 12.87C27.1701 12.8692 27.1524 12.872 27.1357 12.8782C27.1191 12.8844 27.104 12.8941 27.091 12.9064C27.0782 12.9187 27.0682 12.9335 27.0611 12.9498C27.0542 12.9662 27.0507 12.9838 27.0508 13.0016C27.0504 13.0181 27.0535 13.0346 27.0594 13.05C27.0655 13.0653 27.0745 13.0793 27.0861 13.0911C27.0976 13.103 27.1115 13.1124 27.1265 13.1189C27.1418 13.1254 27.1581 13.1288 27.1746 13.1289Z" fill="black"/>
<path d="M27.6588 13.6621C27.692 13.6621 27.7238 13.649 27.7474 13.6256C27.7709 13.6021 27.7842 13.5704 27.7843 13.5371C27.7852 13.5208 27.7826 13.5041 27.7769 13.4888C27.7712 13.4733 27.7625 13.4591 27.751 13.447C27.7398 13.4352 27.7261 13.4256 27.711 13.419C27.6958 13.4125 27.6794 13.4089 27.6629 13.4089C27.6457 13.4074 27.6282 13.4095 27.6117 13.415C27.5952 13.4206 27.5801 13.4295 27.5671 13.4412C27.5543 13.4528 27.5439 13.467 27.5367 13.4828C27.5295 13.4988 27.5255 13.5158 27.5254 13.5333C27.5251 13.5507 27.5284 13.568 27.535 13.5841C27.5416 13.6 27.5516 13.6146 27.564 13.6267C27.5766 13.6387 27.5915 13.6481 27.6078 13.6542C27.6241 13.6602 27.6415 13.6631 27.6588 13.6621Z" fill="black"/>
<path d="M28.8423 23.54C28.809 23.5398 28.7768 23.5522 28.7524 23.5747C28.728 23.5972 28.7131 23.6283 28.7107 23.6615C28.7107 23.6792 28.7142 23.6966 28.7211 23.7129C28.728 23.7293 28.7382 23.744 28.751 23.7562C28.7637 23.7686 28.7788 23.7782 28.7952 23.7846C28.8118 23.7909 28.8293 23.7939 28.8471 23.7933C28.8803 23.7922 28.9118 23.7781 28.9348 23.754C28.9578 23.7299 28.9702 23.6977 28.9696 23.6644C28.9683 23.6313 28.9545 23.5998 28.9308 23.5767C28.9071 23.5536 28.8754 23.5405 28.8423 23.54Z" fill="black"/>
<path d="M23.6006 10.8138C23.6172 10.8131 23.6336 10.8092 23.6486 10.8021C23.6637 10.7951 23.6773 10.7852 23.6886 10.7729C23.6998 10.7605 23.7084 10.7463 23.7142 10.7306C23.7199 10.7149 23.7224 10.6983 23.7217 10.6817C23.721 10.665 23.717 10.6487 23.71 10.6337C23.7029 10.6186 23.6929 10.6049 23.6807 10.5938C23.6684 10.5825 23.654 10.5738 23.6383 10.5681C23.6228 10.5624 23.6062 10.56 23.5896 10.5607C23.5564 10.5619 23.5251 10.5756 23.5013 10.5987C23.4776 10.6217 23.4632 10.6529 23.4609 10.6859C23.4611 10.7037 23.4649 10.7212 23.4721 10.7375C23.4793 10.7537 23.4898 10.7683 23.503 10.7802C23.5161 10.7922 23.5314 10.8014 23.5482 10.8072C23.5652 10.813 23.5829 10.8152 23.6006 10.8138Z" fill="black"/>
<path d="M17.9431 10.6146C17.9606 10.6146 17.9779 10.6112 17.9941 10.6044C18.0104 10.5976 18.025 10.5879 18.0374 10.5755C18.0498 10.5631 18.0597 10.5483 18.0663 10.5322C18.073 10.5158 18.0765 10.4986 18.0765 10.481C18.0757 10.4483 18.0624 10.4171 18.0393 10.3941C18.016 10.371 17.985 10.3577 17.9523 10.357C17.9346 10.3563 17.9173 10.3592 17.9008 10.3654C17.8844 10.3717 17.8695 10.3812 17.8568 10.3933C17.8441 10.4054 17.8341 10.4199 17.8272 10.4362C17.8203 10.4522 17.8167 10.4696 17.8166 10.4871C17.8203 10.5195 17.8346 10.5498 17.8576 10.5728C17.8806 10.5961 17.9107 10.6107 17.9431 10.6146Z" fill="black"/>
<path d="M29.5668 21.5171C29.5419 21.5178 29.5176 21.526 29.4972 21.5404C29.4767 21.5549 29.4609 21.575 29.4519 21.5983C29.443 21.6217 29.441 21.6473 29.4464 21.6718C29.4519 21.6962 29.4645 21.7185 29.4827 21.7358C29.5007 21.7532 29.5235 21.7647 29.5482 21.7691C29.5729 21.7735 29.5983 21.7705 29.6211 21.7604C29.6443 21.7503 29.6637 21.7338 29.6773 21.7127C29.6908 21.6917 29.6977 21.667 29.6974 21.642C29.6948 21.6089 29.6799 21.5777 29.6558 21.5547C29.6319 21.5318 29.6001 21.5184 29.5668 21.5171Z" fill="black"/>
<path d="M22.9267 28.4157C22.8938 28.418 22.8631 28.4331 22.8411 28.4578C22.8189 28.4824 22.8075 28.5147 22.8089 28.5477C22.8089 28.5641 22.8122 28.5803 22.8187 28.5954C22.8251 28.6105 22.8345 28.6242 22.8463 28.6356C22.8581 28.6469 22.8721 28.6558 22.8873 28.6615C22.9027 28.6675 22.9191 28.6701 22.9354 28.6694C22.9686 28.6696 23.0003 28.6567 23.024 28.6336C23.0477 28.6105 23.0614 28.5792 23.0622 28.546C23.0625 28.5284 23.0591 28.5109 23.0523 28.4947C23.0457 28.4783 23.0356 28.4637 23.0229 28.4514C23.0102 28.4391 22.9949 28.4297 22.9784 28.4236C22.9619 28.4174 22.9443 28.4147 22.9267 28.4157Z" fill="black"/>
<path d="M13.6935 25.886C13.6766 25.8873 13.6601 25.8918 13.6449 25.8997C13.6298 25.9075 13.6164 25.9182 13.6055 25.9312C13.5945 25.9443 13.5865 25.9594 13.5816 25.9757C13.5766 25.9919 13.5751 26.009 13.5769 26.0259C13.5787 26.0429 13.584 26.0592 13.5923 26.074C13.6005 26.0888 13.6117 26.1019 13.6251 26.1124C13.6385 26.1227 13.6539 26.1304 13.6704 26.1347C13.6869 26.139 13.704 26.14 13.7209 26.1375C13.7375 26.1358 13.7536 26.1309 13.7681 26.123C13.7828 26.1151 13.7958 26.1042 13.8062 26.0912C13.8168 26.0783 13.8246 26.0634 13.8292 26.0474C13.834 26.0314 13.8356 26.0147 13.8337 25.998C13.8319 25.9815 13.8268 25.9654 13.8188 25.9508C13.8107 25.9362 13.7999 25.9233 13.7869 25.9128C13.7738 25.9025 13.759 25.8948 13.7429 25.8901C13.7268 25.8856 13.71 25.8842 13.6935 25.886Z" fill="black"/>
<path d="M19.3774 28.6887C19.3442 28.6907 19.3129 28.7048 19.2895 28.7284C19.266 28.7519 19.252 28.7832 19.25 28.8164C19.2496 28.8423 19.2569 28.8676 19.2712 28.8893C19.2851 28.911 19.3054 28.9279 19.3293 28.9379C19.3531 28.9479 19.3793 28.9506 19.4046 28.9457C19.43 28.9408 19.4534 28.9283 19.4716 28.91C19.4898 28.8917 19.5022 28.8684 19.5071 28.843C19.5119 28.8176 19.5092 28.7914 19.4991 28.7676C19.4889 28.7439 19.472 28.7236 19.4503 28.7096C19.4286 28.6955 19.4032 28.6883 19.3774 28.6887Z" fill="black"/>
<path d="M26.682 26.3769C26.6486 26.3753 26.616 26.3866 26.5908 26.4084C26.5657 26.4303 26.5499 26.4612 26.5469 26.4945C26.5465 26.5121 26.5497 26.5297 26.5564 26.5464C26.5628 26.5627 26.5727 26.5778 26.5851 26.5904C26.5977 26.6029 26.6126 26.6129 26.629 26.6197C26.6453 26.6265 26.663 26.6299 26.6807 26.6297C26.714 26.6293 26.7458 26.6157 26.7692 26.5919C26.7926 26.5682 26.8057 26.5362 26.8056 26.5029C26.8061 26.4864 26.8033 26.4699 26.7974 26.4546C26.7913 26.4393 26.7823 26.4252 26.7707 26.4135C26.7592 26.4017 26.7453 26.3924 26.7301 26.386C26.7149 26.3798 26.6984 26.3767 26.682 26.3769Z" fill="black"/>
<path d="M20.1014 28.7393C20.0836 28.7393 20.0661 28.7429 20.0496 28.7501C20.0334 28.7572 20.0187 28.7675 20.0064 28.7804C19.9943 28.7934 19.9849 28.8086 19.9787 28.8254C19.9726 28.8421 19.9699 28.8598 19.9709 28.8776C19.9729 28.9106 19.9877 28.9416 20.0121 28.9639C20.0365 28.9862 20.0686 28.998 20.1018 28.9971C20.1348 28.9961 20.1662 28.9822 20.1892 28.9584C20.2122 28.9347 20.225 28.903 20.225 28.8698C20.224 28.8367 20.2109 28.805 20.1882 28.781C20.1654 28.7569 20.1345 28.7419 20.1014 28.7393Z" fill="black"/>
<path d="M26.1195 26.8326C26.0862 26.8343 26.0549 26.8485 26.0321 26.8726C26.0091 26.8966 25.9962 26.9286 25.9961 26.9619C25.9982 26.9951 26.0125 27.0261 26.0364 27.0492C26.0601 27.0723 26.0917 27.0857 26.1249 27.0867C26.1581 27.0864 26.19 27.0736 26.2141 27.0506C26.2382 27.0278 26.2528 26.9966 26.2547 26.9635C26.2554 26.9457 26.2522 26.9279 26.2456 26.9116C26.2389 26.8951 26.2289 26.8803 26.2162 26.8679C26.2035 26.8556 26.1883 26.846 26.1717 26.8399C26.1549 26.8339 26.1373 26.8313 26.1195 26.8326Z" fill="black"/>
<path d="M15.3768 27.2465C15.3591 27.2456 15.3413 27.2483 15.3247 27.2545C15.308 27.2607 15.2928 27.2703 15.28 27.2826C15.2671 27.295 15.257 27.3098 15.2502 27.3262C15.2433 27.3425 15.2401 27.3603 15.2402 27.3781C15.2395 27.3944 15.242 27.4111 15.2478 27.4264C15.2536 27.442 15.2625 27.4561 15.274 27.468C15.2855 27.4799 15.2991 27.4893 15.3144 27.4958C15.3296 27.5023 15.346 27.5057 15.3625 27.5056C15.379 27.5061 15.3953 27.5036 15.4108 27.4978C15.4263 27.492 15.4406 27.4833 15.4526 27.4719C15.4647 27.4607 15.4743 27.447 15.4812 27.4321C15.488 27.417 15.4916 27.4008 15.4921 27.3841C15.4935 27.351 15.4823 27.3184 15.461 27.293C15.4397 27.2676 15.4097 27.251 15.3768 27.2465Z" fill="black"/>
<path d="M14.2144 12.6611C14.2475 12.6582 14.2784 12.643 14.3008 12.6185C14.3233 12.5941 14.3358 12.5621 14.3358 12.5288C14.3357 12.511 14.3317 12.4935 14.3245 12.4773C14.3172 12.4611 14.3065 12.4467 14.2934 12.4349C14.2801 12.423 14.2646 12.414 14.2477 12.4085C14.2309 12.4028 14.213 12.401 14.1953 12.4027C14.1788 12.4041 14.1628 12.4088 14.1482 12.4165C14.1337 12.4243 14.1207 12.4347 14.1103 12.4476C14.0997 12.4602 14.0918 12.4751 14.0872 12.4908C14.0824 12.5066 14.081 12.5233 14.0828 12.5396C14.0853 12.5728 14.1003 12.6037 14.1247 12.6262C14.1492 12.6487 14.1812 12.6612 14.2144 12.6611Z" fill="black"/>
<path d="M11.1009 18.9352C11.1183 18.9369 11.1359 18.935 11.1525 18.9295C11.1692 18.924 11.1845 18.9153 11.1976 18.9036C11.2108 18.8919 11.2212 18.8776 11.2284 18.8617C11.2357 18.8456 11.2395 18.8284 11.2398 18.8109C11.2409 18.7781 11.2292 18.7461 11.207 18.7218C11.1847 18.6977 11.1538 18.6832 11.1209 18.6816C11.0857 18.6796 11.0513 18.6916 11.0249 18.715C10.9985 18.7384 10.9826 18.7713 10.9805 18.8066C10.9808 18.8391 10.9932 18.8704 11.0156 18.8943C11.0379 18.9181 11.0683 18.9328 11.1009 18.9352Z" fill="black"/>
<path d="M25.5254 11.7635C25.5419 11.7631 25.5581 11.7593 25.5732 11.7524C25.5883 11.7455 25.6017 11.7358 25.613 11.7236C25.6242 11.7114 25.6328 11.6973 25.6385 11.6816C25.6443 11.6661 25.6467 11.6496 25.6458 11.6331C25.645 11.5998 25.631 11.5681 25.607 11.545C25.5829 11.5218 25.5508 11.5091 25.5173 11.5096C25.5 11.5091 25.4828 11.5122 25.4667 11.5186C25.4506 11.5251 25.4361 11.5348 25.4238 11.5469C25.4116 11.5593 25.402 11.5739 25.3956 11.5901C25.3893 11.6062 25.3863 11.6235 25.3868 11.6409C25.3873 11.6581 25.3914 11.6751 25.3987 11.6908C25.4062 11.7066 25.4167 11.7205 25.4296 11.7321C25.4426 11.7435 25.4577 11.7523 25.4742 11.7578C25.4907 11.7631 25.508 11.7651 25.5254 11.7635Z" fill="black"/>
<path d="M29.7009 20.8091C29.6677 20.8105 29.6363 20.8245 29.6129 20.848C29.5894 20.8716 29.5756 20.903 29.5744 20.9361C29.5728 20.9694 29.5845 21.0019 29.6069 21.0265C29.6292 21.0511 29.6605 21.0659 29.6937 21.0676C29.7114 21.069 29.7293 21.0666 29.746 21.0605C29.7628 21.0545 29.778 21.0449 29.7907 21.0325C29.8035 21.0201 29.8134 21.005 29.8199 20.9885C29.8262 20.9718 29.8292 20.9541 29.8281 20.9363C29.8262 20.9031 29.8121 20.872 29.7886 20.8484C29.7652 20.825 29.7339 20.8111 29.7009 20.8091Z" fill="black"/>
<path d="M24.2891 27.9312C24.2714 27.93 24.2536 27.9325 24.2368 27.9386C24.2202 27.9448 24.2049 27.9544 24.1922 27.9668C24.1795 27.9792 24.1695 27.9943 24.163 28.0108C24.1566 28.0273 24.1536 28.045 24.1544 28.0628C24.1558 28.0961 24.1702 28.1277 24.1944 28.1505C24.2186 28.1735 24.2509 28.1861 24.2842 28.1855C24.3179 28.1862 24.3506 28.1734 24.3749 28.15C24.3991 28.1267 24.4131 28.0945 24.4138 28.0608C24.4145 28.0271 24.4017 27.9945 24.3784 27.9701C24.355 27.9459 24.3228 27.9319 24.2891 27.9312Z" fill="black"/>
<path d="M11.4603 21.6531C11.4592 21.6199 11.4451 21.5886 11.4213 21.5656C11.3973 21.5428 11.3654 21.5302 11.3323 21.5305C11.2991 21.5309 11.2675 21.5442 11.2441 21.5676C11.2207 21.591 11.2075 21.6228 11.207 21.6559C11.2072 21.6735 11.2108 21.691 11.2179 21.7074C11.2248 21.7237 11.235 21.7384 11.2476 21.7508C11.2603 21.7631 11.2754 21.7728 11.2918 21.7793C11.3083 21.7856 11.3259 21.7889 11.3437 21.7885C11.3768 21.7855 11.4077 21.7697 11.4294 21.7445C11.4511 21.7191 11.4623 21.6864 11.4603 21.6531Z" fill="black"/>
<path d="M11.241 20.2391C11.2401 20.2058 11.2264 20.1741 11.2027 20.1508C11.1789 20.1275 11.147 20.1143 11.1136 20.1143C11.096 20.1147 11.0785 20.1185 11.0624 20.1257C11.0462 20.1329 11.0315 20.1432 11.0194 20.1559C11.0073 20.1687 10.9976 20.1838 10.9913 20.2003C10.985 20.2169 10.982 20.2344 10.9825 20.2522C10.9864 20.2852 11.0028 20.3155 11.0283 20.3369C11.0538 20.3582 11.0865 20.3692 11.1198 20.3674C11.1362 20.3673 11.1525 20.3639 11.1676 20.3572C11.1829 20.3506 11.1964 20.3412 11.2078 20.329C11.2191 20.3172 11.2278 20.3029 11.2335 20.2874C11.2393 20.2721 11.2418 20.2556 11.241 20.2391Z" fill="black"/>
<path d="M11.5314 22.2225C11.5135 22.2212 11.4957 22.2236 11.4789 22.2297C11.4623 22.2358 11.447 22.2455 11.4342 22.2579C11.4215 22.2703 11.4116 22.2853 11.405 22.3019C11.3985 22.3184 11.3957 22.3363 11.3965 22.3541C11.3968 22.3706 11.4002 22.3869 11.4068 22.402C11.4133 22.4173 11.4229 22.4309 11.4349 22.4424C11.4467 22.4538 11.4608 22.4627 11.4764 22.4686C11.4919 22.4744 11.5082 22.4772 11.5249 22.4765C11.5582 22.4771 11.5905 22.4644 11.6146 22.4414C11.6385 22.4182 11.6525 22.3865 11.6533 22.3532C11.6541 22.3198 11.6418 22.2875 11.6189 22.2631C11.5961 22.2386 11.5646 22.224 11.5314 22.2225Z" fill="black"/>
<path d="M12.7866 24.7792C12.7536 24.7817 12.7229 24.7969 12.7008 24.8216C12.6786 24.8463 12.6669 24.8786 12.668 24.9117C12.6682 24.9282 12.6716 24.9444 12.6782 24.9595C12.6847 24.9746 12.6941 24.9883 12.7058 24.9997C12.7177 25.0111 12.7316 25.02 12.7469 25.0261C12.7622 25.0322 12.7786 25.035 12.795 25.0346C12.8115 25.0351 12.8278 25.0323 12.8432 25.0264C12.8586 25.0205 12.8725 25.0114 12.8842 24.9999C12.8961 24.9884 12.9054 24.9746 12.9116 24.9594C12.9179 24.9442 12.921 24.9278 12.9209 24.9114C12.9215 24.8937 12.9182 24.8762 12.9116 24.8598C12.905 24.8435 12.8951 24.8285 12.8824 24.8161C12.8698 24.8037 12.8549 24.7941 12.8384 24.7878C12.822 24.7814 12.8043 24.7784 12.7866 24.7792Z" fill="black"/>
<path d="M11.7721 22.8984C11.7557 22.897 11.7392 22.8988 11.7236 22.904C11.7081 22.9091 11.6935 22.9174 11.6813 22.9283C11.669 22.9392 11.6591 22.9526 11.6521 22.9675C11.645 22.9823 11.6412 22.9984 11.6408 23.0149C11.6388 23.0401 11.6443 23.0654 11.6567 23.0874C11.6691 23.1094 11.6879 23.1272 11.7106 23.1386C11.7332 23.1499 11.7587 23.1541 11.7837 23.1508C11.8089 23.1475 11.8323 23.1367 11.8512 23.12C11.8701 23.1032 11.8836 23.081 11.8899 23.0566C11.8962 23.0321 11.8949 23.0063 11.8865 22.9825C11.878 22.9586 11.8625 22.9379 11.8422 22.9229C11.8217 22.908 11.7973 22.8995 11.7721 22.8984Z" fill="black"/>
<path d="M28.8402 15.4603C28.8734 15.4573 28.9041 15.4421 28.9265 15.4177C28.9491 15.3931 28.9618 15.3613 28.9622 15.3281C28.9598 15.2949 28.9449 15.2638 28.9202 15.2413C28.8957 15.2188 28.8634 15.2066 28.8301 15.2071C28.8134 15.2064 28.7971 15.2093 28.7816 15.2152C28.7662 15.2211 28.7521 15.2301 28.7403 15.2417C28.7284 15.2533 28.719 15.2671 28.7126 15.2823C28.7063 15.2975 28.703 15.3139 28.7032 15.3305C28.7027 15.3483 28.7061 15.3659 28.7129 15.3824C28.7198 15.3988 28.73 15.4136 28.7429 15.4259C28.7558 15.4381 28.7711 15.4474 28.7879 15.4534C28.8047 15.4593 28.8226 15.4617 28.8402 15.4603Z" fill="black"/>
<path d="M11.5115 16.8264C11.5291 16.8275 11.5468 16.8249 11.5634 16.8185C11.5799 16.8122 11.5949 16.8023 11.6073 16.7896C11.6197 16.7771 11.6293 16.7618 11.6352 16.7452C11.6411 16.7285 11.6435 16.7108 11.6421 16.6931C11.6406 16.6601 11.626 16.629 11.6016 16.6067C11.5774 16.5843 11.5451 16.5724 11.5121 16.5736C11.4957 16.5736 11.4794 16.5768 11.4643 16.5833C11.4492 16.5896 11.4355 16.5989 11.4239 16.6106C11.4124 16.6224 11.4035 16.6363 11.3974 16.6515C11.3914 16.6668 11.3884 16.6831 11.3887 16.6996C11.3883 16.7326 11.4011 16.7645 11.4239 16.7882C11.4471 16.812 11.4785 16.8257 11.5115 16.8264Z" fill="black"/>
<path d="M12.3983 24.1802C12.382 24.1802 12.3659 24.1835 12.3508 24.1899C12.3358 24.1962 12.3222 24.2057 12.3109 24.2175C12.2996 24.2294 12.2907 24.2433 12.2851 24.2587C12.2793 24.2741 12.2768 24.2903 12.2775 24.3067C12.2775 24.3234 12.2808 24.3402 12.2875 24.3559C12.2941 24.3714 12.3038 24.3853 12.316 24.3971C12.3281 24.4088 12.3426 24.4181 12.3584 24.424C12.3741 24.4301 12.391 24.4329 12.4078 24.4322C12.4247 24.4316 12.4413 24.4277 12.4566 24.4205C12.4719 24.4133 12.4856 24.4031 12.4969 24.3906C12.5082 24.378 12.5169 24.3633 12.5223 24.3474C12.5279 24.3313 12.53 24.3144 12.5289 24.2976C12.5282 24.2813 12.5243 24.2652 12.5172 24.2504C12.5103 24.2356 12.5004 24.2223 12.4883 24.2115C12.4762 24.2005 12.4619 24.1921 12.4465 24.1868C12.431 24.1814 12.4147 24.1792 12.3983 24.1802Z" fill="black"/>
<path d="M17.2922 28.2034C17.2746 28.2031 17.2571 28.2065 17.2408 28.2134C17.2246 28.2204 17.21 28.2306 17.1978 28.2436C17.1859 28.2564 17.1767 28.2718 17.1709 28.2884C17.1651 28.3052 17.163 28.323 17.1646 28.3405C17.1653 28.3568 17.1693 28.3729 17.1764 28.3877C17.1835 28.4025 17.1933 28.4158 17.2057 28.4266C17.218 28.4375 17.2322 28.4457 17.2479 28.4509C17.2634 28.4561 17.2798 28.4581 17.2961 28.4568C17.3291 28.4557 17.3604 28.4416 17.3831 28.4175C17.406 28.3936 17.4183 28.3616 17.4176 28.3285C17.4169 28.2955 17.4035 28.264 17.3802 28.2406C17.3568 28.2173 17.3253 28.2039 17.2922 28.2034Z" fill="black"/>
<path d="M21.509 10.3324C21.5419 10.3294 21.5723 10.3142 21.5942 10.2895C21.6162 10.2648 21.6278 10.2327 21.6268 10.1998C21.6252 10.1668 21.6108 10.1356 21.5869 10.1129C21.5629 10.0904 21.5309 10.078 21.4979 10.0784C21.4815 10.0781 21.4652 10.0813 21.4501 10.0874C21.4348 10.0936 21.421 10.1028 21.4095 10.1143C21.3978 10.1259 21.3886 10.1397 21.3824 10.1548C21.376 10.1701 21.3729 10.1863 21.3731 10.2028C21.3727 10.2204 21.3762 10.2379 21.383 10.2541C21.3897 10.2705 21.3999 10.2851 21.4126 10.2973C21.4254 10.3095 21.4405 10.319 21.4571 10.3249C21.4738 10.331 21.4914 10.3335 21.509 10.3324Z" fill="black"/>
<path d="M21.5339 28.6886C21.5007 28.6874 21.4684 28.6993 21.444 28.7214C21.4195 28.7437 21.4047 28.7747 21.4026 28.8077C21.401 28.833 21.407 28.8582 21.4198 28.8801C21.4326 28.9021 21.4517 28.9196 21.4745 28.9307C21.4974 28.9417 21.523 28.9455 21.5481 28.9418C21.5731 28.9382 21.5965 28.9272 21.6154 28.9101C21.6342 28.893 21.6474 28.8708 21.6535 28.8462C21.6594 28.8215 21.658 28.7956 21.6492 28.7718C21.6405 28.7481 21.6248 28.7273 21.6043 28.7125C21.5837 28.6977 21.5591 28.6893 21.5339 28.6886Z" fill="black"/>
</svg>
