<svg width="360" height="1028" viewBox="0 0 360 1028" fill="none" xmlns="http://www.w3.org/2000/svg">
<g filter="url(#filter0_f_1_176)">
<circle cx="28.0747" cy="616.925" r="85.0747" fill="#7FCE84" fill-opacity="0.83"/>
</g>
<g filter="url(#filter1_f_1_176)">
<circle cx="394.668" cy="496.618" r="170.618" fill="#36853B" fill-opacity="0.52"/>
</g>
<g filter="url(#filter2_f_1_176)">
<circle cx="183.89" cy="573.408" r="79.9969" fill="#3D9542"/>
</g>
<g clip-path="url(#clip0_1_176)">
<g opacity="0.3">
<path d="M313.617 524.642H370.396V566.946H313.617V524.642ZM250.96 377.204H307.74V418.915H251.248V424.364H307.74V469.054H251.248V474.502H307.74V519.193H251.248V524.642H307.74V566.946H250.96V377.204ZM313.617 424.364H370.396V469.054H313.617V424.364ZM313.617 474.502H370.396V519.192H313.617V474.502ZM370.396 418.915H313.617V377.204H370.396V418.915ZM246.27 574.395H375.085V369.754H246.27V574.395Z" stroke="black" stroke-width="0.853263" stroke-miterlimit="10" stroke-linecap="round" stroke-linejoin="round"/>
<path d="M299.602 389.676L270.956 413.383" stroke="black" stroke-width="0.853263" stroke-miterlimit="10" stroke-linecap="round" stroke-linejoin="round"/>
<path d="M356.401 436.102L327.755 459.809" stroke="black" stroke-width="0.853263" stroke-miterlimit="10" stroke-linecap="round" stroke-linejoin="round"/>
<path d="M291.699 536.365L263.053 560.072" stroke="black" stroke-width="0.853263" stroke-miterlimit="10" stroke-linecap="round" stroke-linejoin="round"/>
<path d="M284.579 396.59L271.449 407.456" stroke="black" stroke-width="0.853263" stroke-miterlimit="10" stroke-linecap="round" stroke-linejoin="round"/>
<path d="M354.219 430.67L341.089 441.536" stroke="black" stroke-width="0.853263" stroke-miterlimit="10" stroke-linecap="round" stroke-linejoin="round"/>
<path d="M290.012 543.773L276.882 554.639" stroke="black" stroke-width="0.853263" stroke-miterlimit="10" stroke-linecap="round" stroke-linejoin="round"/>
<path d="M286.06 491.42L272.931 502.286" stroke="black" stroke-width="0.853263" stroke-miterlimit="10" stroke-linecap="round" stroke-linejoin="round"/>
<path d="M353.232 537.352L340.101 548.218" stroke="black" stroke-width="0.853263" stroke-miterlimit="10" stroke-linecap="round" stroke-linejoin="round"/>
<path d="M238.852 574.26H383.072V592.176H238.852V574.26Z" stroke="black" stroke-width="0.853263" stroke-miterlimit="10" stroke-linecap="round" stroke-linejoin="round"/>
</g>
<path d="M311.312 508.036C306.435 520.229 290.141 525.588 274.918 520.006C259.694 514.422 251.306 500.01 256.182 487.816C261.058 475.621 277.352 470.263 292.575 475.846C307.799 481.429 316.188 495.841 311.312 508.036Z" fill="#21A038"/>
<path d="M256.181 487.816C261.057 475.622 277.352 470.263 292.575 475.846C307.799 481.43 316.188 495.841 311.312 508.036C306.436 520.23 290.142 525.589 274.918 520.006C259.694 514.422 251.306 500.01 256.181 487.816Z" stroke="#111311" stroke-width="0.830991" stroke-miterlimit="10" stroke-linecap="round" stroke-linejoin="round"/>
<path d="M265.476 506.221C265.476 506.221 259.358 507.248 257.157 503.614C254.956 499.979 260.342 490.672 265.383 486.7C270.422 482.728 283.129 482.14 289.446 483.539C295.763 484.938 302.674 490.785 302.996 496.192C303.318 501.6 300.452 506.517 300.083 508.174C299.713 509.83 295.97 509.42 295.554 508.527C295.137 507.632 288.848 494.501 287.323 493.769C285.798 493.036 284.57 494.032 282.695 494.817C280.82 495.601 266.761 499.999 266.761 499.999L265.476 506.221Z" fill="#111311" stroke="#111311" stroke-width="0.830991" stroke-miterlimit="10" stroke-linecap="round" stroke-linejoin="round"/>
<path d="M268.146 643.648L268.012 625.923L259.266 646.463L259.266 646.465C257.508 648.856 255.388 651.961 254.273 654.433C252.16 659.122 257.351 675.245 258.056 673.683C258.759 672.12 264.363 651.669 264.363 651.669C264.363 651.669 265.363 648.162 265.524 645.34L268.146 643.648Z" fill="#9D9D9D" stroke="#111311" stroke-width="0.830991" stroke-miterlimit="10" stroke-linecap="round" stroke-linejoin="round"/>
<path d="M264.764 655.612C264.764 655.612 259.053 656.942 257.351 668.936C256.886 672.207 256.497 707.05 255.681 712.797L252.298 736.634L282.342 739.908L289.263 717.679L288.901 740.135L319.034 743.419C319.034 743.419 327.004 708.834 327.851 704.525C328.698 700.216 332.118 691.053 333.267 677.975C334.418 664.896 332.354 659.537 332.354 659.537L266.088 651.092L264.764 655.612Z" fill="#111311" stroke="#111311" stroke-width="0.830991" stroke-miterlimit="10" stroke-linecap="round" stroke-linejoin="round"/>
<path d="M285.545 537.181C285.545 537.181 269.741 548.112 266.214 551.195C262.557 554.392 261.114 574.061 263.248 587.956C265.382 601.852 266.724 623.121 266.332 627.348C265.941 631.574 263.04 656.785 263.04 656.785C263.04 656.785 286.647 669.831 302.333 668.989C318.022 668.145 329.865 662.611 329.865 662.611C329.865 662.611 333.531 619.252 334.867 609.791C336.203 600.332 338.609 568.788 338.136 557.636C337.663 546.484 331.522 539.194 326.367 537.988C321.21 536.783 301.721 533.718 301.721 533.718L285.545 537.181Z" fill="#9D9D9D" stroke="#111311" stroke-width="0.830991" stroke-miterlimit="10" stroke-linecap="round" stroke-linejoin="round"/>
<path d="M277.174 533.857C277.174 533.857 280.896 553.085 281.926 553.384C282.957 553.684 286.19 551.056 286.19 551.056L300.025 534.124L297.911 516.87C297.911 516.87 294.096 525.461 288.361 530.61C282.628 535.758 277.174 533.857 277.174 533.857Z" fill="#9D9D9D" stroke="#111311" stroke-width="0.830991" stroke-miterlimit="10" stroke-linecap="round" stroke-linejoin="round"/>
<path d="M289.899 531.41L279.6 543.981L277.026 533.706L289.899 531.41Z" fill="#111311" stroke="#111311" stroke-width="0.830991" stroke-miterlimit="10" stroke-linecap="round" stroke-linejoin="round"/>
<path d="M287.986 488.491C287.986 488.491 279.869 493.736 273.751 495.297C267.63 496.859 264.609 497.365 264.609 497.365C264.609 497.365 264.725 509.778 264.767 513.265C264.809 516.753 265.179 522.645 267.205 525.373C269.231 528.102 274.203 534.635 276.629 536.433C279.055 538.23 283.718 537.485 285.136 536.943C286.553 536.401 295.922 525.162 296.551 523.559C297.181 521.956 297.354 516.959 297.354 516.959C297.354 516.959 301.058 515.412 301.858 513.549C302.659 511.687 302.483 504.422 301.563 503.347C300.643 502.271 298.771 503.181 298.351 504.25C297.931 505.319 296.907 506.879 296.907 506.879C296.907 506.879 297.183 503.984 296.38 502.085C295.577 500.186 295.674 499.5 293.457 497.168C291.241 494.837 287.986 488.491 287.986 488.491Z" fill="#9D9D9D" stroke="#111311" stroke-width="0.830991" stroke-miterlimit="10" stroke-linecap="round" stroke-linejoin="round"/>
<path d="M275.273 514.398L275.143 518.203C275.143 518.203 279.574 518.547 281.894 516.538" stroke="#111311" stroke-width="0.830991" stroke-miterlimit="10" stroke-linecap="round" stroke-linejoin="round"/>
<path d="M272.251 521.784C272.251 521.784 275.312 523.261 280.488 522.265C285.664 521.27 287.383 517.757 287.383 517.757" stroke="#111311" stroke-width="0.830991" stroke-miterlimit="10" stroke-linecap="round" stroke-linejoin="round"/>
<path d="M273.348 504.975C273.348 504.975 267.773 502.344 265.572 505.65" stroke="#111311" stroke-width="0.830991" stroke-miterlimit="10" stroke-linecap="round" stroke-linejoin="round"/>
<path d="M279.575 503.545C279.575 503.545 283.958 500.053 287.846 502.14" stroke="#111311" stroke-width="0.830991" stroke-miterlimit="10" stroke-linecap="round" stroke-linejoin="round"/>
<path d="M272.086 510.1C272.347 511.204 272.118 512.2 271.575 512.321C271.034 512.442 270.381 511.644 270.12 510.539C269.861 509.433 270.088 508.439 270.631 508.317C271.174 508.197 271.825 508.994 272.086 510.1Z" fill="#111311"/>
<path d="M285.147 507.801C285.408 508.906 285.179 509.9 284.636 510.022C284.094 510.142 283.443 509.345 283.181 508.24C282.921 507.134 283.149 506.139 283.692 506.019C284.235 505.898 284.885 506.695 285.147 507.801Z" fill="#111311"/>
<path d="M311.257 560.263L316.641 604.134C316.641 604.134 315.762 606.156 315.984 607.454C316.206 608.752 316.26 609.817 316.26 609.817C316.26 609.817 310.807 626.171 306.639 636.094C302.471 646.018 289.537 667.255 289.587 669.806C289.638 672.357 284.686 690.887 285.755 691.855C286.824 692.824 289.412 694.388 290.201 694.477C290.989 694.566 294.483 695.383 295.666 695.516C296.849 695.649 301.217 695.929 302.236 694.346C303.254 692.765 303.201 691.698 301.96 691.983C300.719 692.267 298.718 692.254 298.718 692.254L298.159 690.494C298.159 690.494 300.15 683.296 299.911 677.754C299.671 672.213 299.535 670.289 299.535 670.289C299.535 670.289 330.018 630.666 332.095 622.84C334.171 615.015 336.956 606.42 337.501 602.452C338.047 598.484 339.012 562.325 338.374 558.224C337.737 554.123 337.691 550.088 334.995 546.391C332.298 542.695 330.128 542.45 328.55 542.273" fill="#9D9D9D"/>
<path d="M311.257 560.263L316.641 604.134C316.641 604.134 315.762 606.156 315.984 607.454C316.206 608.752 316.26 609.817 316.26 609.817C316.26 609.817 310.807 626.171 306.639 636.094C302.471 646.018 289.537 667.255 289.587 669.806C289.638 672.357 284.686 690.887 285.755 691.855C286.824 692.824 289.412 694.388 290.201 694.477C290.989 694.566 294.483 695.383 295.666 695.516C296.849 695.649 301.217 695.929 302.236 694.346C303.254 692.765 303.201 691.698 301.96 691.983C300.719 692.267 298.718 692.254 298.718 692.254L298.159 690.494C298.159 690.494 300.15 683.296 299.911 677.754C299.671 672.213 299.535 670.289 299.535 670.289C299.535 670.289 330.018 630.666 332.095 622.84C334.171 615.015 336.956 606.42 337.501 602.452C338.047 598.484 339.012 562.325 338.374 558.224C337.737 554.123 337.691 550.088 334.995 546.391C332.298 542.695 330.128 542.45 328.55 542.273" stroke="#111311" stroke-width="0.830991" stroke-miterlimit="10" stroke-linecap="round" stroke-linejoin="round"/>
<path d="M317.924 609.013C317.924 609.013 324.374 606.99 329.257 610.081" stroke="#111311" stroke-width="0.830991" stroke-miterlimit="10" stroke-linecap="round" stroke-linejoin="round"/>
<path d="M322.436 604.937C322.436 604.937 329.732 603.886 333.382 609.825" stroke="#111311" stroke-width="0.830991" stroke-miterlimit="10" stroke-linecap="round" stroke-linejoin="round"/>
<path d="M310.015 628.343C309.015 630.949 308.004 633.487 307.058 635.706C302.811 645.67 289.641 667.001 289.689 669.56C289.737 672.121 284.684 690.726 285.768 691.698C286.853 692.669 289.482 694.236 290.284 694.324C291.086 694.413 294.635 695.229 295.838 695.362C297.04 695.495 301.478 695.771 302.515 694.183C303.552 692.593 303.499 691.522 302.237 691.81C300.977 692.096 298.942 692.085 298.942 692.085L298.376 690.32C298.376 690.32 300.408 683.091 300.171 677.529C299.935 671.968 299.799 670.036 299.799 670.036C299.799 670.036 314.705 650.912 324.559 636.559C320.33 630.574 314.186 628.803 310.015 628.343Z" fill="#9D9D9D" stroke="#111311" stroke-width="0.830991" stroke-miterlimit="10" stroke-linecap="round" stroke-linejoin="round"/>
<path d="M294.423 690.839C294.423 690.839 296.201 692.846 296.823 693.491C297.445 694.136 297.6 694.73 298.904 695.037" fill="#9D9D9D"/>
<path d="M294.423 690.839C294.423 690.839 296.201 692.846 296.823 693.491C297.445 694.136 297.6 694.73 298.904 695.037" stroke="#111311" stroke-width="0.830991" stroke-miterlimit="10" stroke-linecap="round" stroke-linejoin="round"/>
<path d="M290.184 691.368C290.184 691.368 292.969 694.065 294.827 694.754L290.184 691.368Z" fill="#9D9D9D"/>
<path d="M290.184 691.368C290.184 691.368 292.969 694.065 294.827 694.754" stroke="#111311" stroke-width="0.830991" stroke-miterlimit="10" stroke-linecap="round" stroke-linejoin="round"/>
<path d="M286.83 690.467C286.83 690.467 288.014 692.55 289.515 693.457L286.83 690.467Z" fill="#9D9D9D"/>
<path d="M286.83 690.467C286.83 690.467 288.014 692.55 289.515 693.457" stroke="#111311" stroke-width="0.830991" stroke-miterlimit="10" stroke-linecap="round" stroke-linejoin="round"/>
<path d="M263.922 650.4C263.922 650.4 263.862 656.101 264.025 657.044C264.187 657.988 263.521 659.611 263.323 663.136C263.125 666.662 263.485 670.403 261.401 669.556C259.317 668.706 259.13 662.671 259.487 661.167C259.843 659.664 257.875 654.818 257.875 654.818" fill="#9D9D9D"/>
<path d="M263.922 650.4C263.922 650.4 263.862 656.101 264.025 657.044C264.187 657.988 263.521 659.611 263.323 663.136C263.125 666.662 263.485 670.403 261.401 669.556C259.317 668.706 259.13 662.671 259.487 661.167C259.843 659.664 257.875 654.818 257.875 654.818" stroke="#111311" stroke-width="0.830991" stroke-miterlimit="10" stroke-linecap="round" stroke-linejoin="round"/>
<path d="M225.42 621.423C223.783 616.851 214.938 555.316 214.938 555.316C210.844 563.755 203.686 606.625 203.686 606.625L202.681 629.628L201.846 633.878C206.424 631.253 217.465 626.257 223.355 634.888C223.514 634.478 223.636 634.131 223.713 633.856C225.298 628.187 227.057 625.996 225.42 621.423Z" fill="#21A038"/>
<path d="M225.42 621.423C223.783 616.851 214.938 555.316 214.938 555.316C210.844 563.755 203.686 606.625 203.686 606.625L202.681 629.628L201.846 633.878C206.424 631.253 217.465 626.257 223.355 634.888C223.514 634.478 223.636 634.131 223.713 633.856C225.298 628.187 227.057 625.996 225.42 621.423Z" stroke="#111311" stroke-width="0.89071" stroke-miterlimit="10" stroke-linecap="round" stroke-linejoin="round"/>
<path d="M220.214 626.647C221.338 626.955 222.414 627.382 223.397 627.961" stroke="#111311" stroke-width="0.89071" stroke-miterlimit="10" stroke-linecap="round" stroke-linejoin="round"/>
<path d="M204.199 627.037C204.199 627.037 210.096 625.393 216.126 625.944" stroke="#111311" stroke-width="0.89071" stroke-miterlimit="10" stroke-linecap="round" stroke-linejoin="round"/>
<path d="M222.634 624.485C222.634 624.485 218.069 620.837 213.915 621.759" stroke="#111311" stroke-width="0.89071" stroke-miterlimit="10" stroke-linecap="round" stroke-linejoin="round"/>
<path d="M109.152 735.173L115.941 688.901L122.284 663.757L196.729 668.092L201.075 686.951L198.095 744.125L160.577 740.606L158.159 702.325L155.681 705.756L150.782 738.873L109.152 735.173Z" fill="#111311" stroke="#111311" stroke-width="0.89071" stroke-miterlimit="10" stroke-linecap="round" stroke-linejoin="round"/>
<path d="M155.441 539.767C155.441 539.767 122.354 545.546 120.28 546.362C118.206 547.177 118.774 577.739 120.432 589.007C122.09 600.276 124.433 641.308 124.433 641.308L120.332 670.421C120.332 670.421 151.622 674.171 164.381 673.754C177.141 673.338 191.351 671.037 191.351 671.037C191.351 671.037 199 645.693 199.573 628.573C200.146 611.452 209.822 569.731 210.233 566.941C210.645 564.151 213.908 553.951 213.908 553.951C213.908 553.951 190.941 544.114 184.892 542.738C178.844 541.361 164.452 539.604 155.441 539.767Z" fill="#21A038" stroke="#111311" stroke-width="0.89071" stroke-miterlimit="10" stroke-linecap="round" stroke-linejoin="round"/>
<path d="M147 547.017C147 547.017 149.951 558.676 158.814 566.493" stroke="#111311" stroke-width="0.89071" stroke-miterlimit="10" stroke-linecap="round" stroke-linejoin="round"/>
<path d="M181.07 548.671C181.07 548.671 178.838 552.832 175.504 557.26" stroke="#111311" stroke-width="0.89071" stroke-miterlimit="10" stroke-linecap="round" stroke-linejoin="round"/>
<path d="M174.647 559.549L172.701 561.726" stroke="#111311" stroke-width="0.89071" stroke-miterlimit="10" stroke-linecap="round" stroke-linejoin="round"/>
<path d="M150.881 669.12C158.548 669.508 172.645 669.816 182.058 667.605" stroke="#111311" stroke-width="0.89071" stroke-miterlimit="10" stroke-linecap="round" stroke-linejoin="round"/>
<path d="M145.438 668.796C145.438 668.796 146.307 668.87 147.806 668.963" stroke="#111311" stroke-width="0.89071" stroke-miterlimit="10" stroke-linecap="round" stroke-linejoin="round"/>
<path d="M177.72 663.584C167.566 663.965 152.272 663.677 140.777 659.659" stroke="#111311" stroke-width="0.89071" stroke-miterlimit="10" stroke-linecap="round" stroke-linejoin="round"/>
<path d="M188.537 663.162C188.537 663.162 185.955 663.413 181.83 663.584" stroke="#111311" stroke-width="0.89071" stroke-miterlimit="10" stroke-linecap="round" stroke-linejoin="round"/>
<path d="M189.182 649.197C182.774 652.09 170.609 656.841 158.918 657.315" stroke="#111311" stroke-width="0.89071" stroke-miterlimit="10" stroke-linecap="round" stroke-linejoin="round"/>
<path d="M193.806 647.019C193.806 647.019 192.93 647.479 191.382 648.204" stroke="#111311" stroke-width="0.89071" stroke-miterlimit="10" stroke-linecap="round" stroke-linejoin="round"/>
<path d="M151.067 528.564L150.419 544.779C150.419 544.779 153.727 556.882 164.874 557.167C175.806 557.446 179.184 543.317 179.184 543.317L179.099 526.129C179.099 526.129 168.557 533.459 163.307 532.244C158.058 531.028 151.067 528.564 151.067 528.564Z" fill="#9D9D9D" stroke="#111311" stroke-width="0.89071" stroke-miterlimit="10" stroke-linecap="round" stroke-linejoin="round"/>
<path d="M141.821 508.852C141.821 508.852 140.178 506.075 138.403 508.281C136.627 510.486 137.606 516.945 140.146 518.557C142.685 520.169 143.401 520.236 143.401 520.236C143.401 520.236 145.689 526.818 147.084 528.822C148.479 530.825 159.221 540.698 162.007 541.46C164.793 542.22 168.971 541.739 170.774 540.16C172.578 538.582 179.09 527.208 180.222 524.443C181.356 521.678 181.566 521.074 181.821 519.35C182.076 517.626 182.174 516.138 182.174 516.138C182.174 516.138 185.551 512.085 186.298 508.66C187.046 505.235 186.594 502.57 184.88 501.91C183.166 501.249 180.715 504.764 180.715 504.764L177.083 485.198C177.083 485.198 175.702 479.824 174.006 479.041C172.31 478.257 159.326 478.661 153.62 480.496C147.914 482.333 142.308 484.303 141.568 486.855C140.829 489.408 141.821 508.852 141.821 508.852Z" fill="#9D9D9D" stroke="#111311" stroke-width="0.89071" stroke-miterlimit="10" stroke-linecap="round" stroke-linejoin="round"/>
<path d="M154.453 483.324C154.453 483.324 143.922 484.476 143.109 486.151C142.297 487.824 141.071 491.016 141.817 493.614C142.562 496.213 142.148 509.204 142.148 509.204C142.148 509.204 143.224 513.39 142.193 512.71C141.164 512.03 140.944 507.147 140.658 506.537C140.372 505.927 136.903 496.266 135.928 492.673C134.953 489.081 138.408 486.098 139.265 485.401C140.121 484.703 141.035 483.622 141.035 483.622C141.035 483.622 140.929 477.971 143.713 475.704C146.498 473.437 164.902 471.273 166.473 470.837C168.045 470.4 170.014 467.279 171.428 466.634C172.842 465.989 176.459 468.272 178.166 473.295C179.871 478.317 179.487 479.643 178.601 480.531L177.717 481.421C177.717 481.421 180.261 482.048 180.836 485.798C181.412 489.548 182.387 493.14 181.962 496.018C181.536 498.895 180.436 504.402 180.351 504.977C180.266 505.553 179.698 504.947 179.425 502.976C179.151 501.005 176.207 486.531 175.691 484.926C175.175 483.322 174.473 481.7 174.187 481.09C173.9 480.48 158.579 479.627 154.453 483.324Z" fill="#111311" stroke="#111311" stroke-width="0.89071" stroke-miterlimit="10" stroke-linecap="round" stroke-linejoin="round"/>
<path d="M162.235 541.4C165.037 542.163 169.238 541.68 171.052 540.095C172.866 538.509 179.414 527.086 180.554 524.309C181.693 521.531 181.904 520.924 182.161 519.192C182.417 517.461 182.517 515.965 182.517 515.965L181.443 504.025C181.336 504.16 181.249 504.273 181.183 504.361C181.02 508.002 180.68 515.03 180.444 516.023C180.123 517.372 178.465 518.721 176.992 518.833C175.517 518.946 168.853 517.193 165.822 517.159C162.791 517.126 161.668 518.148 159.208 519.173C156.749 520.196 151.638 522.725 150.385 522.984C149.132 523.243 146.983 522.164 146.208 520.837C145.432 519.511 142.787 508.777 142.787 508.777C142.704 509.442 141.885 510.651 141.885 510.651L143.526 520.084C143.526 520.084 145.827 526.695 147.23 528.707C148.632 530.72 159.433 540.636 162.235 541.4Z" fill="#111311"/>
<path d="M162.235 541.4C165.037 542.163 169.238 541.68 171.052 540.095C172.866 538.509 179.414 527.086 180.554 524.309C181.693 521.531 181.904 520.924 182.161 519.192C182.417 517.461 182.517 515.965 182.517 515.965L181.443 504.025C181.336 504.16 181.249 504.273 181.183 504.361C181.02 508.002 180.68 515.03 180.444 516.023C180.123 517.372 178.465 518.721 176.992 518.833C175.517 518.946 168.853 517.193 165.822 517.159C162.791 517.126 161.668 518.148 159.208 519.173C156.749 520.196 151.638 522.725 150.385 522.984C149.132 523.243 146.983 522.164 146.208 520.837C145.432 519.511 142.787 508.777 142.787 508.777C142.704 509.442 141.885 510.651 141.885 510.651L143.526 520.084C143.526 520.084 145.827 526.695 147.23 528.707C148.632 530.72 159.433 540.636 162.235 541.4Z" stroke="#111311" stroke-width="0.89071" stroke-miterlimit="10" stroke-linecap="round" stroke-linejoin="round"/>
<path d="M165.716 499.909C165.716 499.909 163.419 502.011 163.687 502.778C163.956 503.547 167.036 517.429 166.709 518.875C166.383 520.32 164.305 520.844 162.768 520.189C161.23 519.536 160.727 515.045 160.727 515.045" fill="#9D9D9D"/>
<path d="M165.716 499.909C165.716 499.909 163.419 502.011 163.687 502.778C163.956 503.547 167.036 517.429 166.709 518.875C166.383 520.32 164.305 520.844 162.768 520.189C161.23 519.536 160.727 515.045 160.727 515.045" stroke="#111311" stroke-width="0.89071" stroke-miterlimit="10" stroke-linecap="round" stroke-linejoin="round"/>
<path d="M167.855 498.916C167.855 498.916 172.558 496.422 176.161 498.775" stroke="#111311" stroke-width="2.67213" stroke-miterlimit="10" stroke-linecap="round" stroke-linejoin="round"/>
<path d="M156.18 500.429C156.18 500.429 149.631 498.073 146.216 502.987" stroke="#111311" stroke-width="2.67213" stroke-miterlimit="10" stroke-linecap="round" stroke-linejoin="round"/>
<path d="M154.824 506.527C154.961 507.565 154.555 508.482 153.92 508.575C153.284 508.667 152.658 507.899 152.521 506.861C152.384 505.823 152.79 504.906 153.425 504.814C154.061 504.721 154.688 505.489 154.824 506.527Z" fill="#111311"/>
<path d="M152.499 506.862C152.341 505.826 152.738 504.911 153.386 504.817C154.035 504.723 154.688 505.486 154.847 506.522C155.005 507.557 154.608 508.473 153.959 508.567C153.311 508.661 152.658 507.897 152.499 506.862Z" stroke="#111311" stroke-width="0.89071" stroke-miterlimit="10" stroke-linecap="round" stroke-linejoin="round"/>
<path d="M171.288 504.049C171.424 505.087 171.02 506.004 170.383 506.096C169.747 506.188 169.121 505.42 168.986 504.383C168.848 503.345 169.253 502.428 169.889 502.336C170.526 502.243 171.152 503.011 171.288 504.049Z" fill="#111311"/>
<path d="M168.964 504.387C168.806 503.352 169.203 502.436 169.851 502.342C170.499 502.248 171.153 503.012 171.311 504.047C171.469 505.083 171.072 505.998 170.424 506.092C169.776 506.186 169.122 505.423 168.964 504.387Z" stroke="#111311" stroke-width="0.89071" stroke-miterlimit="10" stroke-linecap="round" stroke-linejoin="round"/>
<path d="M157.54 525.474C157.54 525.474 165.891 528.158 171.459 522.976" stroke="#111311" stroke-width="0.89071" stroke-miterlimit="10" stroke-linecap="round" stroke-linejoin="round"/>
<path d="M224.719 633.844C224.685 633.969 224.638 634.112 224.587 634.264C224.638 634.113 224.685 633.969 224.719 633.844Z" stroke="#111311" stroke-width="0.89071" stroke-miterlimit="10" stroke-linecap="round" stroke-linejoin="round"/>
<path d="M224.299 634.226C218.296 625.541 207.02 630.581 202.345 633.227L197.483 654.263L195.931 658.16C195.931 658.16 186.922 666.207 185.693 667.91C184.464 669.613 182.716 670.864 181.412 671.752C180.108 672.64 177.484 673.202 177.114 674.38C176.745 675.558 180.513 676.519 181.758 676.029C183.003 675.54 186.366 672.621 186.366 672.621L183.865 677.642L198.096 685.851C198.096 685.851 199.544 681.339 200.343 678.584C201.141 675.829 202.69 669.306 203.059 668.127C203.419 666.979 221.974 640.774 224.496 633.702C224.438 633.864 224.374 634.036 224.299 634.226Z" fill="#9D9D9D" stroke="#111311" stroke-width="0.89071" stroke-miterlimit="10" stroke-linecap="round" stroke-linejoin="round"/>
<path d="M119.347 545.84C119.347 545.84 114.978 549.249 113.663 552.948C112.348 556.647 93.5941 602.728 89.6848 609.601C85.7763 616.474 84.5526 622.194 85.8631 625.136C87.1746 628.077 114.3 653.02 114.3 653.02C114.3 653.02 116.108 664.46 116.656 667.33C117.203 670.199 118.224 675.124 118.224 675.124L130.898 670.491C130.898 670.491 132.811 673.289 134.163 674.625C135.516 675.96 137.336 676.737 137.893 675.583C138.449 674.427 136.653 670.836 136.653 670.836C136.653 670.836 135.857 668.346 135.956 666.343C136.056 664.34 133.716 660.496 132.832 658.601C131.949 656.706 123.556 649.269 123.556 649.269L108.557 616.824L119.514 588.315C119.514 588.315 117.01 553.87 119.347 545.84Z" fill="#9D9D9D" stroke="#111311" stroke-width="0.89071" stroke-miterlimit="10" stroke-linecap="round" stroke-linejoin="round"/>
<path d="M107.761 616.692L119.205 592.767C119.205 592.767 116.128 553.857 118.445 545.843C118.445 545.843 114.107 549.245 112.803 552.936C111.499 556.627 92.899 602.617 89.0213 609.476C85.1437 616.336 83.9302 622.045 85.2335 624.981C85.6024 625.815 87.7367 629.554 92.4422 632.942C94.5878 629.65 100.043 622.045 109.857 622.279L107.761 616.692Z" fill="#21A038" stroke="#111311" stroke-width="0.89071" stroke-miterlimit="10" stroke-linecap="round" stroke-linejoin="round"/>
<path d="M94.0103 613.753C94.0103 613.753 100.065 613.453 105.26 616.312" stroke="#111311" stroke-width="0.89071" stroke-miterlimit="10" stroke-linecap="round" stroke-linejoin="round"/>
<path d="M102.14 612.797C102.14 612.797 106.912 614.653 108.422 616.653" stroke="#111311" stroke-width="0.89071" stroke-miterlimit="10" stroke-linecap="round" stroke-linejoin="round"/>
<path d="M203.683 653.385C203.683 653.385 189.477 682.686 191.347 699.389C193.217 716.09 194.301 736.246 194.301 736.246L247.968 741.294C247.968 741.294 256.493 721.672 257.288 709.491C258.081 697.31 258.35 683.595 258.35 683.595L259.842 648.455L206.352 643.423L203.683 653.385Z" fill="#111311" stroke="#111311" stroke-width="0.853263" stroke-miterlimit="10" stroke-linecap="round" stroke-linejoin="round"/>
<path d="M225.892 685.746C225.892 685.746 232.225 705.902 234.207 721.399C236.189 736.896 235.684 739.613 235.684 739.613" stroke="#111311" stroke-width="0.853263" stroke-miterlimit="10" stroke-linecap="round" stroke-linejoin="round"/>
<path d="M233.578 703.012C233.578 703.012 244.029 695.625 248.106 686.018" stroke="#111311" stroke-width="0.853263" stroke-miterlimit="10" stroke-linecap="round" stroke-linejoin="round"/>
<path d="M244.854 565.743L218.802 571.981C218.802 571.981 225.949 587.651 226.322 609.161C226.694 630.671 222.798 652.147 222.798 652.147C222.798 652.147 228.814 656.789 241.314 656.49C253.815 656.191 258.392 649.404 258.392 649.404C258.392 649.404 261.891 613.821 259.054 599.297C256.216 584.774 244.854 565.743 244.854 565.743Z" fill="#21A038" stroke="#111311" stroke-width="0.853263" stroke-miterlimit="10" stroke-linecap="round" stroke-linejoin="round"/>
<path d="M213.486 499.3C213.486 499.3 207.458 498.231 204.006 505.123C200.555 512.015 190.251 536.22 191.013 541.83C191.776 547.44 194.754 549.566 195.295 555.657C195.834 561.75 192.496 565.129 192.496 565.129C192.496 565.129 194.328 568.657 199.756 569.334C205.186 570.012 213.916 566.3 219.53 565.485C225.145 564.67 237.31 564.638 244.988 564.183C252.665 563.729 254.989 558.074 254.989 558.074C254.989 558.074 249.798 558.09 249.889 554.743C249.982 551.395 255.695 539.345 255.003 530.553C254.313 521.762 243.364 512.007 238.61 507.197C233.857 502.388 229.321 498.438 223.732 497.745C218.143 497.052 214.716 497.234 213.486 499.3Z" fill="#111311" stroke="#111311" stroke-width="0.853263" stroke-miterlimit="10" stroke-linecap="round" stroke-linejoin="round"/>
<path d="M206.614 529.905C206.614 529.905 200.885 537.998 200.593 545.617C200.302 553.235 205.717 554.255 206.931 553.374" stroke="#111311" stroke-width="0.853263" stroke-miterlimit="10" stroke-linecap="round" stroke-linejoin="round"/>
<path d="M239.2 520.904C239.2 520.904 249.677 533.232 250.397 544.965" stroke="#111311" stroke-width="0.853263" stroke-miterlimit="10" stroke-linecap="round" stroke-linejoin="round"/>
<path d="M218.76 550.25L222.248 566.043C222.248 566.043 231.852 580.712 236.98 579.251C242.108 577.789 239.079 563.729 239.148 561.793C239.218 559.857 238.871 550.287 238.871 550.287C238.871 550.287 234.805 555.557 232.614 555.351C230.422 555.145 218.76 550.25 218.76 550.25Z" fill="#9D9D9D" stroke="#111311" stroke-width="0.853263" stroke-miterlimit="10" stroke-linecap="round" stroke-linejoin="round"/>
<path d="M218.877 509.975C218.877 509.975 208.016 525.792 207.734 528.069C207.451 530.347 212.477 544.999 213.989 547.977C215.502 550.955 227.595 558.296 230.448 558.741C233.302 559.187 236.59 556.129 237.593 553.563C238.595 551 242.355 544.08 242.663 540.06C242.778 538.559 239.65 521.269 238.237 520.25C236.823 519.23 218.877 509.975 218.877 509.975Z" fill="#9D9D9D" stroke="#111311" stroke-width="0.853263" stroke-miterlimit="10" stroke-linecap="round" stroke-linejoin="round"/>
<path d="M221.656 533.761C221.656 533.761 218.489 531.958 216.264 534.757" stroke="#111311" stroke-width="0.853263" stroke-miterlimit="10" stroke-linecap="round" stroke-linejoin="round"/>
<path d="M230.774 531.493C230.774 531.493 231.784 527.975 235.799 529.545" stroke="#111311" stroke-width="0.853263" stroke-miterlimit="10" stroke-linecap="round" stroke-linejoin="round"/>
<path d="M220.113 528.892C220.113 528.892 214.889 527.864 212.956 531.409" stroke="#111311" stroke-width="0.853263" stroke-miterlimit="10" stroke-linecap="round" stroke-linejoin="round"/>
<path d="M227.534 526.312C227.534 526.312 230.749 522.681 234.609 524.592" stroke="#111311" stroke-width="0.853263" stroke-miterlimit="10" stroke-linecap="round" stroke-linejoin="round"/>
<path d="M230.955 539.107C230.955 539.107 229.012 541.47 226.564 540.444" stroke="#111311" stroke-width="0.853263" stroke-miterlimit="10" stroke-linecap="round" stroke-linejoin="round"/>
<path d="M235.684 541.037C235.684 541.037 231.811 545.724 222.753 545.577C222.753 545.577 228.149 550.549 231.769 549.714C235.391 548.88 235.684 541.037 235.684 541.037Z" fill="#9D9D9D" stroke="#111311" stroke-width="0.853263" stroke-miterlimit="10" stroke-linecap="round" stroke-linejoin="round"/>
<path d="M209.648 536.861C209.648 536.861 206.92 535.204 206.014 538.856C205.109 542.508 212.425 544.48 212.425 544.48L209.648 536.861Z" fill="#9D9D9D" stroke="#111311" stroke-width="0.853263" stroke-miterlimit="10" stroke-linecap="round" stroke-linejoin="round"/>
<path d="M240.399 526.97C240.399 526.97 240.579 525.494 241.985 526.033C243.393 526.571 245.378 531.198 244.864 533.767C244.348 536.335 242.628 536.195 242.628 536.195L240.399 526.97Z" fill="#9D9D9D" stroke="#111311" stroke-width="0.853263" stroke-miterlimit="10" stroke-linecap="round" stroke-linejoin="round"/>
<path d="M214.304 564.371C214.304 564.371 193.364 576.023 192.245 578.367C191.125 580.713 196.418 653.916 196.418 653.916C196.418 653.916 172.437 696.106 176.13 704.168C179.823 712.231 199.889 721.515 200.71 722.995C201.532 724.475 214.55 687.363 219.924 673.341C225.299 659.318 234.392 633.916 236.215 621.654C238.038 609.392 235.232 592.656 234.234 587.131C233.237 581.604 231.404 571.968 231.404 571.968L214.304 564.371Z" fill="#111311" stroke="#111311" stroke-width="0.853263" stroke-miterlimit="10" stroke-linecap="round" stroke-linejoin="round"/>
<path d="M219.13 556.789C219.13 556.789 231.828 571.959 231.058 572.575C230.289 573.19 220.789 584.377 220.789 584.377L210.372 564.998L219.13 556.789Z" fill="#111311" stroke="#111311" stroke-width="0.853263" stroke-miterlimit="10" stroke-linecap="round" stroke-linejoin="round"/>
<path d="M242.423 572.965C242.423 572.965 252.433 589.338 256.052 600.718C259.67 612.098 259.626 631.708 258.703 639.323L256.962 653.69C256.962 653.69 257.663 690.531 258.575 696.747C259.487 702.963 260.758 714.468 260.758 714.468C260.758 714.468 262.819 713.966 263.577 706.335C264.334 698.703 265.454 667.466 264.639 654.954C263.823 642.443 265.334 621.974 264.293 618.196L263.251 614.418L281.494 610.744C281.494 610.744 271.789 599.244 270.16 582.908C269.419 575.475 266.288 571.235 264.335 569.471C262.384 567.707 246.951 564.47 244.295 564.39C241.64 564.309 242.423 572.965 242.423 572.965Z" fill="#111311" stroke="#111311" stroke-width="0.853263" stroke-miterlimit="10" stroke-linecap="round" stroke-linejoin="round"/>
<path d="M240.563 573.087C240.563 573.087 241.35 570.864 242.319 571.309C243.288 571.753 251.261 577.626 252.17 577.18C253.079 576.736 244.96 563.784 243.322 561.863C241.684 559.942 239.958 558.72 239.958 558.72L239.545 562.039L240.563 573.087Z" fill="#111311" stroke="#111311" stroke-width="0.853263" stroke-miterlimit="10" stroke-linecap="round" stroke-linejoin="round"/>
<path d="M257.247 574.902C257.247 574.902 261.116 595.034 260.987 603.536L257.247 574.902Z" fill="#9D9D9D"/>
<path d="M257.247 574.902C257.247 574.902 261.116 595.034 260.987 603.536" stroke="#111311" stroke-width="0.853263" stroke-miterlimit="10" stroke-linecap="round" stroke-linejoin="round"/>
<path d="M256.476 614.566C256.476 614.566 261.701 600.613 262.635 599.834C263.569 599.054 270.704 596.691 271.273 596.6C271.843 596.51 275.85 600.207 276.451 600.987C277.052 601.765 279.84 604.048 279.146 605.138C278.452 606.23 276.764 605.204 275.798 605.113C274.833 605.023 269.907 607.594 269.578 607.996C269.248 608.399 267.286 611.826 266.61 612.773C265.934 613.721 256.476 614.566 256.476 614.566Z" fill="#9D9D9D" stroke="#111311" stroke-width="0.853263" stroke-miterlimit="10" stroke-linecap="round" stroke-linejoin="round"/>
<path d="M277.617 602.343C277.617 602.343 275.881 601.41 275.298 601.643C274.715 601.876 267.836 604.398 267.412 604.839C266.987 605.28 266.437 605.996 266.437 605.996" stroke="#111311" stroke-width="0.853263" stroke-miterlimit="10" stroke-linecap="round" stroke-linejoin="round"/>
<path d="M264.913 603.673C264.913 603.673 266.198 602.255 267.376 601.693C268.557 601.13 272.585 599.972 273.066 599.826C273.547 599.679 275.261 600.034 275.261 600.034" stroke="#111311" stroke-width="0.853263" stroke-miterlimit="10" stroke-linecap="round" stroke-linejoin="round"/>
<path d="M272.582 598.082C272.582 598.082 264.929 600.146 264.389 600.768L263.851 601.391" stroke="#111311" stroke-width="0.853263" stroke-miterlimit="10" stroke-linecap="round" stroke-linejoin="round"/>
<path d="M264.181 612.817C264.181 612.817 271.717 608.407 274.923 607.295C278.128 606.185 284.037 609.388 285.021 611.069C286.006 612.75 286.59 620.396 285.729 625.963C284.867 631.531 284.395 633.958 280.537 634.831C276.679 635.705 271.539 635.927 271.011 636.053C270.485 636.18 271.3 625.49 268.814 619.431C266.329 613.372 264.181 612.817 264.181 612.817Z" fill="#111311" stroke="#111311" stroke-width="0.853263" stroke-miterlimit="10" stroke-linecap="round" stroke-linejoin="round"/>
<path d="M254.875 615.267C254.875 615.267 254.093 635.285 255.135 637.85C256.177 640.415 259.602 640.21 263.239 639.671C266.874 639.132 272.234 638.404 272.553 637.199C272.873 635.996 274.151 624.308 272.908 619.257C271.664 614.205 268.903 610.42 266.297 610.88C263.689 611.339 255.242 612.306 254.875 615.267Z" fill="#111311" stroke="#111311" stroke-width="0.853263" stroke-miterlimit="10" stroke-linecap="round" stroke-linejoin="round"/>
<path d="M235.122 645.82L258.035 630.103L249.794 623.18L232.184 628.696C232.184 628.696 235.456 641.164 235.122 645.82Z" fill="#9D9D9D" stroke="#111311" stroke-width="0.853263" stroke-miterlimit="10" stroke-linecap="round" stroke-linejoin="round"/>
<path d="M223.483 654.842C223.483 654.842 225.662 655.048 228.969 652.784C232.278 650.52 235.21 649.079 235.283 641.786C235.357 634.49 233.316 623.131 231.858 621.561C230.4 619.991 219.71 620.699 219.35 621.38C218.991 622.063 225.977 635.751 225.732 643.315C225.486 650.88 223.483 654.842 223.483 654.842Z" fill="#111311" stroke="#111311" stroke-width="0.853263" stroke-miterlimit="10" stroke-linecap="round" stroke-linejoin="round"/>
<path d="M195.539 579.046C195.539 579.046 194.381 575.846 191.552 578.269C188.721 580.694 186.434 588.067 187.086 597.294C187.738 606.52 187.957 644.92 189.288 649.771C190.618 654.622 191.846 659.178 195.233 659.641C198.622 660.105 209.982 659.604 217.994 657.209C226.005 654.817 226.749 645.436 225.159 637.123C223.567 628.81 219.621 621.706 217.005 619.454C214.391 617.202 213.206 614.513 210.926 608.426C208.647 602.339 203.654 586.974 202.01 584.67" fill="#111311"/>
<path d="M195.539 579.046C195.539 579.046 194.381 575.846 191.552 578.269C188.721 580.694 186.434 588.067 187.086 597.294C187.738 606.52 187.957 644.92 189.288 649.771C190.618 654.622 191.846 659.178 195.233 659.641C198.622 660.105 209.982 659.604 217.994 657.209C226.005 654.817 226.749 645.436 225.159 637.123C223.567 628.81 219.621 621.706 217.005 619.454C214.391 617.202 213.206 614.513 210.926 608.426C208.647 602.339 203.654 586.974 202.01 584.67" stroke="#111311" stroke-width="0.853263" stroke-miterlimit="10" stroke-linecap="round" stroke-linejoin="round"/>
<path d="M202.474 633.01C201.699 633.58 200.907 634.084 200.104 634.49" stroke="#111311" stroke-width="0.853263" stroke-miterlimit="10" stroke-linecap="round" stroke-linejoin="round"/>
<path d="M212.432 621.842C212.432 621.842 208.956 627.305 204.487 631.37" stroke="#111311" stroke-width="0.853263" stroke-miterlimit="10" stroke-linecap="round" stroke-linejoin="round"/>
<path d="M257.986 617.221C257.986 617.221 237.264 617.305 231.99 616.655C226.716 616.006 219.552 612.382 219.552 612.382C219.552 612.382 210.98 607.596 209.154 606.392C207.329 605.188 202.734 604.751 201.409 605.213C200.084 605.675 197.014 607.736 197.254 609.229C197.494 610.722 199.289 609.864 200.214 609.217C201.139 608.57 202.602 608.12 202.602 608.12L206.935 609.562L207.627 610.806C207.627 610.806 201.358 611.385 200.469 611.741C199.579 612.098 196.536 617.396 195.976 618.52C195.415 619.643 195.851 619.537 196.686 619.616L197.522 619.696C197.522 619.696 196.819 621.982 197.619 622.352C198.419 622.722 199.605 622.247 199.605 622.247C199.605 622.247 200.455 623.358 200.873 623.398C201.291 623.438 205.91 621.377 206.66 621.007C207.409 620.638 213.238 622.516 214.769 622.662C216.303 622.808 222.169 623.22 222.169 623.22C222.169 623.22 249.267 634.331 252.957 635.271C256.646 636.21 259.171 636.304 261.097 632.076C263.023 627.847 261.117 618.107 257.986 617.221Z" fill="#9D9D9D" stroke="#111311" stroke-width="0.853263" stroke-miterlimit="10" stroke-linecap="round" stroke-linejoin="round"/>
<path d="M199.486 621.81C199.486 621.81 203.751 617.87 204.789 617.388C205.828 616.907 207.851 616.374 207.851 616.374" stroke="#111311" stroke-width="0.853263" stroke-miterlimit="10" stroke-linecap="round" stroke-linejoin="round"/>
<path d="M197.344 619.315L201.801 614.958L206.16 613.632" stroke="#111311" stroke-width="0.853263" stroke-miterlimit="10" stroke-linecap="round" stroke-linejoin="round"/>
<path d="M96.5559 501.638C96.5559 501.638 97.7138 502.333 99.5679 503.028C101.421 503.723 106.054 505.345 108.139 507.662C110.223 509.978 109.529 515.538 109.529 515.538" stroke="#111311" stroke-width="0.853263" stroke-miterlimit="10" stroke-linecap="round" stroke-linejoin="round"/>
<path d="M70.1087 520.909L68.2936 524.802" stroke="#111311" stroke-width="0.853263" stroke-miterlimit="10" stroke-linecap="round" stroke-linejoin="round"/>
<path d="M55.4788 508.681C55.4788 508.681 54.2152 514.649 52.9387 516.016C51.6622 517.384 49.634 519 50.3072 521.984C50.9813 524.968 54.914 526.832 54.902 527.33C54.8901 527.827 47.7705 529.195 47.9642 531.433C48.1587 533.671 50.082 536.406 50.082 536.406C50.082 536.406 44.8173 538.147 44.3719 541.131C43.9265 544.114 45.7192 547.098 45.6928 548.218C45.6655 549.336 42.4964 551.823 43.4436 553.813C44.389 555.802 46.6331 555.553 46.7491 555.926C46.8635 556.299 45.4573 557.915 45.4334 558.91C45.4086 559.904 46.1339 560.774 46.1339 560.774H88.1563L76.2379 498.611L60.4244 504.702L55.4788 508.681Z" fill="#21A038" stroke="#111311" stroke-width="0.853263" stroke-miterlimit="10" stroke-linecap="round" stroke-linejoin="round"/>
<path d="M112.408 649.755C112.408 649.755 121.075 669.48 122.213 674.322C123.35 679.164 123.89 700.717 122.086 709.111C118.8 724.397 109.383 738.879 109.383 738.879H61.648L51.8048 692.917L66.1806 648.14L112.408 649.755Z" fill="#9D9D9D" stroke="#111311" stroke-width="0.853263" stroke-miterlimit="10" stroke-linecap="round" stroke-linejoin="round"/>
<path d="M104.491 687.771L100.473 698.172L102.387 738.656" stroke="#111311" stroke-width="0.853263" stroke-miterlimit="10" stroke-linecap="round" stroke-linejoin="round"/>
<path d="M111.649 636.664C111.649 636.664 120.083 643.836 121.093 646.527C122.104 649.216 122.749 666.97 123.214 670.018C123.678 673.067 121.635 675.935 121.635 675.935L114.364 657.824C114.364 657.824 113.663 649.755 113.497 649.216C113.33 648.678 112 644.374 112 644.374L111.649 636.664Z" fill="#9D9D9D" stroke="#111311" stroke-width="0.853263" stroke-miterlimit="10" stroke-linecap="round" stroke-linejoin="round"/>
<path d="M118.601 653.162C118.601 653.162 118.702 656.389 119.004 658.721C119.306 661.052 120.277 665.356 118.279 666.432" fill="#9D9D9D"/>
<path d="M118.601 653.162C118.601 653.162 118.702 656.389 119.004 658.721C119.306 661.052 120.277 665.356 118.279 666.432" stroke="#111311" stroke-width="0.853263" stroke-miterlimit="10" stroke-linecap="round" stroke-linejoin="round"/>
<path d="M81.0445 560.27L92.5124 560.628L100.711 560.899L110.245 568.878C110.245 568.878 118.246 608.688 118.902 611.199C119.558 613.709 112.108 632.539 111.526 634.331C110.945 636.125 112.407 649.754 112.407 649.754C112.407 649.754 108.738 653.161 96.864 654.775C84.9891 656.388 71.3028 651.368 71.3028 651.368C71.3028 651.368 80.3056 627.696 82.228 614.964C82.228 614.964 83.9004 590.397 83.3526 583.404C82.8048 576.409 81.0445 560.27 81.0445 560.27Z" fill="#21A038" stroke="#111311" stroke-width="0.853263" stroke-miterlimit="10" stroke-linecap="round" stroke-linejoin="round"/>
<path d="M109.652 619.195L91.087 628.611" stroke="#111311" stroke-width="0.853263" stroke-miterlimit="10" stroke-linecap="round" stroke-linejoin="round"/>
<path d="M108.575 622.424L99.966 626.728" stroke="#111311" stroke-width="0.853263" stroke-miterlimit="10" stroke-linecap="round" stroke-linejoin="round"/>
<path d="M77.9036 547.088C77.9036 547.088 84.8013 570.97 85.693 575.197C86.5855 579.425 95.4168 584.397 100.829 581.662C106.241 578.927 104.503 573.705 103.588 570.473C102.671 567.24 100.711 560.899 100.711 560.899L102.798 541.504C102.798 541.504 96.2462 550.207 93.8596 551.201C91.473 552.196 77.9036 547.088 77.9036 547.088Z" fill="#9D9D9D" stroke="#111311" stroke-width="0.853263" stroke-miterlimit="10" stroke-linecap="round" stroke-linejoin="round"/>
<path d="M90.8083 553.371L99.847 562.093L102.067 543.381L90.8083 553.371Z" fill="#111311" stroke="#111311" stroke-width="0.853263" stroke-miterlimit="10" stroke-linecap="round" stroke-linejoin="round"/>
<path d="M100.164 561.142L99.6889 569.704" stroke="#111311" stroke-width="0.853263" stroke-miterlimit="10" stroke-linecap="round" stroke-linejoin="round"/>
<path d="M100.773 558.926C100.773 558.926 113.546 595.418 114.96 603.667C116.374 611.916 116.689 613.71 116.799 616.579C116.909 619.447 114.604 625.725 114.604 625.725C114.604 625.725 123.661 614.606 123.717 604.923C123.772 595.238 117.194 565.989 114.124 564.216C101.92 557.168 100.773 558.926 100.773 558.926Z" fill="#111311" stroke="#111311" stroke-width="0.853263" stroke-miterlimit="10" stroke-linecap="round" stroke-linejoin="round"/>
<path d="M112.63 576.918C112.63 576.918 118.084 593.332 117.43 605.575" stroke="#111311" stroke-width="0.853263" stroke-miterlimit="10" stroke-linecap="round" stroke-linejoin="round"/>
<path d="M69.2899 518.504L75.0844 510.298L101.9 537.526C101.9 537.526 100.27 553.44 100.258 553.937C100.246 554.435 101.92 557.169 101.92 557.169C101.92 557.169 102.652 557.791 103.252 558.662C103.852 559.532 103.231 559.532 103.077 560.775C102.922 562.018 103.777 562.64 104.384 563.263C104.99 563.884 106.467 564.506 107.325 565.003C108.183 565.5 107.41 566.618 106.762 567.738C106.113 568.857 105.191 570.971 106.256 573.208C107.321 575.446 107.951 575.073 109.774 576.813C111.596 578.554 108.947 580.171 108.947 580.171C108.947 580.171 110.323 579.797 111.451 579.425C112.579 579.051 113.107 577.808 112.631 576.938C112.154 576.067 111.229 573.208 111.614 572.711C111.999 572.214 115.522 570.473 116.55 569.105C117.578 567.738 116.465 567.49 117.347 566.992C118.23 566.495 119.998 565.375 120.413 563.635C120.828 561.895 118.766 559.78 119.402 559.159C120.039 558.537 122.43 554.709 122.458 553.591C122.484 552.471 121.068 550.579 121.068 550.579C121.068 550.579 121.991 549.835 122.576 546.229C123.161 542.624 120.328 541.504 120.128 539.515C119.928 537.526 122.854 534.791 122.898 527.828C122.942 520.866 111.431 518.753 111.079 517.882C110.728 517.011 111.134 515.644 110.93 513.779C110.727 511.914 106.206 508.682 106.206 508.682C106.206 508.682 106.747 506.817 107.151 505.573C107.554 504.33 106.96 503.212 104.77 501.222C102.58 499.233 91.9901 489.908 87.5387 488.913C83.0863 487.919 75.6339 492.768 74.7508 493.265C73.8685 493.763 66.824 492.022 64.6687 493.763C62.5125 495.502 61.8188 498.487 61.2906 499.73C60.7633 500.973 58.8989 500.973 57.7495 502.217C56.6002 503.46 54.7222 514.277 54.7222 514.277" fill="#21A038"/>
<path d="M69.2899 518.504L75.0844 510.298L101.9 537.526C101.9 537.526 100.27 553.44 100.258 553.937C100.246 554.435 101.92 557.169 101.92 557.169C101.92 557.169 102.652 557.791 103.252 558.662C103.852 559.532 103.231 559.532 103.077 560.775C102.922 562.018 103.777 562.64 104.384 563.263C104.99 563.884 106.467 564.506 107.325 565.003C108.183 565.5 107.41 566.618 106.762 567.738C106.113 568.857 105.191 570.971 106.256 573.208C107.321 575.446 107.951 575.073 109.774 576.813C111.596 578.554 108.947 580.171 108.947 580.171C108.947 580.171 110.323 579.797 111.451 579.425C112.579 579.051 113.107 577.808 112.631 576.938C112.154 576.067 111.229 573.208 111.614 572.711C111.999 572.214 115.522 570.473 116.55 569.105C117.578 567.738 116.465 567.49 117.347 566.992C118.23 566.495 119.998 565.375 120.413 563.635C120.828 561.895 118.766 559.78 119.402 559.159C120.039 558.537 122.43 554.709 122.458 553.591C122.484 552.471 121.068 550.579 121.068 550.579C121.068 550.579 121.991 549.835 122.576 546.229C123.161 542.624 120.328 541.504 120.128 539.515C119.928 537.526 122.854 534.791 122.898 527.828C122.942 520.866 111.431 518.753 111.079 517.882C110.728 517.011 111.134 515.644 110.93 513.779C110.727 511.914 106.206 508.682 106.206 508.682C106.206 508.682 106.747 506.817 107.151 505.573C107.554 504.33 106.96 503.212 104.77 501.222C102.58 499.233 91.9901 489.908 87.5387 488.913C83.0863 487.919 75.6339 492.768 74.7508 493.265C73.8685 493.763 66.824 492.022 64.6687 493.763C62.5125 495.502 61.8188 498.487 61.2906 499.73C60.7633 500.973 58.8989 500.973 57.7495 502.217C56.6002 503.46 54.7222 514.277 54.7222 514.277" stroke="#111311" stroke-width="0.853263" stroke-miterlimit="10" stroke-linecap="round" stroke-linejoin="round"/>
<path d="M80.3243 556.236C80.3243 556.236 93.305 601.873 93.8784 607.792C94.4526 613.709 74.1458 652.444 70.0041 660.513C65.8632 668.583 56.8391 693.15 55.3791 701.579C53.9192 710.007 52.7793 720.049 52.7793 720.049C52.7793 720.049 41.9667 714.849 34.9025 710.366C27.8384 705.883 26.6438 703.372 27.2035 702.476C27.7633 701.579 30.7233 690.461 30.7233 690.461C30.7233 690.461 24.6122 683.646 24.9876 682.928C25.3639 682.211 39.2533 634.511 39.2533 634.511C39.2533 634.511 42.9087 557.76 44.3439 557.76C45.7782 557.76 80.3243 556.236 80.3243 556.236Z" fill="#111311" stroke="#111311" stroke-width="0.853263" stroke-miterlimit="10" stroke-linecap="round" stroke-linejoin="round"/>
<path d="M79.0136 578.028L93.8786 607.792" stroke="#111311" stroke-width="0.853263" stroke-miterlimit="10" stroke-linecap="round" stroke-linejoin="round"/>
<path d="M52.9387 558.297C52.9387 558.297 42.2311 556.145 40.3684 559.014C38.5049 561.884 22.0838 610.481 21.0787 614.964C20.0727 619.447 50.8294 652.622 50.8294 652.622L66.6873 642.042L47.9599 615.681L58.1982 578.023" fill="#111311"/>
<path d="M52.9387 558.297C52.9387 558.297 42.2311 556.145 40.3684 559.014C38.5049 561.884 22.0838 610.481 21.0787 614.964C20.0727 619.447 50.8294 652.622 50.8294 652.622L66.6873 642.042L47.9599 615.681L58.1982 578.023" stroke="#111311" stroke-width="0.853263" stroke-miterlimit="10" stroke-linecap="round" stroke-linejoin="round"/>
<path d="M55.5093 589.727L47.8649 613.356L64.9677 638.994" stroke="#111311" stroke-width="0.853263" stroke-miterlimit="10" stroke-linecap="round" stroke-linejoin="round"/>
<path d="M57.594 582.315L56.4985 585.809" stroke="#111311" stroke-width="0.853263" stroke-miterlimit="10" stroke-linecap="round" stroke-linejoin="round"/>
<path d="M64.8861 638.992L47.763 653.25L53.5885 660.326L71.6041 646.437L64.8861 638.992Z" fill="#9D9D9D" stroke="#111311" stroke-width="0.853263" stroke-miterlimit="10" stroke-linecap="round" stroke-linejoin="round"/>
<path d="M70.3317 647.064C70.3317 647.064 84.6537 662.844 86.2502 663.562C87.8466 664.28 90.9918 667.687 91.8493 669.3C92.7068 670.914 93.9099 673.066 95.1429 673.962C96.3767 674.859 96.5303 675.935 94.3647 676.474C92.2 677.011 90.223 677.191 89.0284 674.68C87.8347 672.17 85.9183 669.838 85.9183 669.838L73.6816 678.984C73.6816 678.984 71.0476 669.3 70.737 667.327C70.4256 665.355 69.7865 662.127 69.7865 662.127L61.5499 654.237L70.3317 647.064Z" fill="#9D9D9D" stroke="#111311" stroke-width="0.853263" stroke-miterlimit="10" stroke-linecap="round" stroke-linejoin="round"/>
<path d="M50.2647 545.233C50.2647 545.233 49.0778 553.188 49.757 555.926C50.4763 558.822 56.3049 558.303 55.1095 562.149C54.7238 563.389 53.2178 564.712 53.6888 566.119C54.1718 567.56 56.0686 567.642 57.1224 568.46C59.0584 569.964 58.3656 571.578 59.0234 573.707C59.4996 575.245 61.1378 575.777 61.5807 576.997C62.1063 578.442 61.0986 579.345 62.7027 580.916C65.4954 583.652 67.597 584.148 67.9759 583.9C68.3547 583.652 67.6243 583.03 69.3855 582.159C71.1474 581.289 74.5434 579.673 73.9555 578.305C73.3762 576.959 72.7968 575.613 72.7832 575.58C73.6031 577.468 76.1493 575.561 76.8447 574.567C78.4335 572.299 76.0042 569.856 76.2884 567.405C76.6024 564.688 79.6622 563.288 80.0043 560.55C80.3388 557.869 77.5546 556.023 78.1613 553.564C78.4369 552.445 78.5913 551.201 78.5913 551.201C78.5913 551.201 77.7816 548.715 76.5588 547.844C75.337 546.974 74.924 543.493 74.8301 542.25" fill="#21A038"/>
<path d="M50.2647 545.233C50.2647 545.233 49.0778 553.188 49.757 555.926C50.4763 558.822 56.3049 558.303 55.1095 562.149C54.7238 563.389 53.2178 564.712 53.6888 566.119C54.1718 567.56 56.0686 567.642 57.1224 568.46C59.0584 569.964 58.3656 571.578 59.0234 573.707C59.4996 575.245 61.1378 575.777 61.5807 576.997C62.1063 578.442 61.0986 579.345 62.7027 580.916C65.4954 583.652 67.597 584.148 67.9759 583.9C68.3547 583.652 67.6243 583.03 69.3855 582.159C71.1474 581.289 74.5434 579.673 73.9555 578.305C73.3762 576.959 72.7968 575.613 72.7832 575.58C73.6031 577.468 76.1493 575.561 76.8447 574.567C78.4335 572.299 76.0042 569.856 76.2884 567.405C76.6024 564.688 79.6622 563.288 80.0043 560.55C80.3388 557.869 77.5546 556.023 78.1613 553.564C78.4369 552.445 78.5913 551.201 78.5913 551.201C78.5913 551.201 77.7816 548.715 76.5588 547.844C75.337 546.974 74.924 543.493 74.8301 542.25" stroke="#111311" stroke-width="0.853263" stroke-miterlimit="10" stroke-linecap="round" stroke-linejoin="round"/>
<path d="M72.6304 505.813C72.6304 505.813 62.579 520.427 63.3478 523.519C64.1157 526.611 71.7857 546.425 74.4078 548.393C77.0298 550.36 87.5984 554.998 91.1078 555.139C94.6173 555.279 97.1805 553.874 98.6447 551.484C100.108 549.096 105.683 539.399 105.734 537.291C105.785 535.183 101.286 514.953 100.45 514.672C99.614 514.39 72.6304 505.813 72.6304 505.813Z" fill="#9D9D9D" stroke="black" stroke-width="0.853263" stroke-miterlimit="10" stroke-linecap="round" stroke-linejoin="round"/>
<path d="M87.99 521.34C87.99 521.34 87.7008 525.241 88.06 526.508C88.4192 527.776 91.7214 532.359 91.799 533.139C91.8784 533.919 90.5916 534.699 88.8194 535.382" stroke="#111311" stroke-width="0.853263" stroke-miterlimit="10" stroke-linecap="round" stroke-linejoin="round"/>
<path d="M65.304 529.559C65.304 529.559 63.1048 527.588 61.926 529.978C60.7471 532.368 61.6545 535.602 65.3812 538.276C69.1089 540.95 69.9509 540.951 69.9509 540.951L65.304 529.559Z" fill="#9D9D9D" stroke="#111311" stroke-width="0.853263" stroke-miterlimit="10" stroke-linecap="round" stroke-linejoin="round"/>
<path d="M102.085 519.724C102.085 519.724 104.076 518.74 104.999 521.27C105.921 523.799 104.5 530.265 104.5 530.265L102.085 519.724Z" fill="#9D9D9D" stroke="#111311" stroke-width="0.853263" stroke-miterlimit="10" stroke-linecap="round" stroke-linejoin="round"/>
<path d="M83.0264 540.3C83.0264 540.3 89.4992 539.958 91.0683 539.196C92.6367 538.431 95.3273 535.228 95.3273 535.228C95.3273 535.228 95.5001 542.42 92.1072 543.567C89.7228 544.373 83.0264 540.3 83.0264 540.3Z" fill="#9D9D9D" stroke="#111311" stroke-width="0.853263" stroke-miterlimit="10" stroke-linecap="round" stroke-linejoin="round"/>
<path d="M72.4201 525.142C72.4201 525.142 72.8305 521.363 79.3252 520.791L72.4201 525.142Z" fill="#9D9D9D"/>
<path d="M72.4201 525.142C72.4201 525.142 72.8305 521.363 79.3252 520.791" stroke="#111311" stroke-width="0.853263" stroke-miterlimit="10" stroke-linecap="round" stroke-linejoin="round"/>
<path d="M87.8946 518.2C87.8946 518.2 91.8852 514.622 96.1277 518.901L87.8946 518.2Z" fill="#9D9D9D"/>
<path d="M87.8946 518.2C87.8946 518.2 91.8852 514.622 96.1277 518.901" stroke="#111311" stroke-width="0.853263" stroke-miterlimit="10" stroke-linecap="round" stroke-linejoin="round"/>
<path d="M80.3615 527.057C80.7216 528.217 80.3906 529.347 79.6205 529.584C78.8506 529.819 77.9337 529.07 77.5729 527.911C77.2126 526.75 77.5435 525.619 78.3136 525.383C79.0835 525.148 80.0004 525.896 80.3615 527.057Z" fill="#111311"/>
<path d="M93.6277 523.381C93.9885 524.541 93.6565 525.672 92.8868 525.908C92.1174 526.144 91.2004 525.394 90.8396 524.234C90.4783 523.074 90.81 521.943 91.5797 521.707C92.3494 521.472 93.2669 522.22 93.6277 523.381Z" fill="#111311"/>
</g>
<defs>
<filter id="filter0_f_1_176" x="-383" y="205.851" width="822.149" height="822.15" filterUnits="userSpaceOnUse" color-interpolation-filters="sRGB">
<feFlood flood-opacity="0" result="BackgroundImageFix"/>
<feBlend mode="normal" in="SourceGraphic" in2="BackgroundImageFix" result="shape"/>
<feGaussianBlur stdDeviation="163" result="effect1_foregroundBlur_1_176"/>
</filter>
<filter id="filter1_f_1_176" x="-101.95" y="0" width="993.236" height="993.236" filterUnits="userSpaceOnUse" color-interpolation-filters="sRGB">
<feFlood flood-opacity="0" result="BackgroundImageFix"/>
<feBlend mode="normal" in="SourceGraphic" in2="BackgroundImageFix" result="shape"/>
<feGaussianBlur stdDeviation="163" result="effect1_foregroundBlur_1_176"/>
</filter>
<filter id="filter2_f_1_176" x="-96.1067" y="293.411" width="559.994" height="559.994" filterUnits="userSpaceOnUse" color-interpolation-filters="sRGB">
<feFlood flood-opacity="0" result="BackgroundImageFix"/>
<feBlend mode="normal" in="SourceGraphic" in2="BackgroundImageFix" result="shape"/>
<feGaussianBlur stdDeviation="100" result="effect1_foregroundBlur_1_176"/>
</filter>
<clipPath id="clip0_1_176">
<rect width="426.632" height="386" fill="white" transform="translate(-29 348)"/>
</clipPath>
</defs>
</svg>
